<?xml version="1.0" encoding="UTF-8"?>
<svg id="_レイヤー_2" data-name="レイヤー 2" xmlns="http://www.w3.org/2000/svg" xmlns:xlink="http://www.w3.org/1999/xlink" viewBox="0 0 621.27 260.39">
  <defs>
    <style>
      .cls-1, .cls-2, .cls-3, .cls-4 {
        fill: none;
      }

      .cls-5 {
        stroke: #49625d;
        stroke-width: 5.18px;
      }

      .cls-5, .cls-6 {
        fill: #b0d47a;
      }

      .cls-5, .cls-2, .cls-3, .cls-4 {
        stroke-miterlimit: 10;
      }

      .cls-7 {
        clip-path: url(#clippath);
      }

      .cls-8 {
        fill: #f8fbed;
      }

      .cls-9 {
        fill: #49625d;
      }

      .cls-10 {
        fill: #5cbb8b;
      }

      .cls-2 {
        stroke-width: 28.35px;
      }

      .cls-2, .cls-3, .cls-4 {
        stroke: #b0d47a;
      }

      .cls-2, .cls-4 {
        stroke-linecap: round;
      }

      .cls-3 {
        stroke-width: 2.53px;
      }

      .cls-11 {
        clip-path: url(#clippath-1);
      }

      .cls-12 {
        clip-path: url(#clippath-4);
      }

      .cls-13 {
        clip-path: url(#clippath-3);
      }

      .cls-14 {
        clip-path: url(#clippath-2);
      }

      .cls-4 {
        stroke-width: 26.58px;
      }

      .cls-15 {
        fill: #fff;
        font-family: TsukuARdGothic-Bold-83pv-RKSJ-H, 'Tsukushi A Round Gothic';
        font-size: 22.68px;
        font-weight: 700;
      }
    </style>
    <clipPath id="clippath">
      <rect class="cls-1" x="97.21" y="22.59" width="379.78" height="237.8"/>
    </clipPath>
    <clipPath id="clippath-1">
      <path class="cls-1" d="m329.36,93.83l-43.1-.06c-2.08,0-4.03-.98-5.28-2.64l-10.95-14.5c-3.3-4.37-.18-10.64,5.3-10.63l62.75.09c5.16,0,8.33,5.64,5.68,10.06l-8.7,14.46c-1.2,2-3.36,3.22-5.7,3.21Z"/>
    </clipPath>
    <clipPath id="clippath-2">
      <path class="cls-1" d="m181.93,265.88h-28.35c0-21.51,10.17-32.95,19.14-43.05,7.13-8.03,13.87-15.61,18.35-29.93l.24-.75.32-.72c3.61-8.21,5.21-48.93,4.62-81.95l28.34-.51c.31,17.29.73,74.41-6.66,93.02-6.31,19.74-16.12,30.79-24.02,39.68-7.73,8.69-11.98,13.48-11.98,24.22Z"/>
    </clipPath>
    <clipPath id="clippath-3">
      <path class="cls-1" d="m424.83,265.88h28.35c0-21.51-10.17-32.95-19.14-43.05-7.13-8.03-13.87-15.61-18.35-29.93l-.24-.75-.32-.72c-3.61-8.21-5.21-48.93-4.62-81.95l-28.34-.51c-.31,17.29-.73,74.41,6.66,93.02,6.31,19.74,16.12,30.79,24.02,39.68,7.73,8.69,11.98,13.48,11.98,24.22Z"/>
    </clipPath>
    <clipPath id="clippath-4">
      <path class="cls-1" d="m283.66,82.92l-38.81-.06c-1.87,0-3.63-.88-4.76-2.37l-9.86-13.05c-2.98-3.94-.16-9.58,4.78-9.58l56.5.09c4.64,0,7.5,5.08,5.11,9.05l-7.84,13.02c-1.08,1.8-3.03,2.9-5.13,2.89Z"/>
    </clipPath>
  </defs>
  <g id="_レイヤー_1-2" data-name="レイヤー 1">
    <g>
      <g class="cls-7">
        <g>
          <path class="cls-8" d="m426.17,130.15l-274.07.24c-5.5,0-10.5-3.17-12.84-8.14l-30.2-64.13c-4.42-9.39,2.41-20.19,12.79-20.22l330.44-.96c10.07-.03,16.96,10.15,13.19,19.49l-26.16,64.85c-2.16,5.36-7.36,8.87-13.14,8.88Z"/>
          <g>
            <path class="cls-6" d="m329.36,93.83l-43.1-.06c-2.08,0-4.03-.98-5.28-2.64l-10.95-14.5c-3.3-4.37-.18-10.64,5.3-10.63l62.75.09c5.16,0,8.33,5.64,5.68,10.06l-8.7,14.46c-1.2,2-3.36,3.22-5.7,3.21Z"/>
            <g class="cls-11">
              <polygon class="cls-10" points="334.82 94.74 281.24 94.74 273.45 82.79 341.86 83.13 334.82 94.74"/>
            </g>
          </g>
          <path class="cls-6" d="m283.66,82.92l-38.81-.06c-1.87,0-3.63-.88-4.76-2.37l-9.86-13.05c-2.98-3.94-.16-9.58,4.78-9.58l56.5.09c4.64,0,7.5,5.08,5.11,9.05l-7.84,13.02c-1.08,1.8-3.03,2.9-5.13,2.89Z"/>
          <path class="cls-6" d="m181.93,265.88h-28.35c0-21.51,10.17-32.95,19.14-43.05,7.13-8.03,13.87-15.61,18.35-29.93l.24-.75.32-.72c3.61-8.21,5.21-48.93,4.62-81.95l28.34-.51c.31,17.29.73,74.41-6.66,93.02-6.31,19.74-16.12,30.79-24.02,39.68-7.73,8.69-11.98,13.48-11.98,24.22Z"/>
          <path class="cls-10" d="m227.27,265.88h-28.35c0-21.51,10.17-32.95,19.14-43.05,7.13-8.03,13.87-15.61,18.35-29.93l.24-.75.32-.72c3.61-8.21,5.21-48.93,4.62-81.95l28.34-.51c.31,17.29.73,74.41-6.66,93.02-6.31,19.74-16.12,30.79-24.02,39.68-7.73,8.69-11.98,13.48-11.98,24.22Z"/>
          <g>
            <path class="cls-9" d="m158.07,99.26c-2.11,0-3.82.07-3.82-2.16v-13.94c0-2.23,1.71-4.03,3.82-4.03s3.82,1.8,3.82,4.03v13.94c0,2.23-1.71,2.16-3.82,2.16Z"/>
            <path class="cls-9" d="m147.45,84.35s10.48-3.74,20.96,0v-3.99s-9.88-4.09-20.96,0v3.99Z"/>
            <path class="cls-9" d="m161.91,93.13c-.47-.48-7.09-.49-7.64,0,0,.13-1.09-.48-1.09-1.06v-5.77c0-.59.59-1.06,1.32-1.06h7.17c.73,0,1.32.48,1.32,1.06v5.77c0,.59-1.09,1.16-1.09,1.06Z"/>
            <rect class="cls-9" x="152.37" y="81.29" width="11.21" height="5.09" rx=".97" ry=".97"/>
            <path class="cls-6" d="m159.69,98.85h-3.25c-.45,0-1.05-.46-1.05-.83h0c0-.36.37-.66.82-.66h3.71c.45,0,.82.3.82.66h0c0,.36-.6.83-1.05.83Z"/>
          </g>
          <g>
            <path class="cls-9" d="m175.94,116.42c-1.69,0-3.05.06-3.05-1.72v-11.14c0-1.78,1.37-3.22,3.05-3.22s3.05,1.44,3.05,3.22v11.14c0,1.78-1.37,1.72-3.05,1.72Z"/>
            <path class="cls-9" d="m167.46,104.5s8.38-2.99,16.75,0v-3.19s-7.89-3.27-16.75,0v3.19Z"/>
            <path class="cls-9" d="m179.01,111.53c-.37-.38-5.66-.39-6.11,0,0,.11-.87-.38-.87-.85v-4.61c0-.47.47-.85,1.06-.85h5.73c.58,0,1.06.38,1.06.85v4.61c0,.47-.87.93-.87.85Z"/>
            <rect class="cls-9" x="171.38" y="102.06" width="8.96" height="4.06" rx=".77" ry=".77"/>
            <path class="cls-6" d="m177.23,116.1h-2.59c-.36,0-.84-.37-.84-.66h0c0-.29.3-.53.66-.53h2.96c.36,0,.66.24.66.53h0c0,.29-.48.66-.84.66Z"/>
          </g>
          <path class="cls-6" d="m295.88,79.92h24.41v31c0,1.8-1.46,3.26-3.26,3.26h-17.88c-1.8,0-3.26-1.46-3.26-3.26v-31h0Z"/>
          <path class="cls-9" d="m299.02,109.39h18.13c.89,0,1.61.72,1.61,1.61v1.2c0,.81-.66,1.47-1.47,1.47h-18.42c-.81,0-1.47-.66-1.47-1.47v-1.2c0-.89.72-1.61,1.61-1.61Z"/>
          <path class="cls-10" d="m349.33,272.37c-6.64-11.51-29.37-55.58-32.52-69.22-8.14-31.55-8.04-63.72-7.25-93.97l5.67.15c-.82,31.08-.9,61.55,7.09,92.48,2.91,12.62,24.94,55.65,31.92,67.73l-4.91,2.83Z"/>
          <path class="cls-6" d="m326.99,275.6c-13.76-25.42-20.62-66.59-21.25-82.99-.72-19.05-.85-38.16-.98-56.63-.06-8.81-.12-17.92-.25-26.96l5.67-.08c.13,9.06.19,18.18.25,27,.13,18.43.26,37.49.98,56.45.6,15.94,7.25,55.91,20.57,80.5l-4.99,2.7Z"/>
          <rect class="cls-6" x="334.97" y="105.42" width="28.35" height="160.24"/>
          <rect class="cls-9" x="321.69" y="81.23" width="52.91" height="26.34" rx="3.96" ry="3.96"/>
          <rect class="cls-9" x="332.45" y="91.03" width="33.38" height="21.85" rx="3.88" ry="3.88"/>
          <rect class="cls-9" x="228.14" y="81.23" width="52.91" height="26.34"/>
          <rect class="cls-9" x="237.9" y="91.03" width="33.38" height="21.85"/>
          <g>
            <rect class="cls-10" x="344.3" y="99.25" width="25.49" height="10.05" rx="2.37" ry="2.37" transform="translate(178.31 -221.93) rotate(45)"/>
            <g>
              <circle class="cls-10" cx="349.89" cy="97.05" r="8.88"/>
              <circle class="cls-9" cx="349.89" cy="97.05" r="4.36"/>
            </g>
          </g>
          <g>
            <rect class="cls-10" x="248.34" y="99.25" width="25.49" height="10.05" rx="2.37" ry="2.37" transform="translate(150.2 -154.07) rotate(45)"/>
            <g>
              <circle class="cls-10" cx="253.93" cy="97.05" r="8.88"/>
              <circle class="cls-9" cx="253.93" cy="97.05" r="4.36"/>
            </g>
          </g>
          <g class="cls-14">
            <path class="cls-10" d="m198.09,238.41c-4.92,5.17-30.39,23.05-30.39,52.46l24.28-6.35s-3.18-16.3,13.12-38.96c7.16-9.14,23.16-17.04,23.16-130.36,0-9.97-9.92-5.01-9.92-5.01,0,0,6.99,103.52-20.24,128.21Z"/>
          </g>
          <path class="cls-6" d="m424.83,265.88h28.35c0-21.51-10.17-32.95-19.14-43.05-7.13-8.03-13.87-15.61-18.35-29.93l-.24-.75-.32-.72c-3.61-8.21-5.21-48.93-4.62-81.95l-28.34-.51c-.31,17.29-.73,74.41,6.66,93.02,6.31,19.74,16.12,30.79,24.02,39.68,7.73,8.69,11.98,13.48,11.98,24.22Z"/>
          <g class="cls-13">
            <path class="cls-10" d="m408.66,238.41c4.92,5.17,30.39,23.05,30.39,52.46l-24.28-6.35s3.18-16.3-13.12-38.96c-7.16-9.14-23.16-17.04-23.16-130.36,0-9.97,9.92-5.01,9.92-5.01,0,0-6.99,103.52,20.24,128.21Z"/>
          </g>
          <g>
            <rect class="cls-9" x="369.79" y="81.23" width="52.91" height="26.34" rx="3.96" ry="3.96"/>
            <rect class="cls-9" x="379.55" y="91.03" width="33.38" height="21.85" rx="3.88" ry="3.88"/>
            <g>
              <rect class="cls-10" x="391.68" y="92.02" width="25.49" height="10.05" rx="2.37" ry="2.37"/>
              <g>
                <circle class="cls-10" cx="397.27" cy="97.05" r="8.88"/>
                <circle class="cls-9" cx="397.27" cy="97.05" r="4.36"/>
              </g>
            </g>
          </g>
          <rect class="cls-9" x="183.1" y="81.23" width="52.91" height="26.34" rx="3.96" ry="3.96"/>
          <rect class="cls-9" x="193.86" y="91.03" width="33.38" height="21.85" rx="3.88" ry="3.88"/>
          <g>
            <rect class="cls-10" x="190.19" y="85.4" width="25.49" height="10.05" rx="2.37" ry="2.37" transform="translate(282.49 297.87) rotate(-135)"/>
            <g>
              <circle class="cls-10" cx="210.09" cy="97.65" r="8.88"/>
              <circle class="cls-9" cx="210.09" cy="97.65" r="4.36"/>
            </g>
          </g>
          <g class="cls-12">
            <polygon class="cls-10" points="288.58 83.74 240.33 83.74 233.32 72.98 294.92 73.29 288.58 83.74"/>
          </g>
          <rect class="cls-6" x="251.84" y="67.13" width="24.96" height="200.02"/>
          <g>
            <path class="cls-5" d="m278.28,138.25c-3.79-5.94-10.87-8.49-17.34-6.8-1.69-1.27-4.05-1.44-5.94-.24-1.89,1.2-2.72,3.42-2.29,5.49-4.25,5.15-4.92,12.66-1.14,18.59,3.79,5.94,10.87,8.49,17.34,6.8,1.69,1.27,4.05,1.44,5.94.24s2.72-3.42,2.29-5.49c4.25-5.15,4.92-12.66,1.14-18.59Z"/>
            <circle class="cls-10" cx="264.93" cy="146.77" r="5.27"/>
          </g>
        </g>
      </g>
      <g>
        <line class="cls-4" x1="149.87" y1="186.86" x2="13.29" y2="186.86"/>
        <g>
          <circle class="cls-6" cx="151.79" cy="103.6" r="2.84"/>
          <line class="cls-3" x1="151.79" y1="103.6" x2="151.79" y2="179.49"/>
        </g>
      </g>
      <text class="cls-15" transform="translate(15.15 194.63)"><tspan x="0" y="0">ポンプ水抜き</tspan></text>
      <g>
        <line class="cls-2" x1="607.09" y1="157.68" x2="461.69" y2="157.68"/>
        <g>
          <circle class="cls-6" cx="405.66" cy="103.6" r="2.84"/>
          <line class="cls-3" x1="405.66" y1="103.6" x2="459.32" y2="157.26"/>
        </g>
      </g>
      <text class="cls-15" transform="translate(464.99 166.44)"><tspan x="0" y="0">給湯水抜き栓</tspan></text>
      <g>
        <line class="cls-2" x1="515.36" y1="14.17" x2="378.77" y2="14.17"/>
        <g>
          <circle class="cls-6" cx="347.37" cy="88.61" r="2.84"/>
          <line class="cls-3" x1="347.37" y1="88.61" x2="377.22" y2="18.84"/>
        </g>
      </g>
      <text class="cls-15" transform="translate(376.43 22.31)"><tspan x="0" y="0">給水水抜き栓</tspan></text>
    </g>
  </g>
</svg>