<?xml version="1.0" encoding="UTF-8"?>
<svg id="_レイヤー_2" data-name="レイヤー 2" xmlns="http://www.w3.org/2000/svg" viewBox="0 0 535.69 247.94">
  <defs>
    <style>
      .cls-1 {
        font-size: 8.14px;
      }

      .cls-1, .cls-2, .cls-3 {
        fill: #49625d;
      }

      .cls-1, .cls-3 {
        font-family: BaiJamjuree-Regular, 'Bai Jamjuree';
      }

      .cls-4, .cls-5 {
        fill: #f8fbed;
      }

      .cls-6, .cls-7 {
        fill: #e8403d;
      }

      .cls-8 {
        fill: #b0d47a;
      }

      .cls-9 {
        stroke-width: 28.35px;
      }

      .cls-9, .cls-10, .cls-11 {
        stroke: #b0d47a;
      }

      .cls-9, .cls-10, .cls-11, .cls-12, .cls-13, .cls-14, .cls-15 {
        fill: none;
        stroke-miterlimit: 10;
      }

      .cls-9, .cls-11 {
        stroke-linecap: round;
      }

      .cls-10 {
        stroke-width: 2.53px;
      }

      .cls-3 {
        font-size: 7.23px;
      }

      .cls-11 {
        stroke-width: 26.58px;
      }

      .cls-12 {
        stroke-width: .6px;
      }

      .cls-12, .cls-13, .cls-14, .cls-15 {
        stroke: #49625d;
      }

      .cls-16 {
        fill: #fff;
        font-family: TsukuARdGothic-Bold-83pv-RKSJ-H, 'Tsukushi A Round Gothic';
        font-size: 22.68px;
        font-weight: 700;
      }

      .cls-13 {
        stroke-width: .98px;
      }

      .cls-14 {
        stroke-width: .89px;
      }

      .cls-15 {
        stroke-width: .67px;
      }

      .cls-5, .cls-7 {
        font-family: BaiJamjuree-SemiBold, 'Bai Jamjuree';
        font-size: 20.8px;
        font-weight: 600;
      }
    </style>
  </defs>
  <g id="_レイヤー_1-2" data-name="レイヤー 1">
    <g>
      <g>
        <g>
          <path class="cls-8" d="m239.7,29.79c38.17,0,69.11,30.94,69.11,69.11s-30.94,69.11-69.11,69.11-69.11-30.94-69.11-69.11,30.94-69.11,69.11-69.11m0-29.79c-54.53,0-98.89,44.36-98.89,98.89s44.36,98.89,98.89,98.89,98.89-44.36,98.89-98.89S294.22,0,239.7,0h0Z"/>
          <circle class="cls-4" cx="239.7" cy="98.89" r="74.07"/>
          <path class="cls-2" d="m239.7,29.79c38.17,0,69.11,30.94,69.11,69.11s-30.94,69.11-69.11,69.11-69.11-30.94-69.11-69.11,30.94-69.11,69.11-69.11m0-9.93c-43.58,0-79.03,35.45-79.03,79.03s35.45,79.03,79.03,79.03,79.03-35.45,79.03-79.03-35.46-79.03-79.03-79.03h0Z"/>
        </g>
        <path class="cls-2" d="m178.86,99.37c0-33.6,27.23-60.83,60.83-60.83,33.6,0,60.83,27.23,60.83,60.83"/>
      </g>
      <text class="cls-5" transform="translate(193.58 85.48)"><tspan x="0" y="0">0478</tspan></text>
      <text class="cls-7" transform="translate(261.1 85.95)"><tspan x="0" y="0">6</tspan></text>
      <g>
        <path class="cls-4" d="m257.6,53.28c.37.41.56.98.56,1.7v5.02h-1.04v-5.05c0-.42-.1-.76-.29-1-.19-.24-.45-.36-.77-.36h-.82c-.41,0-.76.14-1.03.42-.27.28-.44.68-.52,1.19v4.8h-1.04v-4.96c0-.45-.09-.81-.27-1.06-.18-.26-.42-.38-.73-.38h-.82c-.4,0-.74.17-1.04.52-.3.35-.49.8-.56,1.36v4.53h-1.04v-7.22h1.01v1.04c.19-.37.43-.65.72-.85.29-.2.59-.3.91-.3h.85c.41,0,.76.1,1.05.3.29.2.52.48.67.86.22-.39.49-.67.8-.87.31-.19.65-.29,1.01-.29h.88c.64,0,1.14.21,1.51.62Z"/>
        <path class="cls-4" d="m264.12,53.84c.18.27.27.57.27.91v.4c0,.53-.17.96-.52,1.29-.35.33-.8.49-1.37.49h-.96c-.56,0-1.02-.18-1.36-.53s-.51-.82-.51-1.41h.54c0,.43.12.78.37,1.04.25.27.57.4.96.4h.96c.4,0,.73-.12.97-.35.24-.23.37-.54.37-.93v-.4c0-.39-.12-.7-.37-.91-.25-.22-.58-.32-1-.32h-.98v-.48h.98c.38,0,.69-.11.91-.32.22-.21.33-.5.33-.87v-.4c0-.35-.11-.62-.33-.84s-.51-.32-.87-.32h-.96c-.39,0-.7.13-.94.4-.24.27-.35.61-.35,1.04h-.55c0-.58.17-1.05.51-1.4s.78-.53,1.33-.53h.96c.52,0,.95.15,1.26.45.32.3.48.7.48,1.19v.4c0,.33-.08.62-.23.86-.16.25-.37.43-.65.56.31.12.56.31.74.58Z"/>
      </g>
      <polygon class="cls-4" points="278.25 79.63 289.11 83.7 289.11 75.55 278.25 79.63"/>
      <g>
        <circle class="cls-14" cx="209.72" cy="117.63" r="9.7"/>
        <circle class="cls-6" cx="209.72" cy="117.63" r="4.47"/>
      </g>
      <g>
        <circle class="cls-15" cx="254.97" cy="142.33" r="15.27"/>
        <g>
          <line class="cls-12" x1="254.92" y1="157.68" x2="254.93" y2="153.39"/>
          <line class="cls-12" x1="245.91" y1="154.73" x2="248.44" y2="151.26"/>
          <line class="cls-12" x1="240.35" y1="147.03" x2="244.44" y2="145.72"/>
          <line class="cls-12" x1="240.38" y1="137.55" x2="244.46" y2="138.88"/>
          <line class="cls-12" x1="245.98" y1="129.89" x2="248.49" y2="133.37"/>
          <line class="cls-12" x1="255.01" y1="126.99" x2="255" y2="131.27"/>
          <line class="cls-12" x1="264.03" y1="129.94" x2="261.49" y2="133.41"/>
          <line class="cls-12" x1="269.58" y1="137.63" x2="265.5" y2="138.95"/>
          <line class="cls-12" x1="269.55" y1="147.12" x2="265.47" y2="145.78"/>
          <line class="cls-12" x1="263.95" y1="154.78" x2="261.44" y2="151.3"/>
        </g>
        <g>
          <circle class="cls-6" cx="254.97" cy="142.8" r="4.08"/>
          <polygon class="cls-6" points="254.97 131.09 250.89 142.8 259.04 142.8 254.97 131.09"/>
        </g>
      </g>
      <g>
        <circle class="cls-15" cx="283.04" cy="118.55" r="15.27"/>
        <g>
          <line class="cls-12" x1="267.69" y1="118.5" x2="271.97" y2="118.52"/>
          <line class="cls-12" x1="270.65" y1="109.49" x2="274.11" y2="112.02"/>
          <line class="cls-12" x1="278.34" y1="103.94" x2="279.65" y2="108.02"/>
          <line class="cls-12" x1="287.82" y1="103.97" x2="286.49" y2="108.04"/>
          <line class="cls-12" x1="295.48" y1="109.57" x2="292" y2="112.08"/>
          <line class="cls-12" x1="298.39" y1="118.6" x2="294.1" y2="118.58"/>
          <line class="cls-12" x1="295.43" y1="127.61" x2="291.97" y2="125.08"/>
          <line class="cls-12" x1="287.74" y1="133.16" x2="286.42" y2="129.08"/>
          <line class="cls-12" x1="278.25" y1="133.13" x2="279.59" y2="129.06"/>
          <line class="cls-12" x1="270.59" y1="127.54" x2="274.07" y2="125.03"/>
        </g>
        <g>
          <circle class="cls-6" cx="282.57" cy="118.55" r="4.08"/>
          <polygon class="cls-6" points="294.28 118.55 282.57 114.47 282.57 122.63 294.28 118.55"/>
        </g>
      </g>
      <text class="cls-3" transform="translate(230.03 148.16)"><tspan x="0" y="0">1L</tspan></text>
      <text class="cls-3" transform="translate(252.74 122.16)"><tspan x="0" y="0">10L</tspan></text>
      <polygon class="cls-2" points="200.01 117.63 196.14 115.39 196.14 119.87 200.01 117.63"/>
      <text class="cls-1" transform="translate(188.38 120.35)"><tspan x="0" y="0">H</tspan></text>
      <polygon class="cls-2" points="233.72 130.29 237.41 120.23 230.03 120.23 233.72 130.29"/>
      <line class="cls-13" x1="233.72" y1="109.44" x2="233.72" y2="124.84"/>
      <text class="cls-3" transform="translate(202.92 145.84)"><tspan x="0" y="0">R=100</tspan></text>
      <text class="cls-3" transform="translate(205.24 136.45)"><tspan x="0" y="0">Q₃=4</tspan></text>
    </g>
    <g>
      <line class="cls-11" x1="13.29" y1="219.19" x2="128.4" y2="219.19"/>
      <line class="cls-10" x1="192.79" y1="130.6" x2="124.31" y2="212.02"/>
      <circle class="cls-8" cx="192.79" cy="130.6" r="2.84"/>
    </g>
    <g>
      <line class="cls-9" x1="521.52" y1="233.76" x2="354.22" y2="233.76"/>
      <line class="cls-10" x1="280.45" y1="145.17" x2="348.92" y2="226.59"/>
      <circle class="cls-8" cx="280.45" cy="145.17" r="2.84"/>
    </g>
    <g>
      <line class="cls-9" x1="492.44" y1="67.88" x2="359.9" y2="67.88"/>
      <circle class="cls-8" cx="283.28" cy="67.88" r="2.84"/>
      <line class="cls-10" x1="283.28" y1="67.88" x2="359.17" y2="67.88"/>
    </g>
    <text class="cls-16" transform="translate(355.88 75.72)"><tspan x="0" y="0">メーター指針</tspan></text>
    <text class="cls-16" transform="translate(13.8 226.93)"><tspan x="0" y="0">パイロット</tspan></text>
    <text class="cls-16" transform="translate(358.18 241.6)"><tspan x="0" y="0">水量の確認時計</tspan></text>
  </g>
</svg>