<?xml version="1.0" encoding="UTF-8"?>
<svg id="_レイヤー_2" data-name="レイヤー 2" xmlns="http://www.w3.org/2000/svg" viewBox="0 0 359.35 223.74">
  <defs>
    <style>
      .cls-1, .cls-2, .cls-3, .cls-4, .cls-5, .cls-6, .cls-7, .cls-8 {
        stroke-miterlimit: 10;
      }

      .cls-1, .cls-2, .cls-3, .cls-5, .cls-6, .cls-7, .cls-8 {
        stroke: #49625d;
      }

      .cls-1, .cls-2, .cls-4 {
        fill: none;
      }

      .cls-1, .cls-2, .cls-6 {
        stroke-width: 1.42px;
      }

      .cls-1, .cls-3, .cls-5 {
        stroke-linecap: round;
      }

      .cls-3 {
        stroke-width: 2.44px;
      }

      .cls-3, .cls-6 {
        fill: #49625d;
      }

      .cls-4 {
        stroke: #f8fbed;
        stroke-width: 1.21px;
      }

      .cls-5, .cls-7 {
        fill: #b0d47a;
      }

      .cls-5, .cls-7, .cls-8 {
        stroke-width: 1.42px;
      }

      .cls-8 {
        fill: #f8fbed;
      }
    </style>
  </defs>
  <g id="_レイヤー_2-2" data-name="レイヤー 2">
    <circle class="cls-3" cx="32.32" cy="169.1" r="31.1"/>
    <circle class="cls-3" cx="327.03" cy="169.1" r="31.1"/>
    <rect class="cls-7" x="281.94" y="98.8" width="23.41" height="79.83" transform="translate(-12.08 248.27) rotate(-45)"/>
    <rect class="cls-7" x="57.45" y="98.8" width="23.41" height="79.83" transform="translate(19.97 285.7) rotate(-135)"/>
    <path class="cls-8" d="m151.82,33.37v24.16h61.88V21.52c0-5.17-2.05-10.12-5.71-13.78l-1.33-1.33c-3.93-3.93-9.34-6-14.89-5.68-14.52.84-42.98,3.08-53.53,8.05-14.41,6.78-44.08,25.86-44.08,25.86,0,0-1.27,2.97,0,5.93s3.81,6.36,3.81,6.36c0,0,2.12.85,5.93,0s47.9-13.56,47.9-13.56Z"/>
    <path class="cls-7" d="m155.84,58.04v16.16H58.88s-11.84,1.82-11.84,11.84v31.09s-.47,8.73,8.73,8.73h247.62s9.1.82,9.1-9.1v-35.18s1.32-7.53-7.53-7.53h-94.66v-16h-54.46Z"/>
    <path class="cls-7" d="m180.81,122.09l-94.95,69.53s-4.77,3.9-4.98,9.53,0,16.9,0,16.9c0,0,4.33,4.98,11.91,4.98s16.25-3.47,16.25-3.47l.22-4.33s0-4.55,4.33-6.28l88.64-69.23-21.42-17.63Z"/>
    <path class="cls-5" d="m109.66,198.76s-11.45,2.06-17.18.8-6.62-7.93-6.62-7.93"/>
    <line class="cls-5" x1="119.58" y1="194.78" x2="151.8" y2="169.43"/>
    <line class="cls-1" x1="157.39" y1="165.03" x2="168.12" y2="156.59"/>
    <path class="cls-8" d="m226.5,157.46l-16.56-16.56c3.38-5.03,5.35-11.09,5.35-17.61,0-17.48-14.17-31.64-31.64-31.64s-31.64,14.17-31.64,31.64,14.17,31.64,31.64,31.64c5.55,0,10.77-1.44,15.31-3.95l17.01,17.01c1.47,1.47,3.84,1.47,5.31,0l5.23-5.23c1.47-1.47,1.47-3.84,0-5.31Z"/>
    <circle class="cls-7" cx="38.38" cy="169.49" r="18.1"/>
    <circle class="cls-7" cx="321.57" cy="169.49" r="18.1"/>
    <line class="cls-2" x1="31.03" y1="162.14" x2="45.74" y2="176.84"/>
    <line class="cls-2" x1="314.22" y1="162.14" x2="328.93" y2="176.84"/>
    <circle class="cls-6" cx="183.51" cy="124.12" r="6.26"/>
    <g>
      <line class="cls-4" x1="180.34" y1="120.95" x2="186.68" y2="127.28"/>
      <line class="cls-4" x1="186.68" y1="120.95" x2="180.34" y2="127.28"/>
    </g>
  </g>
</svg>