<?xml version="1.0" encoding="UTF-8"?>
<svg id="_レイヤー_1" data-name="レイヤー 1" xmlns="http://www.w3.org/2000/svg" xmlns:xlink="http://www.w3.org/1999/xlink" viewBox="0 0 780.56 705.33">
  <defs>
    <style>
      .cls-1 {
        clip-path: url(#clippath);
      }

      .cls-2, .cls-3 {
        fill: none;
      }

      .cls-2, .cls-4, .cls-5, .cls-6 {
        stroke-width: 0px;
      }

      .cls-7 {
        clip-path: url(#clippath-1);
      }

      .cls-8 {
        clip-path: url(#clippath-2);
      }

      .cls-3 {
        stroke: #2f9248;
        stroke-miterlimit: 10;
      }

      .cls-9 {
        opacity: .5;
      }

      .cls-4 {
        fill: #2f9248;
      }

      .cls-5 {
        fill: #fff;
      }

      .cls-6 {
        fill: #040000;
      }
    </style>
    <clipPath id="clippath">
      <rect class="cls-2" x=".25" y="203.28" width="298.26" height="13.47"/>
    </clipPath>
    <clipPath id="clippath-1">
      <rect class="cls-2" x="81.07" y="158.06" width="217.44" height="13.47"/>
    </clipPath>
    <clipPath id="clippath-2">
      <rect class="cls-2" x="81.07" y="252.35" width="217.44" height="13.47"/>
    </clipPath>
  </defs>
  <g id="_グループ_300" data-name="グループ 300">
    <path id="_パス_1304" data-name="パス 1304" class="cls-5" d="m780.06,295.31c0,162.82-131.99,294.81-294.81,294.81S190.44,458.13,190.44,295.31,322.43.5,485.25.5s294.81,131.99,294.81,294.81"/>
    <circle id="_楕円形_8" data-name="楕円形 8" class="cls-3" cx="485.25" cy="295.31" r="294.81"/>
    <g id="_グループ_283" data-name="グループ 283" class="cls-9">
      <g id="_グループ_282" data-name="グループ 282">
        <g class="cls-1">
          <g id="_グループ_281" data-name="グループ 281">
            <rect id="_長方形_186" data-name="長方形 186" class="cls-4" x=".25" y="203.28" width="298.26" height="13.47"/>
          </g>
        </g>
      </g>
    </g>
    <g id="_グループ_286" data-name="グループ 286" class="cls-9">
      <g id="_グループ_285" data-name="グループ 285">
        <g class="cls-7">
          <g id="_グループ_284" data-name="グループ 284">
            <rect id="_長方形_188" data-name="長方形 188" class="cls-4" x="81.07" y="158.06" width="217.44" height="13.47"/>
          </g>
        </g>
      </g>
    </g>
    <g id="_グループ_289" data-name="グループ 289" class="cls-9">
      <g id="_グループ_288" data-name="グループ 288">
        <g class="cls-8">
          <g id="_グループ_287" data-name="グループ 287">
            <rect id="_長方形_190" data-name="長方形 190" class="cls-4" x="81.07" y="252.35" width="217.44" height="13.47"/>
          </g>
        </g>
      </g>
    </g>
    <path id="_パス_1305" data-name="パス 1305" class="cls-6" d="m91.35,164.77c.04.74-.03,1.49-.21,2.21-.35,1-1.34,1.62-2.4,1.51-1.8-.05-3.53-.7-4.92-1.85-.89-.72-1.42-1.8-1.43-2.94.18-1.54.99-2.94,2.24-3.85,1.14-.93,2.42-1.68,3.8-2.21l-.03-4.01q-.21,0-1.07.05c-.39.03-.75.03-1.41.03-.39,0-1.12-.03-1.43-.03-.34-.03-.57-.03-.65-.03-.18,0-.37,0-.55.03l-.03-2.91c1.04.18,2.09.26,3.15.23.26,0,.55,0,.91-.03.62-.03.75-.03,1.04-.03v-1.72c.03-1-.02-2-.16-2.99h3.25c-.14.94-.19,1.89-.16,2.84v1.66c1.7-.18,3.38-.51,5.02-.99l.1,2.91c-.47.08-.96.16-2.76.47-.86.16-1.38.23-2.37.34v3.38c1.72-.51,3.51-.75,5.31-.73,4.35,0,7.44,2.65,7.44,6.35.08,3.19-2.43,5.85-5.63,5.93-.09,0-.19,0-.28,0-1.92.13-3.67-1.06-4.27-2.89-.36-1.07-.51-2.2-.44-3.33,1.01-.24,1.99-.63,2.89-1.15-.04.38-.06.76-.05,1.15-.06.78.07,1.57.36,2.29.34.58.97.92,1.64.88,1.48-.02,2.66-1.23,2.64-2.71,0-.06,0-.12,0-.18,0-2.24-1.82-3.7-4.61-3.7-1.7.03-3.39.32-5,.86l.04,5.13Zm-2.94-4.19c-1.95,1.04-3.1,2.19-3.1,3.12,0,.44.26.83.86,1.2.49.35,1.07.54,1.66.57.44,0,.57-.23.57-1.09v-3.8Zm14.42-5.26c-1.4-2.16-3.16-4.06-5.21-5.62l2.45-1.64c2.01,1.48,3.75,3.28,5.15,5.34l-2.4,1.93Z"/>
    <path id="_パス_1306" data-name="パス 1306" class="cls-6" d="m112.89,163.63c0-.52,0-.78-.03-1.27-1.02.26-1.51.39-2.94.7-.25-.91-.67-1.76-1.22-2.52,1.97-.3,3.92-.74,5.83-1.33,1.32-.43,2.62-.95,3.88-1.54-.9-.62-1.75-1.31-2.53-2.08-1.38,1.12-2.91,2.06-4.53,2.79-.41-.76-.95-1.45-1.59-2.03,2.46-1.02,4.7-2.49,6.61-4.35.59-.52,1.08-1.14,1.46-1.82h-5.47v3.44h-2.81c.1-.65.14-1.3.13-1.95v-2.11c.01-.64-.02-1.29-.1-1.93.99.1,1.98.15,2.97.13h6.72v-.36c.02-.58-.03-1.15-.13-1.72h3.23c-.12.56-.17,1.12-.16,1.69v.39h6.95c1.02.02,2.03-.03,3.04-.13-.08.64-.11,1.28-.1,1.93v2.16c-.02.65.03,1.31.13,1.95h-2.84v-3.49h-11.2l2.42.68s-.29.34-.81.94h4.89c.7.02,1.41-.02,2.11-.1l1.8,1.43q-.23.24-.7.76c-1.34,1.41-2.81,2.68-4.4,3.8,3.07,1.26,6.32,2.01,9.63,2.21-.55.9-.95,1.89-1.2,2.91-1.25-.23-1.61-.31-2.84-.6-.03.68-.03.76-.03,1.46v3.62c-.02.8.02,1.6.13,2.4h-2.9v-.96h-10.7v.94h-2.86c.08-.83.13-1.59.13-2.4v-3.61Zm13.64-2.13c-1.93-.55-3.78-1.31-5.54-2.26-1.71.94-3.52,1.7-5.39,2.26h10.93Zm-10.91,4.84h10.7v-2.47h-10.7v2.47Zm2.08-12.26c1,.86,2.07,1.62,3.2,2.29,1.15-.7,2.24-1.5,3.25-2.39h-6.34l-.11.1Z"/>
    <path id="_パス_1307" data-name="パス 1307" class="cls-6" d="m138.43,151.11c.84.1,1.68.15,2.53.13,1.95,0,5.41-.24,7.03-.44-.44-1.15-1.56-3.9-1.69-4.11l3.36-.44c.34,1.43.82,2.83,1.43,4.16,2.16-.33,4.3-.85,6.38-1.53l.36,3.1c-.68.1-.96.18-1.85.36-.39.1-1.67.37-3.83.78.94,1.74,1.54,2.84,1.8,3.31.7,1.2,1.85,2.89,2.76,4.11l-3.02,1.38c-.5-.51-1.12-.89-1.8-1.12-1.33-.42-2.72-.62-4.11-.6-3.54,0-5.62,1.07-5.62,2.91,0,1.69,1.92,2.63,5.47,2.63,2.71.01,5.39-.58,7.84-1.74l.42,3.33c-2.66.9-5.44,1.37-8.25,1.41-3.33,0-5.91-.7-7.24-1.98-.97-.91-1.53-2.18-1.54-3.51.02-1.51.7-2.93,1.87-3.88,1.51-1.27,3.67-1.87,6.64-1.87,1.54-.03,3.06.24,4.5.78-1.09-1.49-2.03-3.07-2.81-4.74-3.07.36-6.15.57-9.24.62-.38,0-.77.03-1.15.08l-.24-3.13Z"/>
    <path id="_パス_1308" data-name="パス 1308" class="cls-6" d="m184.18,167.9c-1.39-1.46-3.02-2.66-4.82-3.57-.45-.25-.92-.46-1.41-.65v.29c.13,1.34-.42,2.66-1.46,3.51-1.27.83-2.78,1.23-4.29,1.12-3.8,0-5.99-1.48-5.99-4.06,0-2.84,2.58-4.5,6.95-4.5.58,0,1.16.03,1.74.1,0-.21,0-.42-.03-.62v-.57q-.03-.37-.05-1.41c-1.25.03-2.06.05-2.6.05-1.59,0-2.55-.02-4.71-.18-.34-.02-.6-.02-.99-.02l.05-2.81c2,.33,4.03.48,6.07.44.52,0,1.41-.03,2.13-.05,0-.23,0-1.12-.03-2.6-.83.03-1.25.03-1.64.03-1.28,0-4.63-.13-6.38-.26-.29-.03-.49-.03-.57-.03h-.42l.03-2.89c2.31.42,4.65.61,7,.55.42,0,1.3-.03,1.95-.05.05-1.09,0-2.19-.13-3.28h3.31c-.17,1.05-.23,2.11-.18,3.18,2.53-.06,5.04-.39,7.5-.99l.13,2.89c-.69.03-1.38.11-2.06.23-2.29.31-3.31.39-5.6.52.03.65.03.96.05,2.58q1.3-.08,3.7-.34c1.09-.1,2.17-.29,3.23-.57l.08,2.86c-.44.03-1.09.1-1.69.18-.39.05-1.56.18-3.51.37-.36.03-.75.05-1.77.1q.08,2.52.1,3.15c2.57.8,4.99,2.04,7.13,3.67.44.29.57.39.94.6l-1.77,3.04Zm-11.38-5.28c-2.11,0-3.38.68-3.38,1.8,0,.96,1.12,1.56,2.97,1.56.84.09,1.68-.21,2.27-.83.25-.52.36-1.09.31-1.66v-.62c-.71-.16-1.43-.24-2.16-.23"/>
    <path id="_パス_1309" data-name="パス 1309" class="cls-6" d="m202.21,161.55c-1.48,3.36-3.15,4.89-5.28,4.89-2.97,0-5.1-3.02-5.1-7.21-.03-2.79,1-5.5,2.86-7.57,2.32-2.45,5.58-3.78,8.96-3.64,6.25,0,10.31,3.8,10.31,9.66.16,4.25-2.37,8.14-6.33,9.71-1.31.53-2.68.9-4.09,1.09-.31-1.11-.85-2.15-1.59-3.04,1.8-.13,3.56-.62,5.18-1.43,2.31-1.34,3.7-3.84,3.62-6.51.08-2.37-1.15-4.59-3.2-5.78-.8-.47-1.7-.74-2.63-.78-.38,3.65-1.29,7.23-2.71,10.62m-3.83-9.32c-2.23,1.65-3.54,4.26-3.54,7.03,0,2.13.91,3.83,2.06,3.83.86,0,1.74-1.09,2.68-3.33,1.11-2.83,1.83-5.78,2.16-8.8-1.22.11-2.38.55-3.36,1.27"/>
    <path id="_パス_1310" data-name="パス 1310" class="cls-6" d="m223.73,153.45c-.91,1.98-2.11,3.82-3.54,5.47-.56-.87-1.29-1.62-2.14-2.21,2.04-2.15,3.55-4.76,4.4-7.6.26-.79.45-1.6.57-2.42l2.97.73c-.06.23-.14.46-.23.68-.11.28-.19.57-.26.86-.13.39-.36,1.04-.7,1.95h4.24v-1.98c.02-1.04-.04-2.09-.18-3.12h3.33c-.12,1.03-.17,2.06-.16,3.1v2.01h5.41c1.33,0,2.45-.05,3.52-.16v2.86c-1.12-.1-2.19-.16-3.44-.16h-5.49v4.79h4.5c1.07.01,2.14-.04,3.2-.16v2.86c-1.06-.11-2.13-.16-3.2-.16h-4.5v5.52h6.25c1.21.02,2.42-.04,3.62-.18v2.97c-1.18-.13-2.36-.19-3.54-.18h-15.93c-1.24,0-2.47.05-3.7.18v-2.97c1.2.13,2.41.19,3.62.18h6.69v-5.52h-4.01c-1.05,0-2.1.04-3.15.16v-2.87c1.04.12,2.08.17,3.12.16h4.03v-4.79h-5.31Z"/>
    <path id="_パス_1311" data-name="パス 1311" class="cls-6" d="m246.97,152.46c1.71.86,3.33,1.88,4.84,3.04l-1.56,2.37c-1.5-1.27-3.13-2.38-4.87-3.31l1.59-2.11Zm4.89,8.82c-1.05,2.79-2.34,5.48-3.85,8.04l-2.53-2c.36-.34.67-.72.94-1.15,1.33-2.03,2.4-4.23,3.17-6.53l2.27,1.64Zm-3.88-15.41c1.63,1,3.17,2.14,4.61,3.41l-1.69,2.24c-1.44-1.37-3.01-2.59-4.69-3.64l1.77-2Zm11.14,4.24c-2.6.29-3.12.34-5.36.47-.18-.91-.51-1.78-.99-2.58,5.65-.1,11.58-1.09,14-2.29l1.9,2.6q-.44.13-1.28.34c-1.28.34-3.59.81-5.44,1.09v3.44h4.53c.97.01,1.95-.04,2.91-.16v2.97c-.96-.12-1.92-.17-2.89-.16h-4.55v3.36h3.96c.69.02,1.37-.02,2.06-.1-.08.78-.11,1.56-.1,2.34v5.6c0,.89.04,1.79.13,2.68h-2.94v-1.3h-8.72v1.3h-2.86c.05-.7.1-1.69.1-2.71v-5.68c0-.75-.02-1.5-.1-2.24.68.08,1.37.11,2.06.1h3.59v-3.36h-4.04c-.96,0-1.91.05-2.86.16v-2.97c.95.12,1.91.17,2.86.16h4.03v-3.07Zm-2.78,15.65h8.72v-4.01h-8.72v4.01Z"/>
    <path id="_パス_1312" data-name="パス 1312" class="cls-6" d="m275.57,168.42c-.03-.47-.05-.62-.13-1.22-.45-2.57-.67-5.17-.68-7.78,0-3.42.36-6.83,1.07-10.18.19-.8.32-1.61.39-2.42l3.44.36c-.83,2.53-1.38,5.14-1.64,7.78-.26,1.91-.39,3.83-.39,5.75,0,.57-.03.78-.05,1.43.37-1.17.82-2.32,1.35-3.43l2.08.94c-1.28,2.45-2.06,5.13-2.32,7.89,0,.16,0,.37.03.7l-3.15.19Zm11.09-10.28c-1.3,1.51-1.85,2.63-1.85,3.75,0,1.48,1.43,2.26,4.14,2.26,2.11.03,4.21-.3,6.2-.99l.26,3.3c-.36.03-.71.08-1.07.16-1.78.32-3.58.49-5.39.5-3.23,0-5.31-.73-6.46-2.26-.52-.75-.79-1.64-.78-2.55,0-1.69.78-3.44,2.39-5.36l2.55,1.2Zm-4.29-8.62c1.58.35,3.2.49,4.82.42,2.38.06,4.76-.17,7.08-.7l.16,3.15c-.21.02-.6.08-1.85.23-1.85.22-3.71.32-5.57.31-1.57.02-3.13-.07-4.68-.29l.05-3.13Z"/>
    <path id="_パス_1313" data-name="パス 1313" class="cls-6" d="m9.86,191.91c-.18.57-.32,1.15-.42,1.74-.13.62-.26,1.15-.55,2.29,1.41-.11,2.8-.35,4.16-.73l.08,2.99c-.28.02-.56.06-.83.13-.94.16-2.53.34-4.14.47-.75,2.59-1.71,5.11-2.86,7.55-.6,1.28-.83,1.74-1.82,3.57q-.34.62-.49.94l-2.99-1.67c.98-1.3,1.83-2.69,2.53-4.16.98-1.98,1.8-4.03,2.45-6.14-1.17.03-1.33.03-1.64.03-.34,0-.49,0-1.04-.03l-1.38-.03v-2.97c1.16.19,2.34.27,3.51.23.31,0,.76,0,1.33-.03.39-1.48.65-3,.78-4.53l3.33.34Zm11.79,21.08c-1.14-1.29-2.49-2.38-3.98-3.23.03.23.05.42.05.52-.02,1.03-.42,2.01-1.12,2.76-1.19,1.04-2.75,1.56-4.32,1.46-3.44,0-5.67-1.72-5.67-4.37s2.32-4.48,5.62-4.48c.81,0,1.62.08,2.42.24-.08-1.2-.13-2.21-.13-3-.02-.88.05-1.76.21-2.63l3.02.16c-.24.85-.34,1.74-.31,2.63,0,1.19.08,2.38.23,3.57,1.48.59,2.87,1.4,4.11,2.4.32.22.62.45.91.7.12.13.25.25.39.37l-1.43,2.92Zm-9.24-4.76c-1.69,0-2.78.7-2.78,1.8s.94,1.69,2.55,1.69c1.77,0,2.63-.73,2.63-2.18,0-.26-.05-.89-.05-.89-.75-.28-1.54-.42-2.34-.42m9.37-7.21c-2.33-1.54-4.85-2.76-7.5-3.64l1.56-2.52c2.56.92,5.01,2.09,7.34,3.49l-1.4,2.68Z"/>
    <path id="_パス_1314" data-name="パス 1314" class="cls-6" d="m29.64,213.96c-.03-.47-.05-.62-.13-1.22-.45-2.57-.67-5.17-.68-7.78,0-3.42.36-6.83,1.07-10.18.19-.8.32-1.61.39-2.42l3.44.36c-.83,2.53-1.38,5.14-1.64,7.78-.26,1.91-.39,3.83-.39,5.75,0,.57-.03.78-.05,1.43.37-1.17.82-2.32,1.35-3.43l2.08.94c-1.27,2.45-2.06,5.13-2.31,7.89,0,.16,0,.37.03.7l-3.15.19Zm11.09-10.28c-1.3,1.51-1.85,2.63-1.85,3.75,0,1.48,1.43,2.26,4.14,2.26,2.11.03,4.21-.3,6.2-.99l.26,3.3c-.36.03-.71.08-1.07.16-1.78.32-3.58.49-5.39.5-3.23,0-5.31-.73-6.46-2.26-.52-.75-.79-1.64-.78-2.55,0-1.69.78-3.44,2.39-5.36l2.55,1.2Zm-4.29-8.62c1.58.35,3.2.49,4.82.42,2.38.06,4.76-.17,7.08-.7l.16,3.15c-.21.02-.6.08-1.85.23-1.85.22-3.71.32-5.57.31-1.57.02-3.13-.07-4.68-.29l.05-3.13Z"/>
    <path id="_パス_1315" data-name="パス 1315" class="cls-6" d="m56.24,201.81c1.47.54,3.02.87,4.58.99.1-.94.34-2.68.47-3.64-1.25-.15-2.5-.37-3.72-.65-.36-.08-.49-.1-.88-.18l.26-2.86c1.53.5,3.11.82,4.71.94.28-1.43.45-2.87.52-4.32,0-.09,0-.18-.03-.26l3.46.31c-.43,1.43-.71,2.91-.83,4.4,1.99.05,3.98-.14,5.93-.55l-.1,3.04c-.34.03-.47.05-1.04.1-1.88.16-2.71.21-3.64.21-.26,0-.49,0-1.61-.03-.26,1.9-.34,2.42-.49,3.67.78.03.99.03,1.28.03,1.67.03,3.34-.15,4.97-.52l-.08,2.99c-.26,0-.52.02-.78.08-1.3.15-2.6.22-3.9.24-.42,0-.65,0-1.67-.05-.07.61-.12,1.23-.13,1.85-.11.99.25,1.98.96,2.68.92.71,2.07,1.05,3.23.96,3.31,0,5.21-1.46,5.21-4.01-.11-1.73-.97-3.34-2.34-4.4,1.11-.03,2.2-.25,3.23-.65.46.5.87,1.05,1.22,1.64.69,1.16,1.07,2.48,1.12,3.83-.03,1.92-.96,3.72-2.5,4.87-1.71,1.22-3.78,1.82-5.88,1.72-4.74,0-7.32-2.26-7.32-6.46,0-.74.04-1.48.13-2.21-1.56-.21-2.58-.36-3.62-.6-.32-.09-.65-.14-.99-.16l.28-2.99Z"/>
    <path id="_パス_1316" data-name="パス 1316" class="cls-6" d="m87.1,202.09h-2.42c-.94-.03-1.88.02-2.81.13v-2.79c.94.12,1.89.18,2.84.16h2.08v-2.6h-1.51c-.87-.02-1.74.02-2.6.13v-2.68c.85.11,1.72.15,2.58.13h1.54v-.75c.02-.79-.03-1.59-.16-2.37h3.02c-.11.78-.15,1.58-.13,2.37v.75h1.35c.83.03,1.65-.02,2.47-.13v2.68c-.82-.1-1.65-.15-2.47-.13h-1.35v2.6h1.56c.88.02,1.76-.03,2.63-.16v2.79c-.84-.11-1.68-.15-2.53-.13h-1.41v2.89h1.54c.75.02,1.5-.02,2.24-.13v2.78c-.74-.13-1.49-.18-2.24-.16h-1.54v3.8c1.48.55,3.15.73,6.33.73,3.36.11,6.72-.07,10.05-.52-.42.98-.68,2.01-.78,3.07q-.76.03-2.66.1c-.26,0-4.16.03-5.7.03-2.09.03-4.18-.11-6.25-.42-2.4-.39-4.52-1.81-5.8-3.88-.36,1.62-.93,3.19-1.69,4.66-.62-.78-1.39-1.42-2.27-1.9,1.56-2.82,2.33-6,2.24-9.21,0-.27,0-.54-.03-.81l2.65.47q-.08.49-.23,2.4c-.03.39-.08.83-.16,1.48.42.77.97,1.46,1.61,2.06v-7.44Zm10.28,4.84c-.03.23.01.47.13.68.44.21.92.3,1.41.26,1.03.05,2.06-.04,3.07-.26.78-.29.83-.47.86-3.64.85.42,1.74.74,2.66.96-.08,2.5-.29,3.67-.73,4.4-.34.53-.91.87-1.54.94-1.33.21-2.68.31-4.03.29-2.34,0-3.51-.21-4.06-.68-.39-.36-.52-.91-.52-2.24v-5.49c0-1.28-.03-2.08-.1-2.91.86.09,1.73.12,2.6.1h4.22v-4.06h-4.4c-.87-.02-1.74.03-2.6.13v-2.81c.93.12,1.87.17,2.81.16h4.32c.91.03,1.83-.02,2.73-.13-.09.84-.12,1.68-.1,2.52v4.03c-.04.91,0,1.83.1,2.73-.73-.05-1.33-.08-2.89-.08h-3.93v5.11Z"/>
    <path id="_パス_1317" data-name="パス 1317" class="cls-6" d="m117.63,204.23c-1.64,1.35-2.37,2.45-2.37,3.57,0,1.69,1.9,2.42,6.3,2.42,2.76.04,5.52-.32,8.17-1.09l.29,3.57c-.38.01-.77.05-1.15.1-2.32.38-4.67.57-7.03.57-2.2.1-4.41-.19-6.51-.86-2.24-.86-3.33-2.32-3.33-4.35s1.02-3.7,3.36-5.65l2.26,1.72Zm-3.96-10.7c2.57.52,5.19.73,7.81.65,2.3.08,4.61-.09,6.87-.49l.1,2.91c-2.44,1.24-4.76,2.69-6.95,4.32l-2.26-1.8c1.35-.86,2.63-1.64,3.83-2.32-1.3.16-2.6.23-3.91.21-1.59-.01-3.18-.12-4.76-.31-.32-.05-.64-.07-.96-.08l.24-3.09Z"/>
    <path id="_パス_1318" data-name="パス 1318" class="cls-6" d="m143.86,197.02c-.52,2.11-.91,4.25-1.17,6.4q-.05.37-.13.75l.05.05c1.51-1.46,4.74-2.47,7.89-2.47,4.42,0,7.34,2.19,7.34,5.52-.05,2-1.04,3.87-2.68,5.02-1.69,1.22-3.85,1.77-6.87,1.77-2.24,0-4.48-.3-6.64-.91.04-1.13-.1-2.26-.39-3.36,2.24.83,4.61,1.27,7,1.3,3.67,0,6.22-1.54,6.22-3.75,0-1.74-1.64-2.79-4.4-2.79-2.3,0-4.55.65-6.48,1.9-.44.32-.84.69-1.17,1.12l-3.28-.1c.08-.47.08-.57.21-1.56.21-1.61.62-4.5,1.09-7.57.09-.5.14-1,.16-1.51l3.26.18Zm.34-5.1c3.1,1.38,6.36,2.35,9.71,2.89l-1.07,2.99c-3.5-.7-6.9-1.79-10.15-3.25l1.51-2.63Z"/>
    <path id="_パス_1319" data-name="パス 1319" class="cls-6" d="m173.82,191.91c-.18.57-.32,1.15-.42,1.74-.13.62-.26,1.15-.55,2.29,1.41-.11,2.8-.35,4.16-.73l.08,2.99c-.28.02-.56.06-.83.13-.94.16-2.53.34-4.14.47-.75,2.59-1.71,5.11-2.86,7.55-.6,1.28-.83,1.74-1.82,3.57q-.34.62-.49.94l-2.99-1.67c.98-1.3,1.83-2.69,2.53-4.16.98-1.98,1.8-4.03,2.45-6.14-1.17.03-1.33.03-1.64.03-.34,0-.49,0-1.04-.03l-1.38-.03v-2.97c1.16.19,2.34.27,3.51.23.31,0,.76,0,1.33-.03.39-1.48.65-3,.78-4.53l3.33.34Zm11.79,21.08c-1.14-1.29-2.49-2.38-3.98-3.23.03.23.05.42.05.52-.02,1.03-.42,2.01-1.12,2.76-1.19,1.04-2.74,1.56-4.32,1.46-3.44,0-5.67-1.72-5.67-4.37s2.32-4.48,5.62-4.48c.81,0,1.62.08,2.42.24-.08-1.2-.13-2.21-.13-3-.01-.88.06-1.76.21-2.63l3.02.16c-.24.85-.34,1.74-.31,2.63,0,1.19.08,2.38.23,3.57,1.48.59,2.87,1.4,4.11,2.4.32.22.62.45.91.7.12.13.25.25.39.37l-1.43,2.92Zm-9.24-4.76c-1.69,0-2.78.7-2.78,1.8s.94,1.69,2.55,1.69c1.77,0,2.63-.73,2.63-2.18,0-.26-.05-.89-.05-.89-.75-.28-1.54-.42-2.34-.42m9.37-7.21c-2.33-1.54-4.85-2.76-7.5-3.64l1.56-2.52c2.56.92,5.01,2.09,7.34,3.49l-1.4,2.68Z"/>
    <path id="_パス_1320" data-name="パス 1320" class="cls-6" d="m196.23,194.02c-.16,1.31-.23,2.63-.21,3.96,0,2.33.16,4.67.49,6.98.44,2.71,1.28,4.37,2.11,4.37.39,0,.75-.39,1.07-1.12.66-1.5,1.12-3.09,1.38-4.71.75.91,1.63,1.7,2.6,2.37-1.35,5.07-2.86,7.18-5.08,7.18-1.74,0-3.15-1.28-4.19-3.77-1.07-2.6-1.53-6.38-1.64-13.59,0-.56-.03-1.11-.1-1.67h3.56Zm12.31,1.17c3.3,3.98,5.34,8.85,5.86,14l-3.23,1.22c-.18-2.58-.74-5.11-1.66-7.52-.88-2.32-2.13-4.48-3.7-6.4l2.74-1.3Z"/>
    <path id="_パス_1321" data-name="パス 1321" class="cls-6" d="m226.93,204.23c-1.64,1.35-2.37,2.45-2.37,3.57,0,1.69,1.9,2.42,6.3,2.42,2.76.04,5.52-.32,8.17-1.09l.29,3.57c-.38.01-.77.05-1.15.1-2.32.38-4.67.57-7.03.57-2.2.1-4.41-.19-6.51-.86-2.24-.86-3.33-2.32-3.33-4.35s1.02-3.7,3.36-5.65l2.26,1.72Zm-3.96-10.7c2.57.52,5.19.73,7.81.65,2.3.08,4.6-.09,6.87-.49l.1,2.91c-2.44,1.24-4.76,2.69-6.95,4.32l-2.26-1.8c1.35-.86,2.63-1.64,3.83-2.32-1.3.16-2.6.23-3.91.21-1.59-.01-3.18-.12-4.76-.31-.32-.05-.64-.07-.96-.08l.24-3.09Z"/>
    <path id="_パス_1322" data-name="パス 1322" class="cls-6" d="m255.66,191.76c.31,2.76.89,5.49,1.72,8.15q1.69-.62,6.74-2.29c.34-.11.67-.24.99-.39l1.12,3.28c-2.92.63-5.79,1.47-8.59,2.5-3.8,1.4-5.7,3.07-5.7,4.94s1.77,2.71,5.96,2.71c2.84.07,5.67-.29,8.41-1.07l.29,3.57c-.71.02-1.41.08-2.11.18-2.02.24-4.05.37-6.09.39-3.62,0-5.88-.44-7.55-1.43-1.47-.94-2.34-2.6-2.27-4.35.04-1.82.89-3.53,2.32-4.66,1.08-.9,2.27-1.65,3.54-2.24-.71-2.32-1.29-4.67-1.74-7.05-.09-.57-.23-1.14-.42-1.69l3.38-.55Z"/>
    <path id="_パス_1323" data-name="パス 1323" class="cls-6" d="m282.7,193.45c-.13.75-.31,1.82-.57,3.23q-.08.44-.16.78c.78-.03,1.15-.05,1.61-.05,1.42-.1,2.82.4,3.85,1.38.89.99,1.22,2.24,1.22,4.61,0,4.48-.75,8.04-2,9.48-.71.85-1.79,1.29-2.89,1.17-1.37-.03-2.73-.29-4.01-.78.03-.49.05-.88.05-1.15,0-.74-.09-1.49-.26-2.21,1.19.57,2.48.93,3.8,1.04.76,0,1.17-.49,1.56-1.77.48-1.94.71-3.93.68-5.93,0-2.4-.6-3.1-2.6-3.1-.55,0-.96.03-1.56.08-1.12,4.94-2.91,9.7-5.31,14.16l-3.02-1.67c2.45-3.75,4.22-7.9,5.23-12.26q-.39.05-1.22.21l-2.37.39c-.36.07-.72.16-1.07.26l-.31-3.07c1.86-.09,3.71-.27,5.54-.55.35-1.73.58-3.49.68-5.26v-.47l3.39.34c-.09.26-.16.53-.21.81l-.06.34Zm7.91-1.07c1.09,1.14,2.01,2.43,2.74,3.82l-1.82.96c-.73-1.41-1.65-2.71-2.73-3.88l1.82-.91Zm2.42,5.15c1.81,2.49,3.14,5.3,3.9,8.28l-2.97,1.48c-.64-3.02-1.85-5.89-3.57-8.46l2.63-1.3Zm1.61-2c-.73-1.36-1.62-2.63-2.66-3.77l1.74-.91c1.08,1.08,2,2.32,2.71,3.67l-1.79,1.01Z"/>
    <path id="_パス_1324" data-name="パス 1324" class="cls-6" d="m86.27,241.23c-1.25.24-1.82.34-3.54.6-.17-.88-.5-1.73-.96-2.5,2.81-.24,5.59-.84,8.25-1.77.53-.17,1.03-.41,1.48-.73l1.69,2.4-1.12.39c-1.46.52-1.98.68-3.02.96v3.33h1.67c.77.03,1.53-.02,2.29-.16v2.84c-.77-.1-1.54-.15-2.32-.13h-1.38c1.02,1.44,2.23,2.75,3.59,3.88-.53.83-.95,1.72-1.25,2.65-1.07-1.08-1.99-2.3-2.73-3.62.03.31.03.55.05.7.08.82.1,1.65.08,2.47v5c-.04,1.1.01,2.21.16,3.3h-3.15c.14-1.09.2-2.2.18-3.3v-4.19c0-.36.05-1.48.21-3.36-.91,2.41-2.25,4.63-3.96,6.56-.33-.97-.81-1.89-1.43-2.71.92-.93,1.74-1.96,2.45-3.07.84-1.25,1.56-2.59,2.13-3.98.05-.12.1-.23.16-.34h-1.72c-.77-.01-1.53.03-2.29.13v-2.84c.8.13,1.61.18,2.42.16h2.05v-2.68Zm13.77-3.25c-.46,1.52-.83,3.07-1.09,4.63-1.04,4.72-2.34,9.37-3.88,13.95,2.14-.21,5.26-.68,6.9-1.01-.84-2.6-1.91-5.13-3.18-7.55l2.5-.91c2.16,3.87,3.82,8,4.95,12.29l-2.92.96c-.26-1.12-.34-1.48-.57-2.29-3.33.68-5.99,1.09-10.59,1.69-.62.08-1.02.13-1.38.21l-.55-3.07c.17.02.35.03.52.02q.29,0,1.3-.05c1.43-4.19,2.6-8.45,3.51-12.78.58-2.18.95-4.41,1.12-6.66l3.36.57Z"/>
    <path id="_パス_1325" data-name="パス 1325" class="cls-6" d="m110.37,241.41c1.15.18,2.32.25,3.49.23.31,0,.6,0,1.2-.02.25-1.32.41-2.65.49-3.98,0-.16,0-.31-.03-.47l3.44.31c-.24.82-.4,1.65-.49,2.5-.13.73-.16.88-.26,1.49,1.51-.1,3-.37,4.45-.78l.13,2.99q-.21.03-.83.13c-1.41.27-2.84.45-4.27.55-.29,1.61-.94,4.37-1.61,6.74-.82,2.92-1.8,5.8-2.91,8.61l-3.28-1.27c2.17-4.44,3.74-9.15,4.66-14-.11.02-.23.03-.34.02h-1.51c-.13,0-.39,0-.83-.02-.47-.03-.83-.03-1.04-.03-.17,0-.33,0-.49.03l.05-3.02Zm12.91,10.1c-1.04,1.3-1.35,1.95-1.35,2.86,0,1.33,1.3,2,3.9,2,2.01-.02,4-.35,5.91-.96l.23,3.2c-.47.05-.68.08-1.28.18-1.6.27-3.22.41-4.84.42-1.8.11-3.61-.25-5.23-1.04-1.13-.67-1.83-1.88-1.85-3.2,0-1.38.49-2.55,1.93-4.5l2.58,1.04Zm7.73-3.41c-1.09-.13-2.18-.19-3.28-.18-2.31-.03-4.62.22-6.87.75l-.23-2.86c2.54-.58,5.15-.86,7.76-.83.7,0,.94,0,2.58.03l.05,3.1Z"/>
    <path id="_パス_1326" data-name="パス 1326" class="cls-6" d="m137.93,241.02c1.85.37,3.74.52,5.62.44.38-1.4.63-2.84.73-4.29l3.49.29c-.17.5-.31,1-.42,1.51q-.47,1.95-.62,2.45c1.98-.05,4.92-.26,6.64-.47,1.13-.09,2.24-.29,3.33-.6l.16,3.15c-.6.03-.83.05-1.51.13-3.77.42-6.07.6-9.32.68-.54,1.81-1.23,3.58-2.06,5.28v.05c1.98-1.18,4.26-1.76,6.56-1.69,4.58,0,7.31,1.98,7.31,5.28,0,3.85-3.72,6.35-9.42,6.35-2.24.01-4.48-.3-6.64-.91.04-1.11-.05-2.22-.26-3.31,2.15.8,4.42,1.23,6.72,1.25,3.77,0,6.22-1.33,6.22-3.41,0-1.61-1.56-2.5-4.37-2.5-1.94,0-3.85.44-5.6,1.28-.76.32-1.42.84-1.9,1.51l-3.15-1.09c.47-.75.88-1.53,1.22-2.34.83-1.89,1.56-3.82,2.19-5.78-1.38-.03-2.55-.08-3.93-.18-.36-.03-.62-.03-.83-.03h-.21l.05-3.04Z"/>
    <path id="_パス_1327" data-name="パス 1327" class="cls-6" d="m174.89,252.63c-1.48,3.36-3.15,4.89-5.28,4.89-2.97,0-5.1-3.02-5.1-7.21-.03-2.79,1-5.5,2.86-7.57,2.32-2.45,5.58-3.78,8.96-3.64,6.25,0,10.31,3.8,10.31,9.66.16,4.25-2.37,8.14-6.33,9.71-1.31.53-2.68.9-4.09,1.09-.31-1.12-.85-2.15-1.59-3.05,1.8-.13,3.56-.62,5.18-1.43,2.31-1.34,3.69-3.84,3.62-6.5.08-2.37-1.15-4.59-3.2-5.78-.8-.47-1.7-.74-2.63-.78-.38,3.65-1.29,7.23-2.71,10.62m-3.83-9.32c-2.23,1.65-3.54,4.26-3.54,7.03,0,2.13.91,3.83,2.06,3.83.86,0,1.74-1.09,2.68-3.33,1.11-2.83,1.83-5.78,2.16-8.8-1.22.11-2.38.55-3.36,1.27"/>
    <path id="_パス_1328" data-name="パス 1328" class="cls-6" d="m192.92,240.63c-.65-.01-1.31.03-1.95.13v-2.81c.78.12,1.58.17,2.37.16h3.67c.78.03,1.55-.03,2.32-.16v2.79c-.64-.07-1.28-.11-1.93-.1h-.78v5.08h.6c.55.01,1.1-.03,1.64-.13v2.65c-.54-.07-1.09-.11-1.64-.1h-.6v5.12c1.09-.47,1.41-.6,2.55-1.17l.08,2.76c-2.26,1.12-3.28,1.56-7.31,3.2l-.52.21-.7-2.94c1.09-.25,2.16-.58,3.2-.99v-6.2h-.86c-.59-.01-1.19.03-1.77.13v-2.68c.6.1,1.21.14,1.82.13h.81v-5.08h-.99Zm12.58,14.16h-2.89c-.9-.02-1.81,0-2.71.1v-2.65c.89.12,1.78.16,2.68.13h2.92v-2.14h-2.47c-1.74,0-2.34.03-3.12.08q.05-.6.1-3.23v-5.88c.03-1.16-.02-2.33-.13-3.49,1.17.11,2.34.15,3.51.13h7.18c1.12.04,2.24,0,3.36-.13-.08.76-.1,1.98-.1,3.57v5.54c0,1.82.03,2.73.1,3.49-.94-.08-1.89-.1-2.84-.08h-2.99v2.14h3.33c.92.03,1.84-.02,2.76-.13v2.68c-.91-.11-1.82-.15-2.73-.13h-3.36v2.68h4.19c.92.03,1.84-.02,2.76-.13v2.79c-.98-.11-1.96-.15-2.94-.13h-10.96c-.98-.02-1.96.02-2.94.13v-2.79c.87.11,1.75.16,2.63.13h4.66v-2.68Zm-2.89-11.82h2.89v-2.6h-2.89v2.6Zm0,4.82h2.89v-2.63h-2.89v2.63Zm5.49-4.82h3.02v-2.6h-3.02v2.6Zm0,4.82h3.02v-2.63h-3.02v2.63Z"/>
    <path id="_パス_1329" data-name="パス 1329" class="cls-6" d="m226.26,242.46c.88,1.54,2.21,2.78,3.8,3.57-.56.76-1.01,1.61-1.33,2.5-1.21-.93-2.25-2.05-3.07-3.33.08,1.07.13,2.14.13,2.81v1.43c-.02.76.02,1.51.1,2.27h-2.92c.12-.75.17-1.51.16-2.27v-1.38q.03-1.02.05-1.56,0-.29.05-1.17c-.96,1.89-2.25,3.6-3.8,5.05-.42-.87-.95-1.68-1.56-2.42,1.06-.74,1.99-1.65,2.76-2.68.69-.86,1.27-1.8,1.72-2.81h-1.32c-.78-.02-1.56.02-2.34.1v-2.76c.8.09,1.6.12,2.4.1h2.06v-1c.01-.67-.04-1.34-.16-2h2.94c-.12.69-.17,1.39-.13,2.08v.94h1.56c.71.01,1.43-.02,2.14-.1v2.76c-.69-.07-1.39-.11-2.08-.1l-1.15-.02Zm-7.99,15.75c1.4-1.7,2.34-3.74,2.73-5.91l2.47,1.09c-.52,2.33-1.47,4.55-2.81,6.53l-2.4-1.72Zm9.32-1.33c0,.49.1.68.52.78.62.13,1.25.18,1.87.16,2.76,0,3.54-.08,3.9-.44.29-.29.42-1.07.44-2.52.88.41,1.82.66,2.78.75-.39,4.63-.65,4.82-6.9,4.82-1.38.1-2.77-.02-4.11-.36-1.02-.34-1.33-.89-1.33-2.21v-3.04c.01-.83-.04-1.65-.16-2.47h3.1c-.12.82-.16,1.65-.13,2.47v2.08Zm2.63-5.73c.05-.7.08-1.38.08-2.21v-8.88c0-1.02-.05-1.8-.1-2.42.83.08,1.67.11,2.5.1h5.67c.83.01,1.67-.02,2.5-.1-.08.8-.11,1.61-.1,2.42v8.9c-.01.84.02,1.69.1,2.52,0,0-.81-.02-2.4-.08h-5.95c-.62,0-1.07,0-1.72.03,1.07,1.01,2.04,2.1,2.92,3.28l-2.19,1.67c-.89-1.47-1.96-2.82-3.2-4.01l1.88-1.22Zm2.73-9.55h5.13v-1.48h-5.13v1.48Zm0,3.72h5.13v-1.51h-5.13v1.51Zm0,3.75h5.13v-1.54h-5.13v1.54Zm6.82,10.59c-.94-2.25-2.16-4.37-3.65-6.3l2.45-1.2c1.44,1.84,2.71,3.82,3.77,5.91l-2.58,1.59Z"/>
    <path id="_パス_1330" data-name="パス 1330" class="cls-6" d="m246.45,240.53c.57.03.86.03.99.03q.47,0,4.29-.26c1.9-.1,6.35-.34,13.3-.68.9.02,1.8-.05,2.68-.21l.18,3.31c-.18-.02-.36-.03-.55-.03-1.8.06-3.57.54-5.15,1.4-3.31,1.72-5.26,4.32-5.26,6.95.02,2.05,1.46,3.82,3.46,4.24,1.26.39,2.56.61,3.88.68.03,0,.26,0,.52-.03l-.47,3.54c-.34-.08-.39-.08-.88-.16-2.13-.15-4.2-.74-6.09-1.72-2.32-1.22-3.76-3.65-3.72-6.27.03-2.28.91-4.46,2.47-6.12,1.02-1.1,2.25-2,3.62-2.63-2.11.31-3.72.47-8.77.83-1.45.08-2.89.25-4.32.52l-.19-3.41Zm17.93,5c1.09,1.14,2,2.43,2.73,3.83l-1.82.96c-.73-1.41-1.65-2.71-2.73-3.88l1.82-.91Zm4.03,3.15c-.73-1.36-1.62-2.63-2.66-3.77l1.74-.91c1.08,1.08,2,2.32,2.71,3.67l-1.79,1.01Z"/>
    <path id="_パス_1331" data-name="パス 1331" class="cls-6" d="m288.61,247.09c0,.1.03.31.03.62.57,1.14.85,2.4.83,3.67,0,2.85-1.47,5.5-3.88,7.03-1.46.93-3.05,1.65-4.71,2.14-.41-1.1-1.04-2.1-1.85-2.94,1.56-.21,3.06-.73,4.42-1.51,1.54-.73,2.66-2.13,3.02-3.8-.86,1.25-2.31,1.95-3.83,1.85-1.08.04-2.15-.29-3.02-.94-1.17-.78-1.85-2.11-1.8-3.51,0-2.76,2.16-4.74,5.18-4.74.96-.05,1.92.23,2.71.78-.02-.1-.03-.21-.03-.31-.03-.05-.03-1.51-.03-2.21-3.72.1-6.17.18-7.31.26q-3.93.29-4.63.39l-.1-3.1c.42.04.85.06,1.28.05.65,0,1.07,0,4.42-.13,1.69-.05,1.95-.05,4.09-.1q.86-.03,2.21-.08c.06-1.05.01-2.11-.16-3.15l3.28-.02c-.12,1.03-.16,2.06-.13,3.1,4.53-.03,6.56-.08,7.52-.18l.03,2.99c-.96-.08-2.21-.13-4.37-.13-.62,0-1.09,0-3.15.05v1.69l-.03,2.24Zm-5.31.26c-1.24-.08-2.32.85-2.42,2.08,0,1.13.91,2.06,2.05,2.06.06,0,.11,0,.17,0,1.31.1,2.45-.88,2.54-2.19,0-.05,0-.1,0-.16,0-1.09-.91-1.8-2.34-1.8"/>
    <path id="_パス_1332" data-name="パス 1332" class="cls-6" d="m594.02,153.24c2.44,0,3.69-.06,4.76-.12-.18,1.38-.26,2.77-.24,4.17v8.09c-.03,1.37.05,2.75.24,4.11-1.61-.06-2.92-.12-4.82-.12h-15.89c-.3.48-.71,1.19-1.07,1.67h21.13c2.39.01,4.77-.11,7.14-.36v6.37c-2.37-.26-4.76-.38-7.14-.36h-6.61c3.04,2.44,8.45,4.35,15.06,5.3-1.39,2.14-2.53,4.44-3.39,6.85-2.54-.76-5.01-1.74-7.38-2.92v6.96c0,1.79.11,3.58.3,5.36h-7.74v-2.2h-20.83v2.2h-7.68c.19-1.78.29-3.57.3-5.36v-7.2c-2.21,1.27-4.52,2.36-6.9,3.27-.84-2.32-2.11-4.46-3.75-6.31,4.91-1.13,9.56-3.15,13.75-5.95h-5.42c-2.4-.02-4.81.1-7.2.36v-6.37c2.39.25,4.8.37,7.2.36h11.19c.42-.53.82-1.09,1.19-1.67h-8.27c-1.91,0-3.21.06-4.76.12.18-1.36.26-2.73.24-4.11v-8.09c.02-1.39-.06-2.78-.24-4.17,1.01.06,2.32.12,4.76.12h2.62v-1.85h-6.9c-2.27-.05-4.54.07-6.79.36v-6.43c2.31.25,4.64.37,6.96.36h6.72v-.12c.01-1.05-.05-2.11-.18-3.15h7.8c-.13,1.03-.19,2.06-.18,3.09v.18h11.55v-.18c.01-1.03-.05-2.07-.18-3.09h7.86c-.19,1.04-.27,2.1-.24,3.15v.12h7.14c2.33.01,4.65-.11,6.96-.36v6.43c-2.23-.29-4.48-.41-6.72-.36h-7.38v1.85h3.01Zm-29.34,6.13h26.6v-1.66h-26.6v1.66Zm0,5.6h26.6v-1.67h-26.6v1.67Zm2.86,20.06h20.83v-1.61h-20.83v1.61Zm0,6.01h20.83v-1.66h-20.83v1.66Zm4.76-14.34c-.36.36-1.01.95-2.02,1.85h14.28q-.36-.36-1.79-1.85h-10.48Zm11.25-25.29h-11.55v1.85h11.55v-1.85Z"/>
    <path id="_パス_1333" data-name="パス 1333" class="cls-6" d="m568.54,218.71c-.65,2.32-2.02,10.06-2.74,15.48,5.12-3.63,10.24-5.18,17.38-5.18,10.59,0,17.38,5.18,17.38,13.21-.03,4.82-2.43,9.32-6.43,12.02-4.22,2.92-9.34,4.23-16.25,4.23-5.1,0-10.18-.64-15.12-1.9.04-3.05-.32-6.09-1.07-9.05,5.04,1.77,10.32,2.73,15.65,2.86,8.33,0,13.93-3.15,13.93-7.86,0-3.63-3.39-5.77-9.11-5.77-4.98-.02-9.87,1.36-14.11,3.99-1.16.71-2.19,1.61-3.04,2.68l-8.63-.3c.12-.77.12-.83.24-1.61.54-4.41,1.55-11.9,2.74-19.76.18-1.43.24-2.2.36-3.57l8.81.53Zm-.06-12.38c4.29,2.32,16.19,5.77,23.09,6.73l-2.86,8.21c-10.35-2.26-17.5-4.46-24.4-7.62l4.17-7.32Z"/>
    <path id="_パス_1334" data-name="パス 1334" class="cls-6" d="m569.38,270.43c-.59,3.51-1.31,19.4-1.31,29.7,0,5.77.3,7.8,1.43,9.46,1.25,1.9,3.93,2.98,7.44,2.98,6.31,0,11.19-3.57,13.87-10.12,1.31-3.32,2.15-6.8,2.5-10.36,2.59,2.25,5.53,4.08,8.69,5.42-2.38,8.51-4.23,12.56-7.32,16.01-4.58,5.06-10.59,7.62-18.21,7.62-4.4,0-8.33-.95-11.01-2.68-2.55-1.73-4.43-4.26-5.36-7.2-.65-2.79-.95-5.65-.89-8.51,0-2.68.06-6.55.24-14.4.18-8.21.24-11.84.24-13.63.02-1.49-.06-2.98-.24-4.46l9.94.17Z"/>
    <path id="_パス_1335" data-name="パス 1335" class="cls-6" d="m566.7,333.47c-2.62,7.08-4.52,20.47-4.7,33.09q.77-2.32,1.07-3.04l1.13-2.86,5.24,2.14c-3.16,6.9-4.88,13.21-4.88,17.91,0,.6,0,.89.06,1.73l-8.63.42c-.06-1.07-.12-1.55-.3-2.92-1-6-1.52-12.07-1.55-18.15.04-7.81.82-15.61,2.32-23.27.43-1.96.75-3.95.95-5.95l9.28.89Zm16.49,25.53c-2.8,3.51-4.17,6.19-4.17,8.39,0,2.98,3.04,4.64,8.51,4.64,4.92.04,9.81-.74,14.46-2.32l.59,8.99c-.95.12-1.31.18-2.62.36-4.13.74-8.31,1.12-12.5,1.13-7.56,0-12.5-1.79-15.18-5.54-1.18-1.8-1.81-3.92-1.79-6.07,0-3.75,1.84-8.04,5.54-12.74l7.14,3.16Zm-10.95-20.59c2.92.77,6.01,1.01,11.43,1.01,5.48.11,10.95-.43,16.31-1.61l.42,8.63c-.42,0-.84.01-1.25.06-5.23.69-10.5,1.04-15.77,1.07-3.2.02-6.4-.14-9.58-.48-.3-.06-.77-.06-1.67-.12l.12-8.57Z"/>
    <path id="_パス_1336" data-name="パス 1336" class="cls-6" d="m487.9,151.39c-.3,4.58-1.01,7.08-2.74,9.88-1.34,2.14-3.13,3.96-5.24,5.36-1.01-1.7-2.23-3.26-3.63-4.64-.95,1.31-2.68,3.63-3.57,4.76q-1.01,1.25-1.43,1.85v22.02c-.02,2.54.1,5.09.36,7.62h-8.27c.32-2.53.46-5.07.42-7.62v-14.46c-1.22,1.38-2.58,2.64-4.05,3.75-.6-2.83-1.62-5.56-3.04-8.09,4.19-2.87,7.84-6.46,10.77-10.6,2.56-3.33,2.92-3.81,3.63-5.24l4.76,3.69c1.45-1.07,2.61-2.48,3.39-4.11.8-1.63,1.2-3.42,1.19-5.24.12-1.43.18-3.1.18-3.69-.02-.82-.08-1.63-.18-2.44,1.6.19,3.21.27,4.82.24h12.08c1.51.04,3.02-.04,4.52-.24-.17,1.42-.23,2.85-.18,4.29v8.15c0,.95.3,1.13,1.84,1.13.69.08,1.39-.09,1.96-.48.48-.6.71-2.32.78-6.67,2.11,1.16,4.37,2,6.72,2.5-.3,5.36-.71,7.62-1.49,8.93-1.13,1.9-3.39,2.56-8.93,2.56-6.96,0-8.39-.83-8.39-4.88v-8.33h-6.31Zm-11.43-4.17c-.53.52-1.03,1.08-1.49,1.67-1.95,2.12-4.04,4.1-6.25,5.95-2.3,1.94-4.77,3.67-7.38,5.18-.99-2.46-2.36-4.75-4.05-6.79,3.9-1.89,7.45-4.45,10.47-7.56,1.01-.99,1.91-2.09,2.68-3.27l6.01,4.82Zm33.03,24.22c-1.25,1.62-2.39,3.33-3.39,5.12-2.22,3.38-4.83,6.48-7.8,9.23,4.59,2.03,9.43,3.42,14.4,4.11-1.45,2.58-2.53,5.34-3.21,8.21-6.34-1.36-12.43-3.71-18.03-6.96-4.95,3.1-10.35,5.43-16.01,6.9-.76-2.67-1.96-5.18-3.57-7.44,4.54-.86,8.92-2.43,12.97-4.64-2.08-2.02-3.27-3.51-6.96-8.39l6.84-3.21h-5.41c-1.65-.03-3.3.05-4.94.24v-7.56c1.63.25,3.29.35,4.94.3h22.38c1.33.05,2.67-.03,3.99-.24l3.81,4.35Zm-24.52,2.92c1.78,2.74,3.99,5.17,6.55,7.2,2.6-2.06,4.88-4.49,6.78-7.2h-13.33Z"/>
    <path id="_パス_1337" data-name="パス 1337" class="cls-6" d="m486.53,250.61c3.57-7.91,7.86-22.14,8.45-27.91l9.11,2.56q-.54,1.43-2.98,9.29c-1.31,4.1-4.11,11.6-6.07,16.07h9.4c2.68.04,5.37-.1,8.04-.42v8.27c-2.67-.32-5.35-.46-8.04-.42h-38.33c-2.74-.04-5.49.1-8.21.42v-8.27c2.73.32,5.47.46,8.21.42h20.42Zm-5.83-40.71c0-1.49-.12-2.99-.36-4.46h8.81c-.25,1.45-.37,2.93-.36,4.4v3.69h13.63c2.68.02,5.37-.12,8.04-.42v8.27c-2.67-.32-5.35-.46-8.04-.42h-34.58c-2.64-.04-5.29.1-7.91.42v-8.27c2.63.3,5.27.44,7.91.42h12.86v-3.63Zm-6.43,12.8c2.44,6.43,4.05,11.96,6.9,23.21l-8.16,2.74c-1.4-7.9-3.6-15.63-6.55-23.09l7.8-2.86Z"/>
    <path id="_パス_1338" data-name="パス 1338" class="cls-6" d="m458.91,280.73c2.49-.23,4.96-.65,7.38-1.25,12.44-2.62,16.84-3.27,22.79-3.27s10.66,1.19,14.11,3.57c4.56,3.15,7.2,8.39,7.02,13.93,0,8.45-4.88,15.53-13.51,19.82-5.65,2.74-11.01,3.99-21.6,5.06-.69-3.25-1.94-6.35-3.69-9.17,7.92-.24,13.21-.95,17.38-2.38,3.91-1.13,7.36-3.48,9.82-6.72,1.35-1.87,2.06-4.12,2.02-6.43.08-2.27-.75-4.48-2.32-6.13-2.02-2.08-4.94-3.03-9.05-3.03-6.19,0-13.93,1.37-23.45,4.23-1.68.51-3.33,1.1-4.94,1.79l-1.97-10Z"/>
    <path id="_パス_1339" data-name="パス 1339" class="cls-6" d="m387.97,160.38c-.5,1.32-.92,2.67-1.25,4.05-1.48,6.09-3.94,11.89-7.26,17.2-2.53,4.08-5.68,7.74-9.34,10.83-1.78-2.4-3.86-4.56-6.19-6.43,3.12-2.28,5.89-5.01,8.21-8.09,3.26-4.13,5.58-8.92,6.78-14.05h-6.61c-2.03-.03-4.06.09-6.07.36v-8.33c2.19.32,4.4.44,6.61.36h6.19c1.71.06,3.43-.04,5.12-.3l3.81,4.41Zm30.06-3.69c-1.25,1.37-1.37,1.49-3.27,3.69-3.18,3.59-6.64,6.91-10.36,9.94,5,6.67,9.82,10.95,16.49,14.46-2.22,2.37-4.1,5.04-5.59,7.92-3.45-2.32-6.61-5.06-9.4-8.15-3.85-4.44-6.99-9.46-9.29-14.88.18,4.94.24,7.74.24,8.39l.06,12.62c0,2.74-.42,4.17-1.61,5.24-1.13,1.01-3.21,1.55-6.31,1.55-2.44,0-5.54-.12-7.98-.3-.13-2.76-.8-5.47-1.96-7.98,2.56.37,5.15.59,7.74.65,1.79,0,2.14-.24,2.14-1.37v-38.86c.04-2.13-.1-4.26-.42-6.37h8.81c-.32,2.13-.45,4.28-.42,6.43v4.29c.68,3.41,1.86,6.7,3.51,9.76,4.23-3.46,7.74-7.7,10.36-12.5l7.26,5.47Z"/>
    <path id="_パス_1340" data-name="パス 1340" class="cls-6" d="m365.35,227.58c1.59.25,3.21.35,4.82.3h5c1.51.02,3.02-.06,4.52-.24-.2,2.2-.28,4.4-.24,6.61v12.62c1.01,1.8,2.67,3.14,4.64,3.75,3.15,1.01,7.38,1.43,15.12,1.43,7.28.05,14.55-.34,21.78-1.19-1.09,2.58-1.79,5.31-2.08,8.1-10.71.3-15.71.36-20.71.36-8.75,0-12.97-.48-16.13-1.73-2.47-.91-4.64-2.5-6.25-4.58-2.02,2.09-4.25,3.97-6.67,5.6-.6.38-1.16.82-1.67,1.31l-3.39-8.09c2.2-.77,4.28-2.08,8.03-5.18v-11.67h-2.92c-1.3-.01-2.59.09-3.87.3v-7.68Zm5.18-21.54c3.95,3.2,7.51,6.85,10.59,10.89l-5.77,5.59c-3.02-4.16-6.54-7.94-10.47-11.25l5.66-5.24Zm19.04,5.48c-.92-1.59-1.94-3.12-3.04-4.58l7.14-1.85c1.44,2.04,2.71,4.19,3.81,6.43h4.76c1.37-2.01,2.51-4.16,3.39-6.43l7.74,1.55c-1.07,1.85-2.14,3.57-3.1,4.88h3.04c1.97.06,3.94-.06,5.89-.36v6.96c-2.02-.18-3.69-.24-5.89-.24h-9.64c-.59,1.31-.77,1.67-1.25,2.56h8.27c1.73.03,3.46-.03,5.18-.18-.2,1.82-.27,3.65-.24,5.48v18.03c-.02,1.87.06,3.74.24,5.6q-.48,0-1.49-.06c-.42,0-2.56-.06-3.1-.06h-21.55c-1.07,0-2.86.06-5.36.12.12-1.31.18-3.63.18-5.65v-18.03c0-1.84-.12-4.05-.24-5.42,1.49.12,2.8.18,5.59.18h4.58c.48-.82.89-1.68,1.25-2.56h-8.33c-2.62,0-4.34.06-5.95.18v-6.9c2.05.28,4.12.4,6.19.36h1.92Zm2.14,31.96h16.55v-2.5h-16.55v2.5Zm.06-14.94h16.55v-2.5h-16.55v2.5Zm0,7.44h16.55v-2.38h-16.55v2.38Z"/>
    <path id="_パス_1341" data-name="パス 1341" class="cls-6" d="m391.48,305.13c-3.33,7.56-7.26,11.07-12.38,11.07-7.38,0-12.62-7.2-12.62-17.44-.11-6.53,2.28-12.85,6.67-17.68,5.12-5.6,12.44-8.57,20.95-8.57,14.94,0,24.46,8.93,24.46,22.85,0,10.83-5.42,19.22-14.94,22.97-3.05,1.17-6.23,1.99-9.46,2.44-.9-3.08-2.39-5.95-4.4-8.45,5.3-.42,8.99-1.37,11.78-2.86,5.23-3,8.38-8.62,8.21-14.64.15-4.96-2.25-9.66-6.37-12.44-1.65-1.1-3.56-1.75-5.54-1.9-1.19,9.82-3.27,17.74-6.37,24.64m-9.46-21.55c-4.63,3.7-7.32,9.31-7.32,15.24,0,4.46,1.91,8.09,4.23,8.09,1.73,0,3.57-2.32,5.47-7.14,2.41-6.16,4.01-12.6,4.76-19.16-2.62.27-5.11,1.3-7.14,2.98"/>
    <path id="_パス_1342" data-name="パス 1342" class="cls-6" d="m375.23,344.59c-1.38,2.77-3.06,5.39-5,7.8-1.72-2.07-3.73-3.9-5.95-5.42,3.54-3.81,6.09-8.43,7.44-13.45.39-1.26.67-2.56.83-3.87l7.8,1.55c-.4,1.01-.74,2.05-1.01,3.1-.3,1.01-.48,1.61-1.07,3.27h8.39c1.97.05,3.94-.05,5.89-.3v7.56c-1.96-.18-3.93-.26-5.89-.24h-1.67q-.12,5.54-.3,8.57h2.86c1.85.05,3.7-.05,5.54-.3v7.67c-1.93-.25-3.88-.35-5.83-.3h-3.33c-.12.6-.12.77-.24,1.37,2.8,4.76,5.42,7.68,10.59,11.61-1.65,2.35-3.01,4.89-4.05,7.56-3.63-3.01-6.68-6.66-8.99-10.77-2.38,5.77-5.24,9.46-11.43,14.4-1.35-2.52-3.27-4.7-5.59-6.37,3.14-1.79,5.84-4.25,7.91-7.2,2.2-3.16,3.65-6.78,4.23-10.59h-4.17c-2.23-.07-4.46.04-6.67.36v-7.8c2.27.32,4.56.44,6.84.36h4.82q.12-2.68.24-8.57h-2.2Zm26.66,39.28h-7.74c.18-2.08.3-4.52.3-6.84v-36.13c.03-2.09-.07-4.17-.3-6.25,1.83.24,3.69.34,5.54.3h12.85c1.85.03,3.7-.07,5.54-.3-.24,2.07-.34,4.16-.3,6.25v35.41c0,2.74.12,5.06.36,7.62h-7.86v-3.99h-8.39v3.93Zm.12-11.01h8.27v-30.89h-8.27v30.89Z"/>
    <path id="_パス_1343" data-name="パス 1343" class="cls-6" d="m381.96,409.23c-1.07-.06-2.5-.12-4.34-.12h-8.27c-1.45-.02-2.9.03-4.34.18v-6.73c1.44.19,2.89.27,4.34.24h7.97c1.55.04,3.1-.04,4.64-.24v6.67Zm-15.83,23.87c0-1.79-.06-3.33-.18-4.82,1.27.11,2.54.15,3.81.12h7.5c1.33.03,2.66,0,3.99-.12-.13,1.56-.17,3.13-.12,4.7v9.34c0,1.96.06,3.04.18,4.88h-5.71v-1.79h-3.75v2.8h-5.95c.19-1.8.27-3.61.24-5.42v-9.7Zm.53-21.6c1.38.18,2.78.24,4.17.18h5.59c1.47.05,2.94,0,4.4-.18v6.25c-1.46-.17-2.93-.23-4.4-.18h-5.59c-1.39-.05-2.79,0-4.17.18v-6.25Zm0,8.33c1.38.18,2.78.24,4.17.18h5.59c1.47.05,2.94,0,4.4-.18v6.25c-1.46-.17-2.93-.23-4.4-.18h-5.59c-1.39-.02-2.78.03-4.17.18v-6.25Zm.06-25.77c1.38.18,2.77.26,4.17.24h5.71c1.41.03,2.83-.05,4.23-.24v6.43c-1.4-.14-2.82-.2-4.23-.18h-5.71c-1.39-.02-2.78.04-4.17.18v-6.43Zm5.12,45.59h3.81v-5.65h-3.81v5.65Zm26.43-41.54c1.33.02,2.66-.04,3.99-.18v6.13c-.95-.06-1.31-.06-2.02-.12-.24,1.79-.65,4.23-1.01,5.89h4.34c-.06-2.98-.12-6.25-.12-10.24.05-2.15-.05-4.29-.3-6.43h7.38c-.27,2.59-.37,5.2-.3,7.8,0,2.32,0,6.37.06,8.87h3.1c2.23.03,4.45-.09,6.67-.36v7.38c-2.26-.18-4.28-.3-6.72-.3h-2.74c.24,4.23.42,6.49.77,8.93,1.18-2.37,2.13-4.84,2.86-7.38l5.71,3.75c-.43.56-.77,1.18-1.01,1.84-1.69,3.56-3.57,7.01-5.65,10.36.95,2.32,2.14,4.52,2.56,4.52s.66-2.08.83-6.73c1.49,1.38,3.15,2.56,4.94,3.51-.17,2.64-.63,5.26-1.37,7.8-.83,2.56-2.32,3.99-4.11,3.99-2.56,0-5.36-2.44-7.56-6.49-2.08,2.61-4.43,4.98-7.02,7.08-1.17-1.86-2.57-3.56-4.17-5.06h-7.38v3.04h-6.49c.18-1.72.26-3.45.24-5.18v-16.49c.05-1.71,0-3.42-.18-5.12,1.2.18,2.42.24,3.63.18h10.77c1.25,0,2.5-.05,3.75-.18-.12,1.7-.16,3.41-.12,5.12v14.64c1.6-1.46,3.06-3.08,4.34-4.82-1.19-4.64-1.84-9.46-2.2-17.32h-15.42c-2.09-.03-4.17.05-6.25.24v-7.15c1.73.12,2.08.12,4.05.18-.2-1.98-.54-3.95-1.01-5.89-.83.06-1.07.06-1.9.18v-6.25c1.18.17,2.38.25,3.57.24h2.56v-.3c.05-1.57-.05-3.15-.3-4.7h7.5c-.27,1.65-.37,3.33-.3,5h2.02Zm-8.21,29.94h5.36v-3.4h-5.36v3.4Zm0,8.93h5.36v-3.52h-5.36v3.52Zm3.69-27.14c.39-1.94.65-3.91.78-5.89h-3.57c.36,2.32.6,3.93.71,5.89h2.08Zm21.78-14.4c1.93,3.02,3.45,6.28,4.52,9.7l-5.54,3.04c-1.01-3.53-2.41-6.95-4.17-10.18l5.18-2.56Z"/>
    <path id="_パス_1344" data-name="パス 1344" class="cls-6" d="m374.37,542.24c-.23.61-.42,1.23-.58,1.85-.72,2.8-1.91,5.46-3.52,7.87-1.14,1.8-2.55,3.4-4.18,4.76-.74-.92-1.63-1.7-2.63-2.33,1.54-1.09,2.89-2.42,4.02-3.93,1.56-2.01,2.68-4.32,3.3-6.79h-3.49c-.93-.01-1.85.04-2.77.17v-3.38c.98.12,1.97.17,2.96.14h2.91c.81.02,1.63-.01,2.44-.11l1.55,1.75Zm13.71-1.77s-.53.58-1.47,1.63c-1.52,1.69-3.18,3.26-4.96,4.68.93,1.32,1.99,2.54,3.16,3.66,1.42,1.39,3.05,2.55,4.82,3.44-.92.89-1.72,1.9-2.38,2.99-1.75-1.16-3.34-2.55-4.74-4.13-1.86-2.15-3.34-4.61-4.38-7.26.11,2.77.14,3.41.14,4.32l.03,6.62c0,1.25-.19,1.8-.72,2.24-.78.52-1.73.75-2.66.64-1.03,0-2.52-.08-3.6-.17-.08-1.1-.34-2.17-.78-3.19,1.19.2,2.39.31,3.6.33.83,0,1-.11,1-.69v-18.31c.02-.97-.05-1.95-.19-2.91h3.52c-.14.97-.21,1.95-.19,2.94v1.94c.33,1.76.95,3.46,1.83,5.02,2.66-2.33,4.35-4.29,5.15-6.01l2.82,2.22Z"/>
    <path id="_パス_1345" data-name="パス 1345" class="cls-6" d="m414.35,559.72v-1.52h-17.26v1.52h-3.21c.13-1.2.18-2.4.17-3.6v-17.54c0-1.11-.05-2.22-.17-3.33,1.08.11,2.16.16,3.24.14h17.18c1.1.02,2.2-.03,3.3-.14-.12,1.1-.18,2.21-.17,3.33v17.56c-.02,1.19.04,2.39.17,3.57h-3.24Zm-17.26-4.27h17.26v-17.29h-17.26v17.29Zm11.55-14.13c.9.02,1.79-.02,2.69-.11-.08.74-.12,1.48-.11,2.22v6.62c0,.74.03,1.48.11,2.22-.89-.09-1.79-.12-2.69-.11h-5.9c-.9-.02-1.79.02-2.69.11.08-.74.12-1.48.11-2.22v-6.62c0-.74-.03-1.48-.11-2.22.89.09,1.79.13,2.69.11h5.9Zm-5.57,8.23h5.21v-5.62h-5.21v5.62Z"/>
    <path id="_パス_1346" data-name="パス 1346" class="cls-6" d="m430.75,534.79c-.51,1.74-.85,3.54-1,5.35-.19,1.16-.3,2.1-.36,2.77h.08c.07-.2.12-.4.17-.61.39-1.19.98-2.31,1.74-3.3,1.2-1.73,3.16-2.78,5.26-2.83,1.89,0,3.66.94,4.74,2.49,1.38,1.86,1.99,4.1,1.99,7.37,0,5.35-2.49,9.34-7.15,11.39-1.74.73-3.56,1.25-5.43,1.55-.35-1.18-.91-2.28-1.64-3.27,2.11-.13,4.17-.66,6.07-1.58,3.21-1.64,4.68-4.27,4.68-8.48,0-3.99-1.33-6.2-3.71-6.2-1.16.05-2.24.58-2.99,1.47-2.24,2.44-3.48,5.63-3.49,8.95v.58l-3.32.05c.02-.12.03-.24.03-.36v-.53c-.03-.8-.08-2.85-.08-3.41,0-2.24.17-5.32.39-7.23l.42-3.44c.05-.31.08-.63.08-.94l3.52.19Z"/>
    <path id="_パス_1347" data-name="パス 1347" class="cls-6" d="m453.97,558.28c-.03-.5-.06-.66-.14-1.3-.48-2.74-.72-5.51-.72-8.28,0-3.64.39-7.27,1.14-10.83.2-.85.34-1.71.42-2.58l3.66.39c-.89,2.69-1.47,5.47-1.74,8.28-.27,2.03-.41,4.07-.42,6.12,0,.61-.03.83-.06,1.52.4-1.25.88-2.47,1.44-3.66l2.22,1c-1.52,3.21-2.47,6.43-2.47,8.4,0,.16,0,.39.03.75l-3.35.19Zm11.8-10.94c-1.39,1.61-1.97,2.8-1.97,3.99,0,1.58,1.52,2.41,4.4,2.41,2.24.03,4.47-.33,6.59-1.05l.28,3.52c-.38.03-.76.09-1.14.17-1.89.34-3.81.51-5.73.53-3.44,0-5.65-.78-6.87-2.41-.55-.8-.84-1.75-.83-2.72,0-1.8.83-3.66,2.55-5.71l2.72,1.28Zm-4.57-9.17c1.68.37,3.4.52,5.12.44,2.53.06,5.06-.19,7.54-.75l.17,3.35c-.22.03-.64.08-1.97.25-1.97.23-3.95.34-5.93.33-1.67.03-3.33-.07-4.99-.3l.06-3.33Z"/>
    <path id="_パス_1348" data-name="パス 1348" class="cls-6" d="m490.92,555.54c-2.49,2.05-5.39,3.54-8.51,4.38-.56-.94-1.23-1.8-1.99-2.58,3.99-.94,5.68-1.66,7.9-3.33l2.6,1.52Zm-5.48-10.22c-.86,0-1.72.04-2.58.14q.03-.31.06-.78c.03-.39.06-1.3.06-1.97v-5.24c.01-.86-.02-1.72-.11-2.58.94.09,1.88.13,2.82.11h14.71c.94.02,1.89-.02,2.83-.11-.09.86-.13,1.72-.11,2.58v5.24c-.01.92.02,1.83.11,2.74-.86-.1-1.73-.14-2.6-.14h-2.08v1.69h2.82c.93.01,1.85-.05,2.77-.17v2.69c-.89-.08-1.72-.14-2.77-.14h-2.82v2.02h3.93c1.05.03,2.11-.02,3.16-.14v2.72c-1.04-.13-2.08-.18-3.13-.17h-18.92c-1.05-.02-2.09.04-3.13.17v-2.72c1.03.12,2.06.17,3.1.14h3.82v-2.02h-2.83c-.93,0-1.85.05-2.77.14v-2.69c.92.12,1.84.18,2.77.17h2.83v-1.69h-1.94Zm.42-6.15h5.65v-1.86h-5.65v1.86Zm0,4.02h5.65v-1.86h-5.65v1.86Zm4.38,3.82h5.43v-1.69h-5.43v1.69Zm0,4.4h5.43v-2.02h-5.43v2.02Zm4.1-12.24h5.87v-1.86h-5.87v1.86Zm0,4.02h5.87v-1.85h-5.87v1.85Zm2.88,10.83c2.49,1.69,5.33,2.78,8.31,3.19-.72.83-1.32,1.77-1.77,2.77-3.29-.79-6.38-2.25-9.09-4.29l2.55-1.66Z"/>
    <path id="_パス_1349" data-name="パス 1349" class="cls-6" d="m520.4,536.2c0-.67-.04-1.33-.14-1.99h3.27c-.09.66-.14,1.33-.14,1.99v1.69h2.13c.81-1.05,1.49-2.19,2.02-3.41l2.99.86c-.17.22-.31.45-.44.69-.8,1.19-.86,1.27-1.3,1.86h2.3c.99.02,1.98-.01,2.96-.11-.09.86-.13,1.73-.11,2.6v1.8c-.01.66.03,1.32.14,1.97h-3.05v-3.66h-17.9v3.6h-3.05c.08-.66.12-1.33.11-1.99v-1.83c0-.83-.03-1.66-.11-2.49.9.09,1.81.13,2.71.11h2.33c-.51-.96-1.13-1.85-1.86-2.66l2.94-.83c.86,1.09,1.6,2.26,2.22,3.49h1.97v-1.69Zm-3.52,12.16c-1.14,0-1.88.03-2.63.08.07-.77.1-1.55.08-2.33v-2c0-.91-.03-1.63-.08-2.22.75.05,1.66.08,2.66.08h10.44c1.14,0,1.91-.03,2.63-.08-.06.64-.08,1.22-.08,2.24v1.97c-.01.78.01,1.55.08,2.33-.86-.06-1.72-.08-2.77-.08h-3.85v1.64h6.34c.91.02,1.81-.01,2.71-.11-.09.83-.13,1.66-.11,2.49v3.77c0,2.02-.72,2.47-4.13,2.47-.36,0-.5,0-1.86-.08-.04-.95-.26-1.88-.67-2.74.88.13,1.77.19,2.66.2.8,0,1-.11,1-.58v-2.74h-5.96v4.21c-.02.98.03,1.96.14,2.94h-3.3c.11-.97.16-1.96.14-2.94v-4.21h-5.46v3.27c-.02.93.02,1.85.14,2.77h-3.27c.1-.95.14-1.9.14-2.85v-3.68c0-.76-.03-1.52-.11-2.27.85.09,1.7.12,2.55.11h6.01v-1.63h-3.46Zm.36-2.27h9.75v-1.86h-9.75v1.86Z"/>
    <path id="_パス_1350" data-name="パス 1350" class="cls-6" d="m548.82,536.45c-.14.8-.33,1.94-.61,3.44q-.08.47-.17.83c.83-.03,1.22-.06,1.72-.06,1.51-.11,3,.42,4.1,1.47.94,1.05,1.3,2.38,1.3,4.9,0,4.77-.8,8.56-2.13,10.09-.75.9-1.91,1.37-3.07,1.25-1.46-.03-2.9-.31-4.27-.83.03-.53.06-.94.06-1.22,0-.79-.1-1.58-.28-2.35,1.27.61,2.64.99,4.05,1.11.8,0,1.25-.53,1.66-1.88.51-2.07.75-4.19.72-6.32,0-2.55-.64-3.3-2.77-3.3-.58,0-1.03.03-1.66.08-1.19,5.26-3.09,10.33-5.65,15.07l-3.21-1.77c2.13-2.91,4.27-7.9,5.57-13.05q-.42.06-1.3.22l-2.52.42c-.38.07-.76.16-1.14.28l-.33-3.27c1.98-.09,3.94-.28,5.9-.58.38-1.85.62-3.72.72-5.6v-.5l3.6.36c-.09.28-.17.57-.22.86l-.06.37Zm8.42-1.14c1.16,1.21,2.13,2.59,2.91,4.07l-1.94,1.03c-.78-1.5-1.76-2.89-2.91-4.13l1.94-.97Zm2.58,5.48c1.93,2.65,3.34,5.64,4.16,8.81l-3.16,1.58c-.68-3.21-1.97-6.27-3.8-9l2.8-1.39Zm1.72-2.13c-.78-1.45-1.73-2.8-2.83-4.02l1.86-.97c1.15,1.15,2.12,2.46,2.88,3.91l-1.91,1.08Z"/>
    <path id="_パス_1351" data-name="パス 1351" class="cls-6" d="m573.31,545.65h-2.58c-1-.03-2,.02-2.99.14v-2.96c1,.13,2.01.19,3.02.17h2.22v-2.77h-1.61c-.93-.02-1.85.02-2.77.14v-2.85c.91.12,1.83.16,2.74.14h1.64v-.8c.02-.84-.04-1.69-.17-2.52h3.21c-.12.83-.16,1.68-.14,2.52v.8h1.44c.88.03,1.76-.02,2.63-.14v2.85c-.87-.11-1.75-.16-2.63-.14h-1.44v2.77h1.66c.94.02,1.87-.03,2.8-.17v2.97c-.89-.11-1.79-.16-2.69-.14h-1.5v3.08h1.64c.8.02,1.59-.03,2.38-.14v2.96c-.79-.14-1.59-.19-2.38-.17h-1.64v4.05c1.58.58,3.35.78,6.73.78,3.57.11,7.15-.07,10.69-.55-.45,1.04-.73,2.14-.83,3.27q-.8.03-2.83.11c-.28,0-4.43.03-6.07.03-2.22.03-4.45-.12-6.65-.44-2.56-.42-4.81-1.92-6.18-4.13-.38,1.72-.99,3.39-1.8,4.96-.66-.83-1.48-1.51-2.41-2.02,1.66-3,2.48-6.38,2.38-9.81,0-.29,0-.57-.03-.86l2.83.5q-.08.53-.25,2.55c-.03.42-.08.89-.17,1.58.45.82,1.03,1.56,1.72,2.19v-7.93Zm10.94,5.15c-.04.25.01.5.14.72.47.23.98.32,1.5.28,1.1.05,2.2-.04,3.27-.28.83-.3.89-.5.91-3.88.9.45,1.85.79,2.82,1.03-.08,2.66-.3,3.91-.78,4.68-.37.56-.97.93-1.63,1-1.42.22-2.86.32-4.29.3-2.49,0-3.74-.22-4.32-.72-.42-.39-.55-.97-.55-2.38v-5.84c0-1.36-.03-2.22-.11-3.1.92.09,1.85.13,2.77.11h4.49v-4.32h-4.68c-.93-.02-1.85.03-2.77.14v-2.99c.99.12,1.99.18,2.99.17h4.6c.97.03,1.94-.02,2.91-.14-.1.89-.13,1.79-.11,2.69v4.29c-.04.97,0,1.94.11,2.91-.78-.05-1.41-.08-3.07-.08h-4.18v5.43Z"/>
    <path id="_パス_1352" data-name="パス 1352" class="cls-6" d="m599.16,538.53c.88.09,1.77.12,2.66.11,1.91.01,3.81-.09,5.71-.3q-.08-.22-.3-.72c-.69-1.61-1.08-2.47-1.11-2.52l3.46-.47c.26,1.16.64,2.28,1.14,3.35,2.53-.35,5.04-.9,7.48-1.66l.28,2.94q-.28.06-.94.19c-1.86.44-4.93,1.05-5.79,1.16.32.78.68,1.53,1.08,2.27,2.38-.5,3.66-.78,3.82-.8.9-.18,1.78-.45,2.63-.8l.28,3.02c-.53.08-1.11.19-1.74.36-1.14.28-2.05.47-2.71.61q-.69.14-1.03.22c1.04,1.83,2.29,3.53,3.71,5.07l-2.44,1.74c-2.02-.84-4.19-1.23-6.37-1.14-1.59-.09-3.18.17-4.65.78-.68.3-1.14.95-1.19,1.69.04.72.51,1.36,1.19,1.61,1.27.45,2.61.66,3.96.61,2.94-.01,5.84-.62,8.53-1.8l.5,3.41c-.61.1-1.21.24-1.8.42-2.31.63-4.7.95-7.09.94-3.19,0-5.21-.41-6.76-1.36-1.32-.81-2.13-2.25-2.13-3.79.06-1.6.94-3.06,2.33-3.85,1.99-1.04,4.22-1.52,6.45-1.39,1.62,0,3.23.19,4.79.58-.83-.95-1.54-1.99-2.13-3.1-3.55.49-7.13.74-10.72.75-.47.03-.67.03-1.14.08l-.11-3.02c.95.12,1.9.16,2.85.11,2.62.01,5.24-.16,7.84-.53-.17-.33-.28-.5-.5-1.03-.28-.58-.36-.75-.58-1.25-2.47.27-4.94.4-7.42.39-1.16,0-1.3.03-1.88.06l-.14-2.95Z"/>
    <path id="_パス_1353" data-name="パス 1353" class="cls-6" d="m627.16,539.03c1.23.19,2.47.27,3.71.25.33,0,.64,0,1.28-.03.26-1.4.44-2.82.53-4.24,0-.17,0-.33-.03-.5l3.66.33c-.25.87-.43,1.76-.53,2.66-.14.78-.17.94-.28,1.58,1.6-.11,3.19-.39,4.74-.83l.14,3.19q-.22.03-.89.14c-1.5.29-3.02.48-4.54.58-.31,1.72-1,4.65-1.72,7.18-.88,3.11-1.91,6.17-3.1,9.17l-3.49-1.36c2.31-4.72,3.97-9.74,4.96-14.9-.12.02-.24.03-.36.03h-1.61c-.14,0-.42,0-.89-.03-.5-.03-.89-.03-1.11-.03-.18,0-.35,0-.53.03l.05-3.22Zm13.74,10.75c-1.11,1.39-1.44,2.08-1.44,3.05,0,1.41,1.38,2.13,4.16,2.13,2.14-.02,4.26-.37,6.29-1.03l.25,3.41c-.5.05-.72.08-1.36.19-1.7.29-3.43.43-5.15.44-1.92.11-3.84-.27-5.57-1.11-1.21-.71-1.95-2.01-1.97-3.41,0-1.47.53-2.72,2.05-4.79l2.74,1.11Zm8.23-3.63c-1.16-.14-2.32-.2-3.49-.19-2.46-.04-4.92.23-7.31.8l-.25-3.05c2.71-.62,5.48-.91,8.26-.89.75,0,1,0,2.74.03l.06,3.3Z"/>
    <path id="_パス_1354" data-name="パス 1354" class="cls-6" d="m655.84,538.42c.01-.93-.02-1.87-.11-2.8.81.07,1.62.1,2.44.08h3.35c1.25,0,1.75-.03,2.41-.08-.09.91-.12,1.83-.08,2.74v15.85c0,1.47.03,2.08.08,2.77h-2.83v-1.39h-2.52v2.33h-2.91c.13-1.1.18-2.2.17-3.3v-16.2Zm2.77,5.71h2.49v-5.79h-2.49v5.79Zm0,8.78h2.49v-6.23h-2.49v6.23Zm9.53-13.1c-.99-.02-1.98.03-2.96.14v-2.94c.96.12,1.92.18,2.88.17h2.44v-.75c0-.7-.05-1.39-.17-2.08h3.19c-.1.69-.14,1.38-.14,2.08v.75h3.02c.96.01,1.93-.04,2.88-.17v2.94c-.95-.11-1.9-.16-2.85-.14h-3.05v2.63h3.82c1.01.02,2.02-.04,3.02-.16v2.93c-.9-.11-1.81-.16-2.71-.14h-.47v2.35h.36c.92.03,1.83-.02,2.74-.14v3.02c-.91-.14-1.83-.19-2.74-.17h-.36v6.26c0,1.61-.28,2.27-1.11,2.66-.98.35-2.01.5-3.05.44q-.25,0-2.16-.03c-.01-1.01-.24-2-.67-2.91,1.03.14,2.06.21,3.1.22.86,0,1.03-.14,1.03-.75v-5.9h-6.62c-.99,0-1.98.05-2.96.17v-3.02c1,.12,2.01.17,3.02.14h6.56v-2.35h-6.56c-1.16,0-2.19.05-3.05.14v-2.94c1.02.13,2.05.18,3.07.16h2.85v-2.63h-2.35Zm1.08,16.76c-.97-1.67-2.16-3.2-3.55-4.54l2.35-1.55c1.39,1.25,2.61,2.67,3.63,4.24l-2.44,1.86Z"/>
    <path id="_パス_1355" data-name="パス 1355" class="cls-6" d="m695.84,550.97c-1.58,3.57-3.35,5.21-5.62,5.21-3.16,0-5.43-3.21-5.43-7.67-.03-2.97,1.06-5.85,3.05-8.06,2.47-2.61,5.94-4.02,9.53-3.88,6.65,0,10.97,4.04,10.97,10.28.17,4.52-2.52,8.66-6.73,10.33-1.4.57-2.86.96-4.35,1.16-.33-1.19-.91-2.29-1.69-3.24,1.92-.14,3.79-.66,5.51-1.52,2.45-1.43,3.93-4.09,3.85-6.93.08-2.52-1.23-4.88-3.41-6.15-.85-.5-1.81-.79-2.8-.83-.4,3.89-1.38,7.69-2.88,11.3m-4.07-9.92c-2.37,1.75-3.77,4.53-3.77,7.48,0,2.27.97,4.07,2.19,4.07.92,0,1.86-1.16,2.85-3.55,1.18-3.01,1.95-6.15,2.3-9.36-1.29.11-2.53.58-3.57,1.36"/>
    <path id="_パス_1356" data-name="パス 1356" class="cls-6" d="m375.89,586.76h-7.26c-1.3,0-2.35.06-3.52.17v-3.13c1.16.12,2.33.17,3.49.17h16.04c1.17,0,2.35-.05,3.52-.17v3.13c-1.11-.11-2.3-.17-3.52-.17h-5.57v6.76h4.74c1.04.01,2.07-.04,3.1-.16v3.07c-1.03-.12-2.06-.18-3.1-.17h-4.74v7.84h6.34c1.22.01,2.44-.05,3.66-.19v3.21c-1.2-.14-2.42-.21-3.63-.19h-17.7c-1.22,0-2.44.05-3.66.19v-3.21c1.19.17,2.4.24,3.6.19h.58v-8.95c.02-1.2-.05-2.41-.19-3.6h3.52c-.15,1.19-.21,2.38-.19,3.57v8.98h4.49v-17.34Z"/>
    <path id="_パス_1357" data-name="パス 1357" class="cls-6" d="m401.35,583.83c-.2,1.24-.31,2.49-.33,3.74-.11,2.58-.28,8.2-.28,10.17,0,2.63.17,3.63.72,4.46.94,1.05,2.32,1.58,3.71,1.44,3.01,0,5.69-1.9,6.7-4.74.63-1.49,1.05-3.05,1.28-4.65.99.89,2.12,1.61,3.35,2.13-1.11,3.74-1.94,5.54-3.3,7.07-2.1,2.37-5.15,3.66-8.31,3.52-1.7.06-3.38-.36-4.85-1.22-1.91-1.27-2.71-3.41-2.71-7.12,0-1.44.06-4.21.22-11.17.03-.83.03-1.41.03-1.8,0-.63-.03-1.26-.11-1.88l3.89.06Z"/>
    <path id="_パス_1358" data-name="パス 1358" class="cls-6" d="m427.67,585.54c-.17,1.4-.24,2.8-.22,4.21,0,2.48.17,4.97.53,7.42.47,2.88,1.36,4.66,2.24,4.66.42,0,.8-.42,1.14-1.19.7-1.6,1.2-3.29,1.47-5.01.8.96,1.74,1.81,2.77,2.52-1.44,5.4-3.05,7.65-5.4,7.65-1.86,0-3.35-1.36-4.46-4.02-1.14-2.77-1.64-6.79-1.74-14.46,0-.59-.03-1.19-.11-1.77h3.79Zm13.1,1.25c3.52,4.23,5.69,9.42,6.23,14.9l-3.44,1.3c-.2-2.74-.79-5.44-1.77-8.01-.93-2.47-2.26-4.77-3.93-6.82l2.91-1.38Z"/>
    <path id="_パス_1359" data-name="パス 1359" class="cls-6" d="m456.45,585.35c.03-.87-.02-1.74-.17-2.6h3.21c-.1.86-.14,1.73-.14,2.6v1.55h1.97c.89.02,1.78-.03,2.66-.17v2.96c-.72-.07-1.44-.09-2.16-.08-.2,2.88-.83,5.71-1.88,8.4,1.74,2.22,1.97,2.52,3.93,5.29l-2.19,2.44c-.94-1.67-2.01-3.27-3.19-4.79-1.46,2.56-3.32,4.88-5.51,6.84-.55-.97-1.26-1.84-2.1-2.58,2.39-1.79,4.34-4.11,5.68-6.79-1.45-1.81-3.02-3.51-4.71-5.1l2.02-2.05q.55.55,2.19,2.24c.22.22.69.75,1.74,1.97.58-1.91.94-3.88,1.08-5.87h-5.12c-.86-.02-1.72.03-2.58.14v-3.02c.91.12,1.83.17,2.74.17h2.52v-1.55Zm9.22,7.48c1.53,1.99,2.84,4.13,3.91,6.4l-2.52,1.66c-.93-2.42-2.24-4.68-3.88-6.7l2.49-1.36Zm1.55-1.72c-.88-.02-1.76.03-2.63.14v-3.05c.87.11,1.75.16,2.63.14h3.52v-2.19c.03-1.1-.03-2.21-.19-3.3h3.32c-.13,1.1-.18,2.2-.17,3.3v2.19h.33c.87.02,1.74-.04,2.6-.17v3.1q-.22-.03-.64-.08c-.64-.07-1.29-.1-1.94-.08h-.36v13.38c0,1.44-.08,1.91-.5,2.41-.53.67-1.52.94-3.35.94-1.14,0-2.16-.03-3.27-.11-.1-1.07-.39-2.11-.86-3.08,1.11.18,2.23.29,3.35.33,1.5,0,1.66-.08,1.66-.67v-13.21h-3.52Z"/>
    <path id="_パス_1360" data-name="パス 1360" class="cls-6" d="m489.53,586.02c.75.02,1.5-.02,2.24-.11q-.06.61-.14,1.61c-.33,5.57-1.03,8.56-2.83,12.16.86,1.51,2.16,2.72,3.71,3.49,1.74.83,4.52,1.22,8.48,1.22,1.3,0,2.91-.06,5.24-.22-.46,1.02-.75,2.1-.86,3.21-.94.06-2.69.11-3.6.11-2.53,0-5.05-.22-7.54-.66-2.83-.57-5.33-2.22-6.95-4.6-1.59,2.27-3.5,4.3-5.68,6.01-.36-1.05-.96-2.01-1.74-2.8,2.3-1.6,4.27-3.62,5.82-5.96-.8-1.53-1.44-3.14-1.91-4.79-.6,1.29-1.33,2.52-2.19,3.66-.37-1.07-.98-2.05-1.77-2.85,1.51-1.97,2.61-4.22,3.24-6.62.56-1.92.91-3.9,1.03-5.9,0-.14,0-.28-.03-.42l3.07.28c-.13.51-.23,1.03-.3,1.55-.08.55-.14.86-.28,1.64h2.99Zm-3.57,2.63c-.22.86-.39,1.39-.69,2.33.45,1.94,1.09,3.84,1.91,5.65.97-2.55,1.51-5.25,1.58-7.98h-2.8Zm10.36-1.8c.07,3.16-.12,6.32-.58,9.45-.31,2.24-1.15,4.37-2.47,6.21-.7-.81-1.53-1.5-2.46-2.02,2.24-2.77,2.74-5.32,2.74-14.35.02-.72-.02-1.44-.11-2.16.69.09,1.38.13,2.08.11h3.63c.83.02,1.67-.01,2.49-.11-.09.84-.13,1.68-.11,2.52v12.02c0,.39.11.47.67.47.64,0,.75-.11.89-.97.18-1.43.26-2.88.25-4.32.74.41,1.55.69,2.38.83-.11,3.49-.33,5.21-.75,6.12-.42.86-1.19,1.16-2.99,1.16-2.55,0-3.19-.42-3.19-2.05v-12.91h-2.46Z"/>
    <path id="_パス_1361" data-name="パス 1361" class="cls-6" d="m510.92,589.53c1.75.98,3.41,2.11,4.96,3.38l-1.75,2.52c-1.51-1.4-3.16-2.64-4.93-3.68l1.72-2.22Zm4.93,9.47c-.97,2.55-1.58,4.02-2.69,6.32q-.5,1.03-.86,1.88c-.09.24-.2.47-.33.69l-2.66-2.33c.97-1.05,2.66-4.49,4.07-8.31l2.46,1.74Zm-3.57-16.23c1.71,1.02,3.3,2.2,4.77,3.55l-1.88,2.41c-1.45-1.44-3.04-2.72-4.77-3.82l1.88-2.13Zm3.52,21.33c.44.03.67.03.94.03.44,0,1.11-.03,2.05-.08,1.4-2.43,2.55-4.99,3.44-7.65h-2.99c-1,0-2,.05-2.99.17v-3.1c1,.13,2.01.18,3.02.17h4.32v-4.15h-3.32c-1.08,0-2.02.05-2.91.14v-3.05c.97.13,1.96.18,2.94.17h3.3v-1.22c.04-.97-.02-1.95-.17-2.91h3.35c-.14.96-.2,1.94-.17,2.91v1.22h4.43c.94.01,1.89-.04,2.82-.17v3.05c-.93-.11-1.86-.16-2.8-.14h-4.46v4.15h5.32c.97,0,1.94-.05,2.91-.17v3.1c-.96-.12-1.92-.17-2.88-.17h-6.51q-.17.5-.56,1.52c-.72,1.83-1.53,3.63-2.44,5.37l-.25.53c2.47-.17,4.93-.47,7.37-.91-.82-1.37-1.72-2.69-2.72-3.93l2.47-1.27c2.1,2.68,3.98,5.53,5.59,8.53l-2.71,1.63c-.64-1.27-.83-1.69-1.27-2.55-3.31.66-6.66,1.14-10.03,1.44-3.02.3-3.6.39-4.49.55l-.61-3.21Z"/>
    <path id="_パス_1362" data-name="パス 1362" class="cls-6" d="m540.37,585.99c2.13.33,4.28.45,6.43.36.56-1.08.93-2.24,1.11-3.43l3.63.39c-.42.81-.79,1.64-1.11,2.49-.14.3-.19.39-.25.5q.22-.03,1.74-.11c2.44-.08,4.88-.39,7.26-.94l.19,3.16q-.78.06-2.19.22c-2.02.25-5.54.47-8.34.55-.65,1.35-1.51,2.6-2.55,3.68l.03.05q.2-.14.56-.41c1.14-.81,2.51-1.25,3.91-1.25,1.88-.2,3.6,1.08,3.96,2.93,2.13-.77,3.55-1.27,4.24-1.5.72-.19,1.4-.47,2.05-.83l1.3,3.19c-1.04.18-2.07.43-3.07.75-.39.11-1.77.58-4.16,1.41v.3q.03.72.03,1.11v1.11c-.03.47-.03.72-.03.91,0,.49.02.98.08,1.47l-3.21.08c.14-1.07.19-2.14.17-3.21v-.66c-.93.4-1.82.88-2.66,1.44-.82.48-1.36,1.32-1.44,2.27,0,1.44,1.33,2.02,4.68,2.02,2.76.08,5.52-.31,8.15-1.16l.28,3.57c-.43,0-.85.04-1.27.11-2.35.33-4.72.5-7.09.5-2.94,0-4.76-.33-6.18-1.16-1.28-.73-2.05-2.1-2.02-3.57,0-1.14.43-2.25,1.22-3.08,1.24-1.55,2.83-2.6,5.95-3.91,0-.84-.69-1.52-1.53-1.51-.05,0-.1,0-.16,0-1.61,0-3.55.97-5.68,2.85-.92.72-1.73,1.57-2.41,2.52l-2.52-2.49c.91-.73,1.75-1.56,2.49-2.47,1.23-1.49,2.34-3.07,3.32-4.74.05-.13.13-.25.22-.36-.11,0-.47.03-.47.03-.44,0-2.88-.06-3.49-.06q-.53-.03-.78-.03c-.15,0-.3,0-.44.03l.06-3.15Z"/>
    <path id="_パス_1363" data-name="パス 1363" class="cls-6" d="m576.33,596.43c-1.74,1.47-2.52,2.63-2.52,3.82,0,1.8,2.02,2.58,6.7,2.58,2.94.05,5.88-.35,8.7-1.19l.3,3.8c-.41.02-.81.05-1.22.11-2.47.42-4.97.63-7.48.64-2.34.11-4.69-.2-6.93-.91-2.38-.94-3.55-2.47-3.55-4.63s1.08-3.96,3.57-6.04l2.41,1.82Zm-4.21-11.39c2.73.55,5.52.78,8.31.69,2.45.09,4.9-.09,7.31-.53l.11,3.13c-2.59,1.31-5.07,2.84-7.4,4.57l-2.41-1.91c1.75-1.11,2.05-1.3,2.74-1.69.28-.17.36-.22.72-.44.21-.1.41-.21.61-.33-1.38.17-2.77.25-4.16.22-1.69-.01-3.39-.12-5.07-.33-.33-.03-.53-.06-.64-.06-.06,0-.19-.03-.39-.03l.25-3.3Zm14.63,6.15c1.16,1.21,2.13,2.59,2.91,4.07l-1.94,1.03c-.78-1.5-1.76-2.89-2.91-4.13l1.94-.97Zm4.29,3.35c-.78-1.45-1.73-2.8-2.83-4.02l1.86-.97c1.15,1.15,2.12,2.47,2.88,3.91l-1.91,1.08Z"/>
    <path id="_パス_1364" data-name="パス 1364" class="cls-6" d="m600.26,588.04c-1.47,0-2.55.05-3.41.14v-3.07c1.17.13,2.34.19,3.52.17h4.74c.41-.96.7-1.96.86-2.99l3.38.33c-.14.31-.27.64-.36.97-.11.3-.36.94-.64,1.69h9.89c1.17.03,2.33-.03,3.49-.17v3.08c-.94-.08-2.27-.14-3.44-.14h-11.19c-1.06,2.17-2.34,4.22-3.82,6.12v11.02c-.02.97.03,1.95.17,2.91h-3.32c.13-.96.18-1.94.17-2.91v-7.76c-.78.72-1.22,1.14-2.49,2.16-.4-1.02-.94-1.98-1.61-2.85,1.49-1.04,2.85-2.25,4.07-3.6,0-.57-.04-1.13-.11-1.69h1.5c.82-1.07,1.54-2.21,2.16-3.41h-3.55Zm11.8,8.45c0-.43-.03-.85-.08-1.27h1.14c.99-.58,1.89-1.29,2.69-2.11h-7.06c-.83-.02-1.67.03-2.49.14v-2.91c.84.09,1.68.13,2.52.11h7.9c.97,0,1.75-.03,2.3-.08l1.8,1.72q-.25.28-.8.83c-1.49,1.51-3.13,2.85-4.9,4.02v.42h3.8c1.05.01,2.09-.04,3.13-.17v3.05c-1.08-.13-2.16-.18-3.24-.17h-3.68v5.1c0,2.22-.78,2.8-3.68,2.8-.67,0-1.64-.03-2.63-.11-.12-1-.38-1.98-.78-2.91,1.02.17,2.05.26,3.08.28.83,0,1.03-.14,1.03-.72v-4.43h-4.38c-1.06-.02-2.13.04-3.19.17v-3.05c1.04.13,2.08.18,3.13.17h4.43l-.02-.86Z"/>
    <path id="_パス_1365" data-name="パス 1365" class="cls-6" d="m630.21,588.9c-.63,1.36-1.44,2.62-2.41,3.77-.67-.83-1.48-1.54-2.38-2.1,1.73-1.81,2.96-4.05,3.55-6.48.19-.56.3-1.13.33-1.72l3.13.61c-.14.36-.22.61-.47,1.44-.17.58-.33,1.05-.58,1.74h4.18c.92.02,1.83-.02,2.74-.14v3.02c-.91-.09-1.83-.14-2.74-.14h-1.03q-.06,2.93-.17,4.35h1.66c.87.02,1.74-.03,2.6-.14v3.05c-.89-.11-1.79-.16-2.69-.14h-1.86c-.06.39-.08.53-.17.94.4.78.88,1.51,1.44,2.19,1.03,1.33,2.24,2.51,3.6,3.49-.72.91-1.29,1.93-1.69,3.02-1.73-1.48-3.18-3.25-4.29-5.24-1.08,2.83-2.38,4.54-5.35,7.01-.53-1.02-1.33-1.88-2.3-2.49,2.01-1.18,3.63-2.92,4.65-5.01.56-1.24.94-2.56,1.14-3.91h-2.13c-1.01-.03-2.02.02-3.02.17v-3.1c1.03.15,2.06.21,3.1.17h2.35c.06-.86.11-2.33.14-4.35h-1.35Zm12.03,18.39h-3.08c.08-.89.17-2.08.17-3.19v-16.32c0-.98-.05-1.96-.17-2.94.84.11,1.7.16,2.55.14h5.82c.86.02,1.72-.03,2.58-.14-.11.97-.16,1.96-.14,2.94v16.04c0,1.17.05,2.33.17,3.49h-3.13v-1.91h-4.77v1.89Zm.05-4.65h4.71v-14.88h-4.71v14.88Z"/>
    <path id="_パス_1366" data-name="パス 1366" class="cls-6" d="m655.67,586.57c.61.03.91.03,1.05.03q.5,0,4.57-.28c2.02-.11,6.76-.36,14.16-.72.96.02,1.91-.06,2.85-.22l.19,3.52c-.19-.02-.39-.03-.58-.03-1.92.07-3.8.58-5.48,1.5-3.52,1.83-5.6,4.6-5.6,7.4.02,2.18,1.55,4.06,3.68,4.52,1.34.41,2.73.65,4.13.72.03,0,.28,0,.55-.03l-.5,3.77c-.36-.08-.42-.08-.94-.17-2.26-.16-4.47-.78-6.48-1.83-2.47-1.3-4.01-3.88-3.96-6.68.03-2.42.97-4.75,2.63-6.51,1.09-1.18,2.4-2.13,3.85-2.8-2.24.33-3.96.5-9.34.89-1.54.08-3.08.27-4.6.55l-.19-3.64Zm19.09,5.32c1.16,1.21,2.13,2.59,2.91,4.07l-1.94,1.03c-.78-1.5-1.76-2.89-2.91-4.13l1.94-.97Zm4.29,3.35c-.78-1.45-1.73-2.8-2.83-4.02l1.86-.97c1.15,1.15,2.12,2.47,2.88,3.91l-1.91,1.08Z"/>
    <path id="_パス_1367" data-name="パス 1367" class="cls-6" d="m700.55,593.55c0,.11.03.33.03.66.61,1.21.91,2.55.89,3.91,0,3.03-1.57,5.85-4.13,7.48-1.55.99-3.24,1.76-5.02,2.27-.43-1.17-1.1-2.23-1.97-3.13,1.66-.23,3.26-.78,4.71-1.61,1.64-.77,2.83-2.27,3.21-4.04-.91,1.33-2.46,2.08-4.07,1.97-1.15.04-2.29-.31-3.21-1-1.24-.83-1.96-2.25-1.91-3.74,0-2.94,2.3-5.04,5.51-5.04,1.03-.05,2.04.24,2.88.83-.03-.11-.04-.22-.03-.33-.03-.05-.03-1.61-.03-2.35-3.96.11-6.57.19-7.79.28q-4.18.3-4.93.42l-.11-3.3c.45.04.9.06,1.36.05.69,0,1.14,0,4.71-.14,1.8-.06,2.08-.06,4.35-.11q.91-.03,2.35-.08c.07-1.12.01-2.24-.17-3.35l3.49-.03c-.13,1.09-.18,2.2-.14,3.3,4.82-.03,6.98-.08,8.01-.19l.03,3.18c-1.03-.08-2.35-.14-4.65-.14-.67,0-1.16,0-3.35.05v1.8l-.02,2.39Zm-5.65.28c-1.32-.09-2.47.9-2.58,2.22,0,1.21.97,2.19,2.18,2.19.06,0,.12,0,.18,0,1.39.1,2.6-.94,2.71-2.33,0-.06,0-.11,0-.17,0-1.16-.97-1.91-2.49-1.91"/>
    <path id="_パス_1368" data-name="パス 1368" class="cls-6" d="m723.79,583.55c-.09.28-.17.57-.22.86-.06.36-.08.5-.17.94q-.08.58-.47,2.66c-.11.61-.11.67-.19,1.03.8-.06,1.19-.08,1.72-.08,1.51-.11,3,.42,4.1,1.47.94,1.05,1.3,2.38,1.3,4.9,0,4.76-.8,8.56-2.13,10.08-.75.9-1.91,1.37-3.08,1.25-1.46-.03-2.9-.3-4.27-.8.03-.55.06-.94.06-1.22,0-.79-.09-1.58-.28-2.35,1.27.61,2.64.97,4.05,1.08.8,0,1.25-.53,1.66-1.88.51-2.06.75-4.19.72-6.32,0-2.55-.64-3.3-2.83-3.3-.55,0-.97.03-1.61.08-1.07,4.8-2.75,9.44-5.02,13.8l-.42.83c-.08.17-.08.19-.22.47l-3.21-1.77c1.13-1.64,2.09-3.38,2.88-5.21,1.12-2.53,2.02-5.15,2.69-7.84-1.67.21-3.32.51-4.96.89l-.33-3.27c1.03,0,4.38-.33,5.9-.55.36-1.85.6-3.72.72-5.59v-.53l3.6.39Zm9.17,3.55c2.71,3.11,4.66,6.81,5.71,10.8l-3.16,1.61c-.45-2.19-1.2-4.3-2.22-6.29-.8-1.74-1.88-3.34-3.19-4.74l2.85-1.38Z"/>
    <path id="_パス_1369" data-name="パス 1369" class="cls-6" d="m752.35,600.31c.05-.39.08-.77.08-1.16l-.03-.53c-.05-1.3.35-2.57,1.14-3.6.73-.84,1.61-1.55,2.6-2.08,1.8-1.19,2.44-2.05,2.44-3.32,0-1.69-1.47-2.74-3.82-2.74-1.3-.07-2.55.53-3.32,1.58-.41.63-.64,1.35-.67,2.1l-4.1-.5c.22-1.61,1-3.08,2.19-4.18,1.73-1.38,3.91-2.07,6.12-1.94,1.99-.1,3.96.48,5.57,1.66,1.24.9,1.97,2.34,1.97,3.88.05,1.17-.29,2.32-.97,3.27-.64.89-1.16,1.33-3.41,2.85-1.72,1.16-2.16,1.83-2.16,3.3,0,.47.03.94.08,1.41h-3.71Zm3.85,6.1h-4.02v-3.8h4.02v3.8Z"/>
    <path id="_パス_1370" data-name="パス 1370" class="cls-6" d="m373.09,644.89c-1.74,1.44-2.52,2.6-2.52,3.79,0,1.8,2.02,2.58,6.71,2.58,2.94.05,5.87-.34,8.7-1.16l.3,3.79c-.41.02-.81.05-1.22.11-2.47.4-4.97.6-7.48.61-2.34.11-4.69-.2-6.92-.91-2.38-.91-3.55-2.47-3.55-4.63s1.08-3.93,3.57-6.01l2.41,1.83Zm-4.21-11.39c2.73.55,5.52.78,8.31.69,2.45.09,4.9-.09,7.31-.53l.11,3.1c-2.59,1.32-5.07,2.86-7.4,4.6l-2.41-1.91c1.44-.91,2.8-1.74,4.07-2.47-1.38.17-2.77.25-4.16.22-1.69-.01-3.39-.12-5.07-.33-.34-.05-.68-.08-1.03-.08l.25-3.29Z"/>
    <path id="_パス_1371" data-name="パス 1371" class="cls-6" d="m402.18,644.89c-1.74,1.44-2.52,2.6-2.52,3.79,0,1.8,2.02,2.58,6.7,2.58,2.94.05,5.87-.34,8.7-1.16l.3,3.79c-.41.02-.81.05-1.22.11-2.47.4-4.97.6-7.48.61-2.34.11-4.69-.2-6.93-.91-2.38-.91-3.55-2.47-3.55-4.63s1.08-3.93,3.57-6.01l2.42,1.83Zm-4.21-11.39c2.73.55,5.52.78,8.31.69,2.45.09,4.9-.09,7.31-.53l.11,3.1c-2.59,1.32-5.07,2.86-7.4,4.6l-2.41-1.91c1.44-.91,2.8-1.74,4.07-2.47-1.38.17-2.77.25-4.16.22-1.69-.01-3.39-.12-5.07-.33-.34-.05-.68-.08-1.03-.08l.25-3.29Z"/>
    <path id="_パス_1372" data-name="パス 1372" class="cls-6" d="m422.96,635.05c.61.03.92.03,1.05.03q.5,0,4.57-.28c2.02-.11,6.76-.36,14.16-.72.96.02,1.91-.06,2.85-.22l.19,3.52c-.19-.02-.39-.03-.58-.03-1.92.07-3.8.58-5.48,1.5-3.52,1.83-5.6,4.6-5.6,7.4.02,2.18,1.55,4.06,3.68,4.52,1.34.41,2.73.65,4.13.72.03,0,.28,0,.56-.03l-.5,3.77c-.36-.08-.42-.08-.94-.17-2.26-.16-4.47-.78-6.48-1.83-2.47-1.3-4-3.88-3.96-6.68.03-2.42.97-4.75,2.63-6.51,1.09-1.18,2.4-2.13,3.85-2.8-2.24.33-3.96.5-9.33.89-1.54.08-3.08.27-4.6.55l-.19-3.63Zm19.09,5.32c1.16,1.21,2.13,2.59,2.91,4.07l-1.94,1.03c-.78-1.5-1.76-2.89-2.91-4.13l1.94-.97Zm4.29,3.35c-.78-1.45-1.73-2.8-2.83-4.02l1.86-.97c1.15,1.15,2.13,2.47,2.88,3.91l-1.91,1.08Z"/>
    <path id="_パス_1373" data-name="パス 1373" class="cls-6" d="m453.71,655.41c-.03-.36-.07-.72-.14-1.08-.5-2.91-.75-5.86-.75-8.81,0-2.46.17-4.91.53-7.34q.14-.83.75-3.96c.15-.68.25-1.36.3-2.05v-.11l3.74.39c-1.14,2.41-2.19,9.09-2.22,13.91q-.03,1-.03,1.44v.44c0,.19,0,.39-.03.58h.03q.14-.3.33-.8c.06-.19.19-.5.33-.94q.25-.58.53-1.25c.13-.28.25-.56.33-.86l2.3,1.03c-1.64,3.21-2.74,6.65-2.74,8.47,0,.25.02.5.06.75l-3.32.19Zm6.26-18.15c1.65.36,3.33.51,5.02.44.97,0,1.58,0,2.55-.06,0-1.63-.03-3.02-.03-4.15.01-.45-.02-.89-.08-1.33l3.46-.08c-.17,1.35-.23,2.71-.19,4.07v1.28c1.26-.14,2.51-.36,3.74-.67q.17-.05.61-.22l.22-.06.11,3.13c-.27.02-.54.07-.8.14-.94.2-2.38.44-3.85.61v.61c0,1.55,0,1.61.28,6.26,1.54.67,3,1.52,4.35,2.52.24.18.5.34.78.47l-1.33,3.35c-.61-.68-1.31-1.28-2.08-1.77-.94-.61-1.58-1.03-1.74-1.14v.39c.01.53-.06,1.05-.22,1.55-.64,1.64-2.58,2.6-5.26,2.6-3.63,0-5.84-1.72-5.84-4.54s2.35-4.57,5.71-4.57c.84-.03,1.68.1,2.47.39-.08-.69-.11-2.05-.22-5.9-1.11.03-1.77.06-2.49.06-1.03,0-2.13-.03-3.44-.14-.39,0-.69-.03-.83-.03-.16-.02-.31-.03-.47-.03-.09-.02-.18-.03-.28-.03-.06,0-.11,0-.17.03l.05-3.18Zm5.62,11.61c-1.77,0-2.88.69-2.88,1.83,0,1.02,1,1.72,2.55,1.72.84.08,1.67-.24,2.24-.86.29-.44.41-.97.36-1.5v-.75c-.72-.3-1.49-.45-2.27-.44"/>
    <path id="_パス_1374" data-name="パス 1374" class="cls-6" d="m497.46,645.55v-14.66h8.28v3.02h-4.99v11.64h-3.3Z"/>
    <path id="_パス_1375" data-name="パス 1375" class="cls-6" d="m530.92,656.74v-1.55h-17.7v1.55h-3.16c.13-1.19.19-2.38.17-3.57v-17.82c0-1.1-.05-2.2-.17-3.3,1.09.11,2.18.16,3.27.14h17.48c1.09.02,2.18-.03,3.27-.14-.12,1.1-.18,2.2-.17,3.3v17.84c-.02,1.18.03,2.37.17,3.54h-3.16Zm-17.7-4.24h17.7v-17.62h-17.7v13.43c2.72-1.64,4.95-3.99,6.45-6.79h-2.96c-.81,0-1.63.04-2.44.14v-2.91c.26.04.52.07.78.08.14,0,.36,0,.67.03.5.03.89.03,1.14.03h3.63v-1.58c0-.65-.04-1.3-.14-1.94h3.13c-.11.64-.16,1.29-.14,1.94v1.58h3.96c.87.02,1.74-.03,2.6-.14v2.91c-.78-.1-1.57-.15-2.35-.14h-3.3c1.55,2.77,3.16,4.35,6.62,6.54-.66.8-1.22,1.67-1.66,2.6-2.51-1.65-4.56-3.91-5.96-6.57.05.86.08,1.5.08,2.3v3.02c-.02.84.02,1.69.14,2.52h-3.13c.11-.84.16-1.68.14-2.52v-3.02c0-.89.03-1.5.08-2.3-.62,1.38-1.44,2.66-2.44,3.8-.9,1.07-1.92,2.04-3.05,2.88-.51-.86-1.14-1.66-1.86-2.35v4.08Z"/>
    <path id="_パス_1376" data-name="パス 1376" class="cls-6" d="m541.26,641.78c.98-.08,1.94-.26,2.88-.53,2.8-.7,5.67-1.09,8.56-1.16,3.16,0,5.29.91,6.54,2.83.69,1.06,1.05,2.31,1.03,3.57,0,3.68-2.6,6.68-7.01,8.06-1.96.58-3.97.93-6.01,1.05-.19-1.12-.59-2.19-1.19-3.16h.42c1.32-.03,2.64-.17,3.93-.42,1.68-.22,3.27-.87,4.63-1.88,1.24-.84,1.98-2.24,1.97-3.74,0-2.16-1.61-3.33-4.54-3.33-2.46.07-4.91.43-7.29,1.08-1.1.21-2.18.53-3.21.94l-.69-3.32Z"/>
    <path id="_パス_1377" data-name="パス 1377" class="cls-6" d="m568.99,635.99c1.23.19,2.47.27,3.71.25.33,0,.64,0,1.28-.03.26-1.4.44-2.82.53-4.24,0-.17,0-.33-.03-.5l3.66.33c-.25.87-.43,1.76-.53,2.66-.14.78-.17.94-.28,1.58,1.6-.11,3.19-.39,4.74-.83l.14,3.19q-.22.03-.89.14c-1.5.29-3.02.48-4.54.58-.31,1.72-1,4.65-1.72,7.18-.88,3.11-1.91,6.17-3.1,9.17l-3.49-1.36c2.31-4.72,3.97-9.74,4.96-14.9-.12.02-.24.03-.36.03h-1.61c-.14,0-.42,0-.89-.03-.5-.03-.89-.03-1.11-.03-.18,0-.35,0-.53.03l.05-3.22Zm13.74,10.75c-1.11,1.39-1.44,2.08-1.44,3.05,0,1.41,1.39,2.13,4.16,2.13,2.14-.02,4.26-.37,6.29-1.03l.25,3.41c-.5.05-.72.08-1.36.19-1.7.29-3.43.43-5.15.44-1.92.11-3.84-.27-5.57-1.11-1.21-.71-1.95-2-1.97-3.41,0-1.47.53-2.72,2.05-4.79l2.74,1.11Zm8.23-3.63c-1.16-.14-2.32-.2-3.49-.19-2.46-.04-4.92.23-7.31.8l-.25-3.05c2.71-.62,5.48-.91,8.26-.89.75,0,1,0,2.74.03l.06,3.3Z"/>
    <path id="_パス_1378" data-name="パス 1378" class="cls-6" d="m604.78,642.17v14.66h-8.28v-3.02h4.99v-11.64h3.3Z"/>
    <path id="_パス_1379" data-name="パス 1379" class="cls-6" d="m637.66,647.93c-1.58,3.57-3.35,5.21-5.62,5.21-3.16,0-5.43-3.21-5.43-7.67-.03-2.97,1.06-5.85,3.05-8.06,2.47-2.61,5.94-4.02,9.53-3.88,6.65,0,10.97,4.04,10.97,10.28.17,4.52-2.52,8.66-6.73,10.33-1.4.57-2.86.96-4.35,1.16-.33-1.19-.91-2.29-1.69-3.24,1.92-.14,3.79-.66,5.51-1.52,2.45-1.43,3.93-4.09,3.85-6.93.08-2.52-1.23-4.88-3.41-6.15-.85-.5-1.81-.79-2.8-.83-.4,3.89-1.37,7.69-2.88,11.3m-4.07-9.92c-2.37,1.75-3.77,4.53-3.77,7.48,0,2.27.97,4.07,2.19,4.07.92,0,1.86-1.16,2.85-3.55,1.18-3.01,1.95-6.15,2.3-9.36-1.29.12-2.53.59-3.57,1.36"/>
    <path id="_パス_1380" data-name="パス 1380" class="cls-6" d="m655.84,635.38c.01-.93-.02-1.87-.11-2.8.81.07,1.62.1,2.44.08h3.35c1.25,0,1.75-.03,2.41-.08-.09.91-.12,1.83-.08,2.74v15.85c0,1.47.03,2.08.08,2.77h-2.83v-1.39h-2.52v2.33h-2.91c.13-1.1.18-2.2.17-3.3v-16.2Zm2.77,5.71h2.49v-5.79h-2.49v5.79Zm0,8.78h2.49v-6.23h-2.49v6.23Zm9.53-13.1c-.99-.02-1.98.03-2.96.14v-2.93c.96.12,1.92.18,2.88.17h2.44v-.75c0-.7-.05-1.39-.17-2.08h3.19c-.1.69-.14,1.38-.14,2.08v.75h3.02c.96.01,1.93-.04,2.88-.17v2.94c-.95-.11-1.9-.16-2.85-.14h-3.05v2.63h3.82c1.01.02,2.02-.04,3.02-.17v2.93c-.9-.11-1.81-.16-2.71-.14h-.47v2.35h.36c.92.03,1.83-.02,2.74-.14v3.02c-.91-.14-1.83-.19-2.74-.17h-.36v6.26c0,1.61-.28,2.27-1.11,2.66-.98.35-2.01.5-3.05.44q-.25,0-2.16-.03c-.01-1.01-.24-2-.67-2.91,1.03.14,2.06.21,3.1.22.86,0,1.03-.14,1.03-.75v-5.9h-6.62c-.99,0-1.98.05-2.96.17v-3.02c1,.12,2.01.17,3.02.14h6.56v-2.35h-6.56c-1.16,0-2.19.05-3.05.14v-2.93c1.02.13,2.05.18,3.07.17h2.85v-2.63h-2.35Zm1.08,16.76c-.97-1.67-2.16-3.2-3.55-4.54l2.35-1.55c1.39,1.25,2.61,2.67,3.63,4.24l-2.44,1.86Z"/>
    <path id="_パス_1381" data-name="パス 1381" class="cls-6" d="m686.67,655.24c-.03-.5-.06-.66-.14-1.3-.48-2.74-.72-5.51-.72-8.28,0-3.64.39-7.27,1.14-10.83.2-.85.34-1.71.42-2.58l3.66.39c-.89,2.69-1.47,5.47-1.74,8.28-.27,2.03-.41,4.07-.42,6.12,0,.61-.03.83-.06,1.52.39-1.25.88-2.47,1.44-3.66l2.22,1c-1.52,3.21-2.47,6.43-2.47,8.4,0,.16,0,.39.03.75l-3.35.19Zm11.8-10.94c-1.39,1.61-1.97,2.8-1.97,3.99,0,1.58,1.52,2.41,4.4,2.41,2.24.03,4.47-.33,6.59-1.05l.28,3.52c-.38.03-.76.09-1.14.17-1.89.34-3.81.51-5.73.53-3.44,0-5.65-.78-6.87-2.41-.55-.8-.84-1.74-.83-2.71,0-1.8.83-3.66,2.55-5.71l2.72,1.27Zm-4.57-9.17c1.68.37,3.4.52,5.12.44,2.53.06,5.06-.19,7.54-.75l.17,3.35c-.22.03-.64.08-1.97.25-1.97.23-3.95.34-5.93.33-1.67.03-3.33-.07-4.99-.3l.06-3.33Z"/>
    <path id="_パス_1382" data-name="パス 1382" class="cls-6" d="m366.39,693.81c0-.86,0-1.3.08-3.08-.57,1.02-1.22,1.99-1.94,2.91-.31-1.14-.74-2.25-1.28-3.3,2.71-3.13,4.5-6.94,5.18-11.03l3.16.75c-.6,2.1-1.36,4.16-2.27,6.15v15.77c-.01,1.07.03,2.15.14,3.21h-3.24c.12-1.08.18-2.16.17-3.24v-8.15Zm14.41,1.41c-.22,1.5-.75,2.95-1.55,4.24,2.94,1.61,5.76,2.24,10.39,2.44-.51.98-.91,2.01-1.19,3.08-4.68-.5-7.87-1.5-10.91-3.44-1.76,1.64-3.87,2.85-6.18,3.55-.46-.93-1.04-1.81-1.72-2.6,2.05-.45,3.97-1.36,5.62-2.66-.64-.58-1.21-1.22-1.72-1.91-.36-.47-.58-.72-.86-1.03l2.41-1.28c.47.85,1.09,1.6,1.83,2.22.46-.81.79-1.69.97-2.6h-4.07c-.75,0-1.5.03-2.24.11.08-.77.12-1.55.11-2.33v-3.86c.02-.78-.02-1.55-.11-2.33.83.06,1.25.08,2.58.08h4.29l-.03-1.99h-4.57c-.89-.02-1.78.03-2.66.14v-2.99c.99.12,1.99.17,2.99.17h4.24c0-.94-.05-1.87-.17-2.8h3.19c-.09.93-.12,1.87-.08,2.8h4.82c1.05,0,2.09-.05,3.13-.17v2.99c-.92-.11-1.84-.16-2.77-.14h-5.18v1.99h4.07c1.25,0,1.83-.03,2.6-.08-.06.69-.08,1.39-.08,2.41v3.57c0,1.33.03,1.86.08,2.52-.89-.09-1.79-.13-2.69-.11h-4.54Zm-6.23-5.65v3.02h3.68c.11-1.25.11-1.47.17-3.02h-3.85Zm6.73,0c-.06,1.44-.08,1.97-.19,3.02h3.93v-3.02h-3.74Z"/>
    <path id="_パス_1383" data-name="パス 1383" class="cls-6" d="m396.42,687.38c.54.07,1.09.09,1.63.08,3.29-.03,6.57-.24,9.83-.61.76-.02,1.51-.17,2.22-.44l1.86,2.38c-.84.62-1.63,1.32-2.35,2.08-1.5,1.44-3.88,3.57-4.74,4.24.53-.22,1.11-.34,1.69-.33.92-.07,1.81.38,2.3,1.16.45.77.66,1.66.61,2.55.19,2.19.55,2.58,2.38,2.58,1.87,0,3.72-.36,5.46-1.05l.42,3.43c-.47.03-.64.06-2.44.33-1.28.21-2.58.33-3.88.33-1.97,0-3.07-.31-3.88-1.05-.78-.72-1-1.39-1.14-3.57.03-.6-.07-1.21-.28-1.77-.25-.39-.7-.61-1.16-.58-1.3,0-2.55.77-4.79,2.94-1.41,1.36-2.91,2.96-3.91,4.13l-2.55-2.88q1.22-.83,6.43-5.54c.64-.58,1.14-1.05,3.21-3.05.75-.72,1.83-1.75,3.24-3.08-1.58.25-2.3.36-3.6.47q-.39.03-2.8.22-.53.06-1.44.14c-1.03.08-1.22.11-2.13.22l-.19-3.32Zm3.44-7.17c3.58,1.03,7.3,1.55,11.03,1.55l-.53,3.1c-3.88-.11-7.74-.66-11.5-1.63l1-3.02Z"/>
    <path id="_パス_1384" data-name="パス 1384" class="cls-6" d="m431.88,691.43c1.82-.85,3.81-1.29,5.82-1.27,4.74,0,7.78,2.44,7.78,6.23.02,2.59-1.44,4.97-3.77,6.12-2.06,1.09-4.37,1.63-6.7,1.58-1.88.12-3.75-.32-5.38-1.27-1.03-.73-1.65-1.92-1.66-3.19,0-2.3,1.99-3.96,4.77-3.96,1.86-.03,3.64.81,4.79,2.27.58.74,1.01,1.59,1.27,2.49,2.3-.86,3.3-2.05,3.3-4.02,0-2.16-2.13-3.57-5.48-3.57-4.25.07-8.32,1.73-11.41,4.65l-1.89-2.99c1.38-.74,2.69-1.61,3.91-2.6,2.9-2.23,5.67-4.64,8.28-7.2.06-.06.33-.33.5-.5l-.03-.03c-1.05.14-2.83.25-7.84.47-.45.02-.89.06-1.33.14l-.14-3.32c1.08.13,2.18.18,3.27.16,2.35,0,5.73-.14,8.42-.33.59,0,1.18-.12,1.72-.36l1.72,2.44c-.54.3-1.02.69-1.44,1.14-1.39,1.27-3.41,3.08-4.35,3.88-.5.42-2.49,1.91-3.05,2.27-.36.26-.74.5-1.14.72l.05.05Zm.83,6.9c-1,0-1.63.5-1.63,1.27,0,1.11,1.25,1.74,3.3,1.74.48,0,.96-.03,1.44-.11-.5-1.91-1.55-2.91-3.1-2.91"/>
    <path id="_パス_1385" data-name="パス 1385" class="cls-6" d="m455.68,685.86c-.63,1.36-1.44,2.62-2.41,3.77-.67-.83-1.48-1.54-2.38-2.1,1.73-1.81,2.95-4.05,3.55-6.48.19-.55.3-1.13.33-1.72l3.13.61c-.14.36-.22.61-.47,1.44-.17.58-.33,1.05-.58,1.74h4.18c.92.02,1.83-.02,2.74-.14v3.02c-.91-.09-1.83-.14-2.74-.14h-1.03q-.06,2.94-.17,4.35h1.66c.87.02,1.74-.03,2.6-.14v3.05c-.89-.11-1.79-.16-2.69-.14h-1.85c-.06.39-.08.53-.17.94.4.78.89,1.51,1.44,2.19,1.02,1.33,2.24,2.51,3.6,3.49-.72.91-1.29,1.93-1.69,3.02-1.73-1.48-3.18-3.25-4.29-5.24-1.08,2.83-2.38,4.54-5.35,7.01-.53-1.02-1.33-1.88-2.3-2.49,2.01-1.18,3.63-2.92,4.65-5.01.56-1.24.94-2.56,1.14-3.91h-2.14c-1.01-.03-2.02.02-3.02.17v-3.1c1.03.15,2.06.2,3.1.16h2.35c.06-.86.11-2.33.14-4.35h-1.35Zm12.02,18.39h-3.07c.08-.89.17-2.08.17-3.19v-16.32c0-.98-.05-1.96-.17-2.94.84.11,1.7.16,2.55.14h5.82c.86.02,1.72-.03,2.58-.14-.11.97-.16,1.96-.14,2.94v16.04c0,1.17.05,2.33.17,3.49h-3.13v-1.91h-4.76v1.88Zm.06-4.65h4.71v-14.88h-4.71v14.88Z"/>
    <path id="_パス_1386" data-name="パス 1386" class="cls-6" d="m488.1,686.8c-.55-.03-1.13-.05-1.97-.05h-3.82c-.68-.02-1.35.02-2.02.11v-2.74c.67.11,1.35.16,2.02.14h3.69c.7.02,1.4-.02,2.1-.11v2.66Zm-7.23,11.66c0-.79-.03-1.57-.11-2.35.61.08,1.22.11,1.83.08h3.24c.61.02,1.22,0,1.83-.06-.06.75-.08,1.5-.06,2.24v4.02c0,.97.03,1.47.08,2.3h-2.3v-.91h-2.24v1.38h-2.41c.11-.84.16-1.7.14-2.55v-4.16Zm.22-10.19c.64.07,1.29.09,1.94.08h2.49c.67,0,1.34-.02,2-.08v2.55c-.66-.06-1.33-.09-2-.08h-2.49c-.65-.01-1.29.02-1.94.08v-2.55Zm0,3.91c.64.07,1.29.1,1.94.08h2.49c.67.01,1.34-.02,2-.08v2.55c-.66-.08-1.33-.11-2-.08h-2.49c-.65-.01-1.29.02-1.94.08v-2.55Zm.03-11.94c.63.11,1.27.16,1.91.14h2.58c.65.02,1.3-.03,1.94-.14v2.66c-.64-.09-1.29-.13-1.94-.11h-2.58c-.64-.01-1.28.02-1.91.11v-2.66Zm2.02,21.19h2.27v-3.02h-2.27v3.02Zm12.52-19.28c.66.02,1.32-.02,1.97-.11v2.49c-.42-.06-.58-.06-1-.08-.16,1.08-.42,2.15-.78,3.19h2.44c-.06-1.64-.08-3.1-.08-5.15.03-.9-.03-1.8-.17-2.69h2.96c-.15,1.38-.2,2.77-.14,4.15,0,1.58,0,1.66.06,3.68h1.63c1.02.03,2.04-.03,3.05-.16v2.85c-1.02-.11-2.05-.17-3.07-.16h-1.55c.11,2.13.22,3.74.44,5.23.75-1.32,1.31-2.74,1.66-4.21l2.38,1.3c-.38.65-.72,1.32-1,2.02-.63,1.43-1.38,2.81-2.22,4.13.58,1.47,1.25,2.6,1.58,2.6.25,0,.36-.91.41-3.43.63.61,1.35,1.12,2.13,1.5-.08,1.26-.3,2.5-.67,3.71-.39,1-.97,1.55-1.66,1.55-1.22,0-2.52-1.28-3.57-3.46-1.27,1.47-2.69,2.81-4.24,3.99-.48-.84-1.13-1.56-1.91-2.13.8-.5,1.03-.64,1.5-.97h-4.27v1.83h-2.6c.11-.82.15-1.64.14-2.47v-7.4c.02-.82-.02-1.65-.11-2.47.6.08,1.2.11,1.8.08h4.68c.6,0,1.2-.02,1.8-.08-.07.83-.1,1.66-.08,2.49v6.37l.03.39v.14c.81-.77,1.56-1.61,2.24-2.49-.68-2.69-1.04-5.45-1.08-8.23h-7.4c-.94-.02-1.87.03-2.8.14v-2.77c.7.07,1.4.11,2.1.11-.12-1.08-.34-2.14-.64-3.19-.42.03-.53.03-.94.08v-2.49c.6.08,1.2.12,1.8.11h1.33v-.14c.03-.75-.02-1.5-.14-2.24h2.96c-.13.79-.17,1.59-.14,2.38h1.14Zm-4.07,13.44h3.13v-1.8h-3.13v1.8Zm0,4.04h3.13v-1.86h-3.13v1.86Zm1.94-11.99c.36-1.03.59-2.1.69-3.19h-2.16c.24,1.05.41,2.11.5,3.19h.97Zm9.81-6.68c.9,1.3,1.63,2.7,2.19,4.18l-2.1,1.19c-.45-1.56-1.13-3.04-2.02-4.4l1.94-.97Z"/>
    <path id="_パス_1387" data-name="パス 1387" class="cls-6" d="m511.28,682.95c2.13.33,4.28.45,6.43.36.56-1.08.93-2.24,1.11-3.44l3.63.39c-.42.81-.79,1.64-1.11,2.49-.14.3-.19.39-.25.5q.22-.03,1.74-.11c2.44-.08,4.88-.39,7.26-.94l.19,3.16q-.78.05-2.19.22c-2.02.25-5.54.47-8.34.55-.65,1.35-1.51,2.6-2.55,3.68l.03.05q.2-.14.56-.41c1.14-.81,2.5-1.25,3.91-1.25,1.88-.2,3.6,1.08,3.96,2.93,2.13-.77,3.55-1.27,4.24-1.49.72-.19,1.4-.47,2.05-.83l1.3,3.19c-1.04.18-2.07.43-3.07.75-.39.11-1.77.58-4.16,1.41v.3q.03.72.03,1.11v1.11c-.03.47-.03.72-.03.91,0,.49.02.98.08,1.47l-3.21.08c.13-1.07.19-2.14.17-3.21v-.67c-.93.4-1.82.88-2.66,1.44-.82.48-1.36,1.33-1.44,2.27,0,1.44,1.33,2.02,4.68,2.02,2.76.08,5.52-.31,8.15-1.16l.28,3.57c-.43,0-.85.04-1.28.11-2.35.33-4.72.5-7.09.5-2.94,0-4.76-.33-6.18-1.16-1.28-.73-2.05-2.1-2.02-3.57,0-1.14.43-2.25,1.22-3.08,1.25-1.55,2.83-2.6,5.96-3.91,0-.84-.69-1.52-1.53-1.51-.05,0-.11,0-.16,0-1.61,0-3.55.97-5.68,2.85-.92.72-1.73,1.57-2.41,2.52l-2.52-2.49c.91-.73,1.75-1.56,2.49-2.47,1.23-1.49,2.34-3.07,3.32-4.74.05-.13.13-.25.22-.36-.11,0-.47.03-.47.03-.44,0-2.88-.06-3.49-.06q-.53-.03-.78-.03c-.15,0-.3,0-.44.03l.06-3.15Z"/>
    <path id="_パス_1388" data-name="パス 1388" class="cls-6" d="m547.24,693.39c-1.74,1.47-2.52,2.63-2.52,3.82,0,1.8,2.02,2.58,6.7,2.58,2.94.05,5.88-.35,8.7-1.19l.3,3.8c-.41.02-.81.05-1.22.11-2.47.42-4.97.63-7.48.64-2.34.11-4.69-.2-6.93-.91-2.38-.94-3.55-2.47-3.55-4.63s1.08-3.96,3.57-6.04l2.42,1.82Zm-4.21-11.39c2.73.55,5.52.78,8.31.69,2.45.09,4.9-.09,7.31-.53l.11,3.13c-2.59,1.31-5.07,2.84-7.4,4.57l-2.41-1.91c1.75-1.11,2.05-1.3,2.74-1.69.28-.17.36-.22.72-.44.21-.1.41-.21.61-.33-1.38.17-2.77.25-4.16.22-1.69-.01-3.39-.12-5.07-.33-.33-.03-.53-.06-.64-.06-.06,0-.19-.03-.39-.03l.25-3.3Zm14.63,6.15c1.16,1.21,2.14,2.59,2.91,4.07l-1.94,1.03c-.78-1.5-1.76-2.89-2.91-4.13l1.94-.97Zm4.3,3.35c-.78-1.45-1.73-2.8-2.83-4.02l1.86-.97c1.15,1.15,2.12,2.47,2.88,3.91l-1.91,1.08Z"/>
    <path id="_パス_1389" data-name="パス 1389" class="cls-6" d="m571.09,695.47c-.04,2.83-.43,5.65-1.14,8.39l-2.66-.91c.89-2.55,1.33-5.23,1.3-7.92l2.49.44Zm-3.46-4.21c.59.07,1.18.1,1.77.08h.5c.43-.53.84-1.09,1.22-1.66-1.09-1.54-2.32-2.99-3.66-4.32l1.44-2.41c.3.33.64.69,1,1.08.94-1.46,1.66-3.04,2.13-4.71l2.77,1.16c-.34.45-.62.95-.83,1.47-.7,1.39-1.49,2.74-2.35,4.04.44.58.67.83,1.08,1.39,1.04-1.52,1.91-3.14,2.6-4.85l2.55,1.47c-.06.06-.8,1.25-2.27,3.55-.58.89-1.86,2.63-2.71,3.68,1.97-.08,2.08-.11,3.05-.19-.25-.72-.54-1.42-.86-2.11l1.86-.89c.91,1.8,1.64,3.68,2.19,5.62l-2.08,1c-.17-.66-.22-.89-.36-1.33q-.89.11-1.88.19v8.78c-.03.97.02,1.95.17,2.91h-3.16c.14-.97.2-1.95.17-2.94v-8.5c-.78.06-1.19.08-2.05.14-.65,0-1.3.07-1.94.19l-.33-2.86Zm9.97,3.77c.5,2.25.79,4.54.89,6.84l-2.41.58c.01-2.33-.23-4.65-.72-6.92l2.24-.5Zm3.52-11.86c-.98-.01-1.96.04-2.94.17v-3.02c1.03.12,2.06.17,3.1.17h8.73c1.11,0,2.05-.03,2.6-.08-.08.74-.13,1.48-.14,2.22-.02,2.3-.25,4.59-.69,6.84-.42,1.66-1.33,2.1-4.24,2.1-.28,0-.39,0-1.86-.06.01-1.03-.24-2.05-.72-2.96.93.19,1.88.29,2.83.3.78,0,1.05-.17,1.19-.66.38-1.64.57-3.33.55-5.01h-3.88c-.33,4.43-1.94,6.92-5.76,9-.44-.96-1.12-1.8-1.97-2.44,3.33-1.5,4.57-3.18,4.77-6.57h-1.57Zm1.19,21.91h-3.05c.11-.95.16-1.9.14-2.85v-6.62c.01-.87-.02-1.74-.11-2.6.74.09,1.49.13,2.24.11h8.17c.78.02,1.56-.02,2.33-.11-.09.87-.13,1.75-.11,2.63v6.67c-.02.96.03,1.93.14,2.88h-3.05v-1.5h-6.7v1.39Zm-.03-4.1h6.73v-5.15h-6.73v5.15Z"/>
    <path id="_パス_1390" data-name="パス 1390" class="cls-6" d="m610.93,679.9c.68,1.16,1.51,2.22,2.46,3.16,2.59,2.61,5.7,4.65,9.11,6.01-.63,1.03-1.16,2.11-1.58,3.24-2.5-1.23-4.84-2.76-6.98-4.54-1.85-1.45-3.44-3.2-4.71-5.18-1.28,1.89-2.81,3.61-4.54,5.1-2.06,1.83-4.35,3.39-6.81,4.63-.38-1.1-.94-2.14-1.64-3.07,2.43-.99,4.68-2.39,6.65-4.13,1.76-1.48,3.26-3.24,4.43-5.21h3.6Zm-4.38,9.45c-.09.76-.13,1.53-.11,2.3-.08,4.13-.53,6.32-1.69,8.45-1.31,2.28-3.28,4.11-5.65,5.23-.61-1.05-1.37-1.99-2.27-2.8,1.26-.49,2.42-1.19,3.44-2.08,2.24-1.97,2.94-4.13,2.94-9.09,0-.68-.06-1.36-.19-2.02h3.54Zm8.78,0c-.14,1.02-.19,2.05-.17,3.07v9.2c0,1.1.06,2.21.19,3.3h-3.54c.14-1.08.2-2.18.19-3.27v-9.25c.01-1.02-.05-2.04-.19-3.05h3.52Z"/>
    <path id="_パス_1391" data-name="パス 1391" class="cls-6" d="m634.06,680.79c-.2,1.24-.31,2.49-.33,3.74-.11,2.58-.28,8.2-.28,10.17,0,2.63.17,3.63.72,4.46.94,1.05,2.32,1.58,3.71,1.44,3.01,0,5.69-1.9,6.7-4.74.63-1.49,1.05-3.05,1.28-4.65.99.89,2.12,1.61,3.35,2.13-1.11,3.74-1.94,5.54-3.3,7.07-2.1,2.37-5.15,3.66-8.31,3.52-1.7.06-3.38-.36-4.85-1.22-1.91-1.27-2.71-3.41-2.71-7.12,0-1.44.06-4.21.22-11.17.03-.83.03-1.41.03-1.8,0-.63-.03-1.26-.11-1.88l3.89.06Z"/>
    <path id="_パス_1392" data-name="パス 1392" class="cls-6" d="m676.64,703.17c-1.48-1.55-3.21-2.84-5.12-3.8-.48-.26-.99-.49-1.5-.69v.3c.14,1.43-.45,2.83-1.55,3.74-1.35.89-2.96,1.3-4.57,1.19-4.05,0-6.37-1.58-6.37-4.32,0-3.02,2.74-4.79,7.4-4.79.62,0,1.24.04,1.86.11,0-.22,0-.44-.03-.67v-.6q-.03-.39-.06-1.5c-1.33.03-2.19.05-2.77.05-1.69,0-2.71-.03-5.01-.19-.36-.03-.64-.03-1.05-.03l.06-2.99c2.13.35,4.29.51,6.45.47.55,0,1.5-.03,2.27-.06,0-.25,0-1.19-.03-2.77-.89.03-1.33.03-1.74.03-1.36,0-4.93-.14-6.79-.28-.3-.03-.53-.03-.61-.03h-.44l.03-3.07c2.46.45,4.95.64,7.45.58.44,0,1.39-.03,2.08-.05.06-1.17.01-2.33-.14-3.49h3.52c-.18,1.12-.25,2.25-.2,3.38,2.69-.06,5.36-.42,7.98-1.05l.14,3.08c-.73.04-1.46.12-2.19.25-2.44.33-3.52.41-5.96.55.03.69.03,1.03.06,2.74q1.38-.08,3.93-.36c1.16-.11,2.31-.31,3.44-.61l.08,3.05c-.47.03-1.16.11-1.8.19-.42.06-1.66.19-3.74.39-.39.03-.8.06-1.88.11q.08,2.69.11,3.35c2.74.85,5.31,2.17,7.59,3.91.47.3.61.42,1,.64l-1.88,3.24Zm-12.1-5.63c-2.24,0-3.6.72-3.6,1.91,0,1.03,1.19,1.66,3.16,1.66.9.1,1.79-.23,2.41-.89.26-.55.38-1.16.33-1.77v-.66c-.75-.17-1.53-.26-2.3-.25"/>
    <path id="_パス_1393" data-name="パス 1393" class="cls-6" d="m700.55,690.51c0,.11.03.33.03.66.61,1.21.91,2.55.89,3.91,0,3.03-1.57,5.85-4.13,7.48-1.55.99-3.24,1.76-5.02,2.27-.43-1.17-1.1-2.23-1.97-3.13,1.66-.23,3.26-.78,4.71-1.61,1.64-.77,2.83-2.27,3.21-4.04-.91,1.33-2.46,2.08-4.07,1.97-1.15.04-2.29-.31-3.21-1-1.24-.83-1.96-2.25-1.91-3.74,0-2.94,2.3-5.04,5.51-5.04,1.03-.05,2.04.24,2.88.83-.03-.11-.04-.22-.03-.33-.03-.05-.03-1.61-.03-2.35-3.96.11-6.57.19-7.79.28q-4.18.3-4.93.42l-.11-3.3c.45.04.9.06,1.36.05.69,0,1.14,0,4.71-.14,1.8-.06,2.08-.06,4.35-.11q.91-.03,2.35-.08c.07-1.12.01-2.24-.17-3.35l3.49-.03c-.13,1.09-.18,2.2-.14,3.3,4.82-.03,6.98-.08,8.01-.19l.03,3.18c-1.03-.08-2.35-.14-4.65-.14-.67,0-1.16,0-3.35.05v1.8l-.02,2.39Zm-5.65.28c-1.32-.09-2.47.9-2.58,2.22,0,1.21.97,2.19,2.18,2.19.06,0,.12,0,.18,0,1.39.1,2.6-.94,2.71-2.33,0-.06,0-.11,0-.17,0-1.16-.97-1.91-2.49-1.91"/>
    <path id="_パス_1394" data-name="パス 1394" class="cls-6" d="m722.3,700.35c0,2.59-2.1,4.68-4.68,4.68s-4.68-2.1-4.68-4.68,2.1-4.68,4.68-4.68c2.58,0,4.67,2.1,4.68,4.68m-7.2,0c0,1.39,1.13,2.52,2.52,2.52s2.52-1.13,2.52-2.52-1.13-2.52-2.52-2.52h0c-1.39,0-2.51,1.13-2.52,2.52"/>
  </g>
</svg>