<?xml version="1.0" encoding="UTF-8"?>
<svg id="_レイヤー_1" data-name="レイヤー 1" xmlns="http://www.w3.org/2000/svg" xmlns:xlink="http://www.w3.org/1999/xlink" viewBox="0 0 737.12 376.69">
  <defs>
    <style>
      .cls-1 {
        clip-path: url(#clippath);
      }

      .cls-2 {
        fill: none;
      }

      .cls-2, .cls-3, .cls-4, .cls-5 {
        stroke-width: 0px;
      }

      .cls-6 {
        clip-path: url(#clippath-1);
      }

      .cls-7 {
        clip-path: url(#clippath-4);
      }

      .cls-8 {
        clip-path: url(#clippath-3);
      }

      .cls-9 {
        clip-path: url(#clippath-2);
      }

      .cls-10 {
        clip-path: url(#clippath-5);
      }

      .cls-3 {
        fill: #2f9248;
      }

      .cls-4 {
        fill: #fff;
      }

      .cls-5 {
        fill: #040000;
      }
    </style>
    <clipPath id="clippath">
      <rect class="cls-2" x="540.68" y="184.96" width="142.75" height="11.04"/>
    </clipPath>
    <clipPath id="clippath-1">
      <rect class="cls-2" x="550.14" y="246.32" width="119.88" height="11.04"/>
    </clipPath>
    <clipPath id="clippath-2">
      <rect class="cls-2" x="585.63" y="133.54" width="51.26" height="11.04"/>
    </clipPath>
    <clipPath id="clippath-3">
      <rect class="cls-2" x="90.83" y="185.93" width="97" height="11.04"/>
    </clipPath>
    <clipPath id="clippath-4">
      <rect class="cls-2" x="79" y="247.29" width="119.88" height="11.04"/>
    </clipPath>
    <clipPath id="clippath-5">
      <rect class="cls-2" x="80.57" y="134.51" width="118.3" height="11.04"/>
    </clipPath>
  </defs>
  <rect id="_長方形_171" data-name="長方形 171" class="cls-4" width="737.12" height="376.69"/>
  <path id="_パス_1265" data-name="パス 1265" class="cls-5" d="m445.1,79.16c-1.16.11-2.32.29-3.46.54-2.44.39-3.76.59-6,.83v5.32c2.8-.72,5.69-1.06,8.58-1.03,4.29,0,7.71.88,10.34,2.64,3.13,2.22,4.97,5.83,4.93,9.66.21,6.23-4.68,11.45-10.91,11.66-.23,0-.47,0-.7,0-5.9,0-9.17-3.9-9.17-10.93,0-.34.01-.68.05-1.02,2.26-.56,4.43-1.45,6.44-2.64-.16.89-.25,1.78-.24,2.68,0,3.51.98,5.03,3.22,5.03,2.44,0,4.25-2,4.25-4.78,0-3.85-3.17-6.29-8.29-6.29-2.86,0-5.71.44-8.44,1.32v9.17c0,3.66-.15,4.68-.83,5.66-1.07,1.37-2.75,2.12-4.49,2-3.1-.08-6.11-1.04-8.68-2.78-2.68-1.81-4.1-4.15-4.1-6.73s1.56-5.27,4.34-7.71c2.17-1.75,4.58-3.16,7.17-4.2v-6.68c-2.44.05-3.76.1-4.39.1-.44,0-.54,0-3.07-.1h-.83c-.24,0-.68,0-1.22.05l-.05-6.49c2.03.34,4.09.49,6.15.44.44,0,.59,0,2.39-.05.33.02.65,0,.98-.05v-2.44c.07-2.02-.03-4.05-.29-6.05h7.22c-.25,1.87-.35,3.77-.29,5.66v2.39c3.1-.31,6.17-.9,9.17-1.76l.24,6.59Zm-16,15.12c-2.98,1.46-4.98,3.51-4.98,5.12.09.83.61,1.55,1.36,1.9.8.54,1.72.86,2.68.93.73,0,.93-.39.93-2v-5.95Zm27.17-10.29c-2.58-4.19-5.87-7.9-9.71-10.98l5.37-3.81c3.83,2.91,7.13,6.46,9.76,10.49l-5.41,4.29Z"/>
  <path id="_パス_1266" data-name="パス 1266" class="cls-5" d="m423.59,150c0-.93,0-1.41-.05-2.2-2.24.59-2.83.73-4.83,1.17-.61-1.96-1.48-3.83-2.59-5.56,3.16-.37,6.29-.96,9.37-1.76,2.65-.68,5.24-1.56,7.76-2.64-1.38-.94-2.68-1.99-3.9-3.12-2.39,1.85-5,3.4-7.76,4.64-.99-1.78-2.24-3.41-3.7-4.83,3.68-1.27,7.09-3.23,10.05-5.76,1.66-1.28,3.11-2.81,4.29-4.54h-8.34v6.29h-6.25c.19-1.26.27-2.53.24-3.81v-4.54c.02-1.24-.05-2.47-.19-3.7,1.66.15,3.17.19,5.76.19h12.29v-.44c.04-1.01-.04-2.03-.24-3.02h7.02c-.17.98-.25,1.98-.24,2.98v.49h12.78c2.73,0,4.15-.05,5.86-.19-.16,1.23-.22,2.47-.2,3.7v4.64c-.03,1.26.05,2.51.24,3.76h-6.34v-6.34h-15.81c-.63.98-1.17,1.81-1.71,2.49h9.07c1.24.03,2.48-.03,3.7-.19l3.9,3.51c-2.76,2.74-5.71,5.28-8.83,7.61,2.63.94,5.34,1.66,8.1,2.15,3.13.59,6.3.96,9.48,1.12-1.15,1.99-2.02,4.12-2.59,6.34-2.34-.49-3.02-.59-4.64-.98-.05,1.02-.05,1.51-.05,2.59v7.12c-.04,1.55.04,3.1.24,4.64h-6.49v-1.76h-19.32v1.76h-6.34c.15-1.66.24-3.17.24-4.73v-7.08Zm6.1,4.78h19.37v-3.66h-19.37v3.66Zm18.83-8.98c-3.22-.82-6.36-1.95-9.37-3.37-2.73,1.37-5.57,2.5-8.49,3.37h17.86Zm-14.39-13.07c1.54,1.24,3.19,2.33,4.93,3.27,1.59-.96,3.09-2.05,4.49-3.27h-9.42Z"/>
  <path id="_パス_1267" data-name="パス 1267" class="cls-5" d="m436.81,192.54c-1.52,0-3.03.08-4.54.24v-3.37c-.82,1.54-1.47,3.16-1.95,4.83-.9-1.44-1.64-2.98-2.2-4.59.1,3.22.15,5.27.15,6.05v11.42c-.05,2.05.05,4.1.29,6.14h-6.44c.15-1.61.29-3.7.29-6.14v-9.91c.05-.63.05-.73.1-2.29.05-.88.05-.93.1-2-.98,3.46-2.44,6.76-4.34,9.81-.61-2.48-1.53-4.87-2.73-7.12,1.88-2.35,3.38-4.99,4.44-7.81.78-1.91,1.38-3.88,1.81-5.9h-1.81c-1.06-.04-2.13.04-3.17.24v-6.14c1.04.21,2.11.29,3.17.24h2.39v-3.51c.04-1.7-.06-3.39-.29-5.07h6.44c-.2,1.67-.28,3.35-.24,5.03v3.56h1.17c.88.02,1.77-.04,2.64-.2v6.05c-.87-.14-1.75-.21-2.64-.19h-1.02c.88,2.27,2.19,4.36,3.85,6.14v-.78c1.75.2,3.51.28,5.27.24h5.22v-2.2h-4.1c-1.58-.06-3.16,0-4.73.2v-5.02c1.54.16,3.09.23,4.63.19h4.2v-2.1h-4.83c-1.61-.03-3.22.04-4.83.2v-5.42c1.55.19,3.12.28,4.68.24-.66-1.56-1.53-3.02-2.59-4.34l5.61-1.81c1.23,1.94,2.28,4,3.12,6.14h3.66c1.2-1.89,2.12-3.95,2.73-6.1l6.29,1.51c-.76,1.58-1.63,3.11-2.59,4.59h1.41c1.69.03,3.39-.05,5.07-.24v5.46c-1.65-.2-3.31-.28-4.98-.24h-6.88v2.1h5.41c1.71.03,3.42-.03,5.12-.19v5.02c-1.7-.17-3.41-.23-5.12-.2h-5.41v2.2h7.17c2.1,0,3.85-.1,5.42-.24v5.51c-1.81-.15-3.66-.24-5.32-.24h-6.88c.62,1.79,1.53,3.47,2.68,4.98,1.56-1.44,2.92-3.08,4.05-4.88l4.63,3.17c-1.55,2.03-3.28,3.9-5.17,5.61,2.06,1.92,4.44,3.48,7.03,4.59-1.51,1.75-2.78,3.71-3.76,5.81-4.46-2.67-7.97-6.66-10.05-11.42.1,1.71.15,2.54.15,3.27v5.42c0,2.93-1.85,4-6.73,4-.54,0-1.22-.05-3.32-.15-.14-1.99-.64-3.94-1.46-5.76,1.4.24,2.82.37,4.25.39,1.12,0,1.41-.2,1.41-1.12v-13.9h-5.96Zm-7.17,12c2.27-.83,4.42-1.97,6.39-3.37-1.14-1.9-2.48-3.66-4-5.27l4.2-3.02c2.08,2.11,3.9,4.47,5.42,7.02l-1.51,1.07,1.46,2.78c-.93.81-1.9,1.56-2.93,2.24q-2.73,1.85-4.49,3.12c-.69.45-1.36.94-2,1.46l-2.54-6.05Z"/>
  <path id="_パス_1268" data-name="パス 1268" class="cls-5" d="m438.37,249.57c-2.73,6.2-5.95,9.07-10.15,9.07-6.05,0-10.34-5.9-10.34-14.29-.09-5.35,1.87-10.53,5.46-14.49,4.2-4.59,10.2-7.03,17.17-7.03,12.25,0,20.05,7.32,20.05,18.73,0,8.88-4.44,15.76-12.24,18.83-2.5.96-5.1,1.63-7.76,2-.74-2.52-1.97-4.88-3.61-6.93,4.34-.34,7.37-1.12,9.66-2.34,4.28-2.45,6.87-7.07,6.73-12,.13-4.07-1.84-7.92-5.22-10.2-1.35-.9-2.92-1.44-4.54-1.56-.7,6.96-2.46,13.77-5.22,20.2m-7.76-17.66c-3.79,3.04-6,7.63-6,12.49,0,3.66,1.56,6.64,3.46,6.64,1.41,0,2.93-1.9,4.49-5.86,1.97-5.05,3.29-10.33,3.9-15.71-2.15.22-4.19,1.07-5.85,2.44"/>
  <path id="_パス_1269" data-name="パス 1269" class="cls-3" d="m344.21,73.16c-1.17-.01-2.35.05-3.51.2v-6.1c1.51.18,3.02.26,4.54.24h6.68c1.5.01,3-.07,4.49-.24v6.1c-1.17-.14-2.34-.21-3.51-.2h-1.07v8.59h.73c1.03.01,2.05-.05,3.07-.2v5.86c-1.02-.1-2.05-.15-3.07-.15h-.73v8.29c1.66-.68,2.34-.98,4.39-2l.1,6.14c-4,2-6.93,3.27-13.61,6-.35.14-.69.31-1.02.49l-1.51-6.59c1.92-.4,3.79-.97,5.61-1.71v-10.63h-1.12c-1.13-.02-2.25.05-3.37.19v-5.9c1.16.15,2.34.22,3.51.2h.98v-8.59h-1.56Zm23.47,26.74h-5.02c-1.76-.05-3.52.02-5.27.2v-5.9c1.73.18,3.48.25,5.22.2h5.07v-3.46h-4.49c-3.22,0-4.44.05-5.81.15.23-2.07.31-4.16.24-6.24v-11.37c.07-2.25-.03-4.5-.29-6.73,2.25.2,4.52.28,6.78.24h13.71c2.12.08,4.24,0,6.34-.24-.15,1.41-.24,3.85-.24,6.93v10.73c-.06,2.23.02,4.46.24,6.68-1.69-.15-3.38-.2-5.07-.15h-5.61v3.46h5.71c1.78.06,3.55-.03,5.32-.24v6c-1.75-.21-3.51-.29-5.27-.24h-5.76v3.76h7.27c1.78.05,3.55-.03,5.32-.24v6.14c-1.92-.25-3.87-.35-5.81-.29h-19.86c-1.99-.05-3.98.05-5.95.29v-6.14c1.7.21,3.41.29,5.12.24h8.1v-3.75Zm-4.25-23.37h4.25v-3.95h-4.25v3.95Zm0,8.98h4.25v-4.05h-4.25v4.05Zm10.05-8.98h4.4v-3.95h-4.39v3.95Zm0,8.98h4.4v-4.05h-4.39v4.05Z"/>
  <path id="_パス_1270" data-name="パス 1270" class="cls-3" d="m356.16,127.46c1.71,2.73,3.41,4.25,6.98,6.2-1.24,1.71-2.21,3.61-2.88,5.61-1.94-1.57-3.66-3.39-5.12-5.41.1,1.85.2,3.8.2,4.68v2.15c-.03,1.29.03,2.58.19,3.85h-6.29c.18-1.26.26-2.53.24-3.81v-2.05c0-1.17.05-1.95.2-4.54-1.68,3.1-3.86,5.9-6.44,8.29-.92-1.95-2.07-3.78-3.42-5.46,2.03-1.32,3.84-2.95,5.37-4.83,1.18-1.44,2.19-3.01,3.02-4.68h-2.2c-1.58-.03-3.16.04-4.73.2v-6.1c1.62.21,3.25.3,4.88.24h3.32v-1.66c0-1.21-.08-2.42-.24-3.61h6.34c-.2,1.26-.28,2.53-.24,3.8v1.46h2.48c1.39.03,2.77-.05,4.15-.24v6.1c-1.34-.14-2.7-.2-4.05-.2h-1.76Zm-15.76,29.08c2.73-3.76,3.66-5.81,4.88-11.12l5.42,2.44c-1.56,6.05-2.05,7.32-4.98,12.49l-5.32-3.8Zm18.44-2.68c0,1.41.63,1.61,5.32,1.61,3.51,0,4.68-.15,5.27-.73.44-.44.63-1.71.73-4.49,1.96.87,4.06,1.39,6.2,1.56-.63,8.83-1.46,9.46-12.34,9.46-4.44,0-6.34-.1-7.81-.49-2.83-.68-3.61-1.66-3.61-4.64v-5.8c.04-1.57-.04-3.13-.24-4.68h6.73c-.23,1.55-.31,3.12-.24,4.68v3.51Zm4.34-10.15v-.29c.11-1.3.16-2.6.15-3.9v-17.22c.02-1.48-.04-2.96-.19-4.44,1.51.15,3.02.21,4.54.2h11.47c1.5.02,3-.05,4.49-.2-.15,1.47-.21,2.96-.2,4.44v17.27c-.02,1.56.05,3.13.2,4.68-.78-.05-1.17-.05-1.71-.05-.81,0-1.63-.02-2.44-.1h-13.51c1.68,1.79,3.23,3.7,4.64,5.71l-5.07,3.32c-1.56-2.75-3.44-5.31-5.61-7.61l3.27-1.8Zm6.05-18.15h8.29v-2.39h-8.29v2.39Zm0,6.78h8.29v-2.39h-8.29v2.39Zm0,6.73h8.29v-2.34h-8.29v2.34Zm11.32,20.73c-1.71-4.29-3.94-8.35-6.63-12.1l5.46-2.64c2.64,3.57,4.94,7.38,6.88,11.37l-5.71,3.37Z"/>
  <path id="_パス_1271" data-name="パス 1271" class="cls-5" d="m362.36,198.35c-2.73,6.2-5.95,9.07-10.15,9.07-6.05,0-10.34-5.9-10.34-14.29-.09-5.35,1.87-10.53,5.46-14.49,4.2-4.59,10.2-7.03,17.17-7.03,12.25,0,20.05,7.32,20.05,18.73,0,8.88-4.44,15.76-12.25,18.83-2.5.96-5.1,1.63-7.76,2-.74-2.52-1.97-4.88-3.61-6.93,4.34-.34,7.37-1.12,9.66-2.34,4.28-2.45,6.87-7.07,6.73-12,.13-4.07-1.84-7.92-5.22-10.2-1.35-.9-2.92-1.44-4.54-1.56-.7,6.96-2.46,13.77-5.22,20.2m-7.76-17.66c-3.79,3.04-6,7.63-6,12.49,0,3.66,1.56,6.64,3.46,6.64,1.41,0,2.93-1.9,4.49-5.86,1.97-5.05,3.29-10.33,3.9-15.71-2.15.22-4.19,1.07-5.85,2.44"/>
  <path id="_パス_1272" data-name="パス 1272" class="cls-5" d="m283.47,79.7c-.41,1.08-.75,2.19-1.02,3.32-1.22,4.99-3.23,9.75-5.95,14.1-2.07,3.34-4.65,6.34-7.66,8.88-1.46-1.96-3.17-3.74-5.07-5.27,2.56-1.87,4.83-4.1,6.73-6.63,2.67-3.38,4.57-7.31,5.56-11.51h-5.41c-1.66-.02-3.33.08-4.98.29v-6.83c1.79.26,3.61.36,5.42.29h5.07c1.4.05,2.81-.03,4.2-.24l3.12,3.61Zm24.64-3.02c-1.02,1.12-1.12,1.22-2.68,3.02-2.61,2.94-5.45,5.66-8.49,8.15,3.5,4.97,8.13,9.03,13.51,11.85-1.82,1.94-3.36,4.13-4.59,6.49-2.83-1.9-5.42-4.15-7.71-6.68-3.16-3.64-5.73-7.76-7.61-12.2.15,4.05.19,6.34.19,6.88l.05,10.34c0,2.24-.34,3.41-1.32,4.29-.93.83-2.64,1.26-5.17,1.26-2,0-4.54-.1-6.54-.24-.11-2.26-.65-4.48-1.61-6.54,2.1.3,4.22.48,6.34.54,1.46,0,1.76-.2,1.76-1.12v-31.85c.03-1.75-.08-3.49-.34-5.22h7.22c-.26,1.74-.37,3.51-.34,5.27v3.51c.56,2.79,1.53,5.49,2.88,8,3.46-2.84,6.35-6.31,8.49-10.25l5.95,4.49Z"/>
  <path id="_パス_1273" data-name="パス 1273" class="cls-5" d="m303.28,158.78c-.7-.81-1.47-1.56-2.29-2.24-2.65-2.28-5.6-4.17-8.78-5.61.04.26.05.52.05.78,0,5.61-3.7,8.29-11.51,8.29s-11.61-2.98-11.61-8.24,5.22-8.73,13.9-8.73c.83,0,1.41.05,2.44.1l-.1-3.9c-1.37,0-3.27.05-4.29.05-3.17,0-4.83-.05-9.27-.29-.68-.05-1.12-.05-1.95-.05l.05-6.24c3.74.59,7.53.85,11.32.78,1.03,0,2.73,0,4.05-.05l-.05-2.83v-1.22c-1.26.05-1.85.05-2.59.05-1.85,0-6-.15-12.34-.49-.59-.05-1.02-.05-1.22-.05-.26,0-.52.01-.78.05l.1-6.49c2.68.68,7.71,1.07,13.37,1.07.59,0,2.1-.05,3.37-.1.09-1.92-.01-3.85-.29-5.76h7.37c-.29,1.37-.29,1.76-.39,5.51,6.59-.34,10.63-.88,14-1.76l.2,6.39c-1.36.06-2.71.21-4.05.44-3.8.49-6.88.78-10.2.93.05,1.9.05,3.22.05,4,4.32-.14,8.62-.69,12.83-1.66l.2,6.39c-.34,0-.69.03-1.02.1-.1,0-.39.05-.83.05q-.68.1-3.61.39c-2.34.24-5.51.49-7.46.59.05,2.64.15,4.34.15,5.07,4.59,1.37,7.95,3.07,13.37,6.78.78.54,1.07.73,1.81,1.17l-3.95,6.73Zm-21.32-9.9c-3.41,0-5.51,1.07-5.51,2.83,0,1.51,1.71,2.44,4.59,2.44,3.32,0,4.54-1.02,4.54-3.85,0-.39-.05-.98-.05-.98-1.16-.31-2.36-.46-3.56-.44"/>
  <path id="_パス_1274" data-name="パス 1274" class="cls-5" d="m264.5,197.13c1.12-.78,2.73-2.2,8.83-7.76,0-1.46,0-1.71.15-6.24-2.42.09-4.83.31-7.22.68l-.39-6.48c.78.05,1.17.05,1.66.05,1.32,0,3.7-.1,6.14-.24.09-1.23.13-2.47.1-3.7,0-.63.05-1.26.05-1.85v-.39c0-.75-.06-1.5-.15-2.24l7.42.05c-.45,2.46-.67,4.96-.63,7.46l2.93,2.54c-1.23.99-2.33,2.14-3.27,3.41-.04.14-.05.29-.05.44v.93c0,.18-.01.36-.05.54,5.27-4.15,9.71-5.9,14.88-5.9,3.64.02,7.13,1.47,9.71,4.05,2.69,2.88,4.13,6.7,4,10.63.12,4.57-1.69,8.97-4.98,12.15-2.93,2.63-7.12,4.05-12,4.05-2.39,0-4.77-.32-7.07-.97.05-2.48-.32-4.95-1.07-7.32,2.65.99,5.46,1.52,8.29,1.56,5.85,0,9.71-3.85,9.71-9.66,0-4.83-3.02-7.85-7.81-7.85-2.39,0-4.68.78-7.81,2.59-2.11,1.23-4.08,2.7-5.85,4.39v4.73c0,6.49.2,12.88.39,15.22l-7.51-.05c.24-1.46.29-2.83.29-7.51v-3.95c0-1.41.05-2.24.1-2.83q-1.71,1.85-3.51,3.76c-.71.76-1.38,1.56-2,2.39l-3.27-6.65Z"/>
  <path id="_パス_1275" data-name="パス 1275" class="cls-5" d="m280.35,220.4c-.73,2.2-1.17,4.63-2.15,12.05,1.01-2.41,2.48-4.6,4.34-6.44,2.15-2.11,5.03-3.32,8.05-3.37,4.05,0,7.56,2.15,9.86,6.1,1.85,3.22,2.63,6.68,2.63,11.85,0,9.81-4.49,16.78-13.17,20.44-3.24,1.27-6.61,2.17-10.05,2.68-.73-2.52-1.87-4.91-3.37-7.07,13.66-1.07,19.32-6,19.32-16.83,0-6.54-2.15-10.2-6-10.2-1.87.06-3.64.89-4.88,2.29-4.13,4.2-6.39,9.87-6.29,15.76v.73l-6.98.1c.04-.26.05-.52.05-.78q0-.2-.05-2.78c-.05-1.76-.1-3.22-.1-4.25,0-4.15.29-9.51.68-13.03.34-3.07.54-5.03.63-5.9.08-.57.11-1.14.1-1.71l7.37.34Z"/>
  <path id="_パス_1276" data-name="パス 1276" class="cls-5" d="m264.35,295.04c2.2-1.56,4.25-3.9,11.03-12.49,2.44-3.07,4.64-4.44,7.17-4.44,1.65.04,3.23.64,4.49,1.71,1.15,1.01,2.21,2.12,3.17,3.32,4.39,5.26,9.12,10.23,14.15,14.88,2.83,2.68,4.29,3.85,6.05,4.83l-3.61,8.2c-.5-.56-1.04-1.08-1.61-1.56-4.05-3.61-9.46-9.12-14.2-14.34q-1.07-1.22-4.39-5.07-.54-.63-2.05-2.39c-.88-.97-1.37-1.26-2.05-1.26q-.83,0-4.78,5.32c-2.29,3.03-4.98,6.29-7.51,9.12-.44.46-.84.95-1.22,1.46l-4.63-7.27Z"/>
  <g class="cls-1">
    <rect id="_長方形_172" data-name="長方形 172" class="cls-3" x="540.67" y="184.96" width="142.75" height="11.04"/>
  </g>
  <g class="cls-6">
    <rect id="_長方形_174" data-name="長方形 174" class="cls-3" x="550.14" y="246.32" width="119.88" height="11.04"/>
  </g>
  <g class="cls-9">
    <rect id="_長方形_176" data-name="長方形 176" class="cls-3" x="585.63" y="133.54" width="51.26" height="11.04"/>
  </g>
  <path id="_パス_1277" data-name="パス 1277" class="cls-5" d="m589.56,124.99c1.32.71,2.53,1.61,3.6,2.66l-1.61,1.86c-1.08-1.09-2.29-2.04-3.6-2.84l1.61-1.68Zm2.95,7.27c-.41,1.9-1,3.75-1.74,5.54-.23.61-.49,1.21-.78,1.79l-2.04-1.81c.92-1.14,1.92-3.71,2.59-6.66l1.97,1.14Zm-2.24-12.92c1.26.79,2.39,1.76,3.35,2.88l-1.68,1.77c-.96-1.19-2.1-2.23-3.38-3.06l1.7-1.59Zm9.55,18.42c-.51-.67-1.09-1.28-1.74-1.81v1.77c-.01.68.03,1.36.11,2.04h-2.39c.08-.74.11-1.47.11-2.21v-6.46c0-.74,0-1.07-.05-1.65-.31,4.7-1.12,7.85-2.62,10.37-.53-.65-1.18-1.18-1.92-1.57,1.94-3.44,2.48-6.73,2.48-15.2,0-1.92-.02-2.46-.09-3.24.82.07,1.64.1,2.46.09h9.77c.71.01,1.42-.02,2.12-.09-.07.55-.1,1.1-.09,1.65v2.1c-.01.55.02,1.09.09,1.63-.49-.05-1.23-.07-2.08-.07h-10.02l-.02,1.12h10.47c.74.02,1.48-.01,2.21-.11v2.15c-.73-.09-1.47-.13-2.21-.11h-3.51v1.07h3.2c.66.02,1.33-.02,1.99-.09-.07.7-.1,1.4-.09,2.1v6.39c0,1.59-.47,2.01-2.24,2.01-.31,0-1.05-.05-1.54-.07-.03-.66-.19-1.3-.47-1.9.49.07.98.12,1.48.13.56,0,.69-.07.69-.4v-4.2l-1.05,1.14c-.57-.67-1.24-1.27-1.97-1.77v2.75l1.01-.94c.73.48,1.39,1.05,1.97,1.7l-1.16,1.19c-.51-.67-1.12-1.25-1.81-1.72v2.33c-.01.57.02,1.14.09,1.7h-2.21c.07-.57.1-1.15.09-1.72v-1.21l-1.05,1.11Zm1.05-9.61h-4.94c-.02.42-.02.47-.04,1.03.38.02.89.05,1.68.05h3.31v-1.07Zm-4.88-4.97h9.64v-1.27h-9.64v1.27Zm4.88,7.85h-2.79v1.34l1.05-.92c.67.45,1.26,1.01,1.74,1.65v-2.08Zm-1.14,3.33c-.47-.65-1.03-1.23-1.65-1.72v2.86l.94-.83c.7.5,1.32,1.09,1.86,1.77v-3.17l-1.14,1.1Zm4.16-2.93c.76.45,1.45,1.02,2.04,1.68v-2.08h-3.02v1.36l.98-.96Z"/>
  <path id="_パス_1278" data-name="パス 1278" class="cls-5" d="m620.1,125.72c-.18.49-.34.99-.47,1.5-.58,2.26-1.54,4.41-2.84,6.35-.92,1.45-2.06,2.75-3.38,3.84-.6-.74-1.32-1.37-2.12-1.88,1.24-.88,2.33-1.95,3.24-3.18,1.26-1.62,2.16-3.49,2.66-5.48h-2.82c-.75-.01-1.49.03-2.24.13v-2.73c.79.1,1.59.13,2.39.11h2.35c.66.02,1.31-.01,1.97-.09l1.25,1.41Zm11.07-1.43s-.43.47-1.19,1.32c-1.23,1.37-2.57,2.63-4,3.78.75,1.06,1.61,2.05,2.55,2.95,1.15,1.12,2.46,2.05,3.89,2.77-.74.72-1.38,1.53-1.92,2.41-1.41-.94-2.7-2.06-3.82-3.33-1.5-1.74-2.7-3.72-3.53-5.86.09,2.23.11,2.75.11,3.49l.02,5.34c0,1.01-.16,1.45-.58,1.81-.63.42-1.39.6-2.15.51-.83,0-2.04-.07-2.91-.13-.06-.89-.28-1.75-.63-2.57.96.16,1.93.25,2.91.27.67,0,.8-.09.8-.56v-14.78c.01-.79-.04-1.57-.16-2.35h2.84c-.12.78-.17,1.58-.16,2.37v1.57c.26,1.42.76,2.79,1.48,4.05,1.69-1.33,3.1-2.98,4.16-4.85l2.28,1.79Z"/>
  <path id="_パス_1279" data-name="パス 1279" class="cls-5" d="m546.21,190.8c.11-.83.16-1.67.13-2.5v-14.33c.02-.76-.03-1.53-.13-2.28h3.06c-.09.78-.12,1.56-.09,2.35v4.16c3.51,1.28,6.91,2.86,10.15,4.72l-1.57,2.64c-2.51-1.65-5.16-3.07-7.91-4.27-.26-.11-.51-.24-.76-.38.06.5.09,1.01.09,1.52v5.9c-.01.83.02,1.66.09,2.48h-3.07Z"/>
  <path id="_パス_1280" data-name="パス 1280" class="cls-5" d="m583.42,173.43c-.29.24-.57.51-.83.78-1.62,1.69-3.38,3.23-5.28,4.61v9.55c-.02.83.01,1.66.11,2.48h-3.13c.12-.8.17-1.61.13-2.42v-7.87c-2.5,1.53-5.18,2.74-7.98,3.62-.34-.93-.85-1.79-1.5-2.55,4.27-1.13,8.26-3.1,11.74-5.81,1.61-1.15,3.01-2.57,4.16-4.18l2.57,1.79Z"/>
  <path id="_パス_1281" data-name="パス 1281" class="cls-5" d="m594.88,172.22c-.09.75-.14,1.5-.13,2.26l-.11,12.77c2.18-.39,4.26-1.23,6.1-2.46,1.94-1.28,3.52-3.04,4.56-5.12.59.86,1.31,1.63,2.12,2.28-1.26,2.08-2.96,3.86-4.99,5.21-2.46,1.59-5.24,2.64-8.14,3.06-.46.08-.91.21-1.34.38l-1.43-1.72c.18-.75.25-1.53.2-2.3l.09-12.07c.04-.77,0-1.54-.11-2.3l3.17.02Z"/>
  <path id="_パス_1282" data-name="パス 1282" class="cls-5" d="m621.31,184.58c-1.27,2.88-2.71,4.2-4.54,4.2-2.55,0-4.38-2.59-4.38-6.19-.02-2.4.86-4.72,2.46-6.5,1.99-2.1,4.8-3.25,7.69-3.13,5.36,0,8.85,3.26,8.85,8.3.14,3.65-2.04,6.99-5.43,8.34-1.13.46-2.31.77-3.51.94-.27-.96-.73-1.85-1.36-2.62,1.55-.12,3.06-.53,4.45-1.23,1.98-1.15,3.17-3.3,3.11-5.59.06-2.03-.99-3.94-2.75-4.96-.69-.4-1.46-.63-2.26-.67-.33,3.14-1.11,6.21-2.33,9.12m-3.29-8c-1.92,1.41-3.05,3.66-3.04,6.04,0,1.83.78,3.29,1.77,3.29.74,0,1.5-.94,2.3-2.86.95-2.43,1.57-4.97,1.86-7.56-1.04.09-2.04.47-2.88,1.1"/>
  <path id="_パス_1283" data-name="パス 1283" class="cls-5" d="m650.1,181.23c-.81,1.54-1.82,2.96-3,4.25,2.26,1.72,4.7,2.77,8.59,3.64-.54.75-.95,1.59-1.21,2.48-4.18-1.16-6.68-2.37-9.17-4.43-2.63,2.06-5.64,3.59-8.85,4.52-.27-.85-.69-1.64-1.23-2.35,3.01-.69,5.85-1.99,8.34-3.82-1.19-1.31-2.18-2.79-2.95-4.38l2.01-1.3c.11.2.18.38.22.47.64,1.31,1.48,2.52,2.48,3.58.62-.62,1.16-1.31,1.61-2.06.42-.63.77-1.3,1.03-2.01l2.12,1.41Zm-6.71-4.07c-.86,1.31-1.89,2.49-3.06,3.53-1.02.95-2.12,1.8-3.29,2.55-.45-.74-1.02-1.39-1.68-1.95,2.42-1.18,4.47-3.01,5.9-5.3l2.12,1.16Zm.56-4.56c0-.54-.04-1.08-.13-1.61h2.77c-.1.53-.15,1.07-.13,1.61v.78h6.06c.93.02,1.85-.03,2.77-.13v2.55c-.93-.11-1.88-.15-2.82-.13h-14.22c-.93-.02-1.87.03-2.79.13v-2.55c.93.11,1.86.15,2.79.13h5.7v-.78Zm5.1,3.35c.75,1.03,1.64,1.96,2.64,2.75,1.13.89,2.38,1.62,3.71,2.17-.59.64-1.07,1.38-1.43,2.17-1.45-.74-2.8-1.67-4.02-2.75-1.08-.91-2.04-1.96-2.86-3.11l1.97-1.23Z"/>
  <path id="_パス_1284" data-name="パス 1284" class="cls-5" d="m673.13,186.42c1.41,1.72,2.82,2.39,6.35,3.04-.42.71-.74,1.47-.96,2.26-1.54-.32-3.01-.91-4.34-1.74-1.03-.59-1.9-1.42-2.55-2.41-.64,1.03-1.52,1.89-2.57,2.5-1.36.81-2.86,1.37-4.43,1.65-.26-.77-.61-1.51-1.05-2.19,1.51-.09,2.99-.52,4.32-1.25.79-.44,1.46-1.08,1.92-1.86h-3.31c-.67,0-1.34.02-2.01.09v-2.24c.41.06.83.09,1.25.09v-6.22l-.54.4c-.22-.44-.48-.85-.78-1.23-.27-.02-.58-.05-.85-.05h-.25v3.49c.47-.18.74-.29,1.43-.58v2.21c-.74.31-.89.38-1.43.6v6.31c0,1.77-.56,2.17-3,2.17-.36,0-.63-.02-1.27-.07-.04-.77-.2-1.54-.49-2.26.6.08,1.21.13,1.81.13.49,0,.6-.11.6-.6v-4.83c-.75.2-1.49.45-2.21.74l-.34-2.44c.87-.11,1.72-.31,2.55-.58v-4.29h-.83c-.5,0-1,.03-1.5.09v-2.37c.5.08,1.01.12,1.52.11h.8v-1.81c.02-.77-.03-1.54-.13-2.3h2.59c-.09.76-.13,1.52-.11,2.28v1.83h.22c.39,0,.78-.02,1.16-.07v1.1c1.09-.83,2.03-1.83,2.79-2.97.51-.73.89-1.53,1.12-2.39l2.48.27q-.11.22-.34.74c-.05.09-.11.2-.2.38h2.64c.55.01,1.09-.02,1.63-.09l1.19,1.21c-.2.26-.39.54-.56.83-.43.67-.89,1.31-1.39,1.92h2.12c.94,0,1.39-.02,1.92-.07-.05.58-.07,1.14-.07,2.17v6.24c.58-.02.85-.05,1.21-.09v2.26c-.72-.09-1.44-.13-2.17-.11h-3.98Zm-2.68-2.06c.1-.52.14-1.06.11-1.59l2.3.07q-.09.85-.16,1.52h3.24v-1.97c-.72.02-1.1.04-1.19.04-1.88,0-2.41-.34-2.41-1.43v-2.97h-.98c-.11,3-.6,4.18-2.24,5.61-.4-.44-.84-.83-1.32-1.19v1.9h2.64Zm-2.64-6.33v4.11c.62-.43,1.08-1.05,1.32-1.77.26-.75.38-1.55.36-2.35h-1.68Zm3.67-2.01c.5-.58.94-1.2,1.34-1.86h-3.38c-.43.64-.9,1.26-1.41,1.86h3.44Zm4.47,2.01h-1.72v2.01c0,.49.09.54.94.54.18,0,.36,0,.78-.02v-2.53Z"/>
  <path id="_パス_1285" data-name="パス 1285" class="cls-5" d="m554.02,238.35c1.41.82,2.75,1.78,3.97,2.86l-1.36,2.06c-1.21-1.18-2.56-2.21-4.02-3.06l1.41-1.86Zm3.89,7.67c-.76,2.48-1.78,4.88-3.06,7.14l-2.12-1.86c1.1-1.16,2.19-3.47,3.2-6.71l1.99,1.43Zm-2.93-13.19c1.33.84,2.58,1.81,3.73,2.88l-1.54,1.94c-1.12-1.17-2.38-2.19-3.76-3.04l1.56-1.79Zm15.03,3.26c.82.01,1.63-.03,2.44-.13v2.41c-.74-.07-1.54-.11-2.46-.11h-3.06v3.15h4.05c.79.01,1.58-.03,2.37-.13v2.46c-.77-.1-1.55-.15-2.33-.13h-2.53v6.66c0,.45.2.56,1.1.56s1.27-.09,1.45-.38c.18-.27.25-1.18.29-3.24.72.35,1.49.59,2.28.72-.18,4.72-.54,5.14-4.2,5.14-.91.1-1.83-.06-2.66-.45-.42-.3-.66-.8-.63-1.32v-7.69h-1.88c-.11,2.86-.58,4.63-1.63,6.24-.64.91-1.43,1.7-2.35,2.33-.57.42-1.19.78-1.83,1.07-.38-.8-.92-1.52-1.59-2.1.89-.32,1.72-.78,2.46-1.36,1.72-1.36,2.5-3.18,2.59-6.17h-1.16c-.82,0-1.63.04-2.44.13v-2.46c.75.1,1.5.14,2.26.13h3.98v-3.15h-2.88c-.52,1.09-1.19,2.11-1.99,3.02-.54-.65-1.2-1.19-1.94-1.59,1.64-1.74,2.72-3.93,3.11-6.28l2.39.58q-.09.27-.25.8c-.11.36-.27.85-.42,1.3h1.99v-1.05c.02-.76-.03-1.51-.13-2.26h2.66c-.1.74-.14,1.49-.13,2.24v1.07h3.09Z"/>
  <path id="_パス_1286" data-name="パス 1286" class="cls-5" d="m584.04,237.99c.41-.73.74-1.49,1.01-2.28h-5.7c-.92,0-1.84.04-2.75.13v-2.48c.91.1,1.82.14,2.73.13h14.73c.91,0,1.82-.04,2.73-.13v2.48c-.91-.1-1.82-.14-2.73-.13h-6.28c-.25.79-.58,1.55-.98,2.28h6.68c.88.02,1.76-.02,2.64-.11-.11.96-.16,1.92-.13,2.88v9.73c0,1.02.04,2.03.13,3.04h-2.53v-1.1h-13.77v1.07h-2.53c.11-1.01.16-2.03.13-3.04v-9.73c0-.96-.04-1.91-.13-2.86.88.09,1.76.13,2.64.11h4.12Zm-1.65,2.08h-2.57v10.2h2.57v-10.2Zm2.21,1.99h4.05v-1.99h-4.05v1.99Zm4.05,2.01h-4.05v2.01h4.05v-2.01Zm0,4.02h-4.05v2.17h4.05v-2.17Zm2.24,2.17h2.7v-10.19h-2.7v10.19Z"/>
  <path id="_パス_1287" data-name="パス 1287" class="cls-5" d="m600.32,239.45c.45.05,1.32.09,2.21.09h.98c1.26-1.7,2.36-3.5,3.31-5.39.25-.45.43-.93.56-1.43l2.71.78q-.13.25-.47.85c-.95,1.79-2.03,3.5-3.22,5.14,4.88-.13,5.81-.18,8.5-.45-.94-1.13-1.97-2.17-3.08-3.13l2.17-1.23c2.32,2.15,4.44,4.51,6.31,7.07l-2.21,1.52c-.74-1.12-.98-1.48-1.54-2.21-3.85.47-6.73.65-14.51.92-.43.01-.87.05-1.3.11l-.4-2.64Zm2.15,13.82c.09-.85.14-1.7.13-2.55v-5.05c0-.69-.04-1.39-.11-2.08.77.09,1.55.12,2.33.09h10.67c.78.03,1.57,0,2.35-.09-.09.69-.13,1.38-.11,2.08v5.05c0,.85.04,1.7.13,2.55h-2.55v-1.17h-10.31v1.16h-2.53Zm2.5-3.35h10.35v-4.05h-10.35v4.05Z"/>
  <path id="_パス_1288" data-name="パス 1288" class="cls-5" d="m638.37,242.98c-.81,1.54-1.82,2.96-3,4.25,2.26,1.72,4.7,2.77,8.59,3.64-.54.75-.95,1.59-1.21,2.48-4.18-1.16-6.68-2.37-9.17-4.43-2.63,2.06-5.64,3.59-8.85,4.52-.27-.85-.69-1.64-1.23-2.35,3.01-.69,5.85-1.99,8.34-3.82-1.19-1.31-2.18-2.79-2.95-4.38l2.01-1.3c.11.2.18.38.22.47.64,1.31,1.48,2.52,2.48,3.58.62-.62,1.16-1.31,1.61-2.06.42-.63.77-1.3,1.03-2.01l2.12,1.41Zm-6.71-4.07c-.86,1.31-1.89,2.49-3.06,3.53-1.02.95-2.12,1.8-3.29,2.55-.45-.74-1.01-1.39-1.68-1.95,2.42-1.18,4.47-3.01,5.9-5.3l2.12,1.16Zm.56-4.56c0-.54-.04-1.08-.13-1.61h2.77c-.1.53-.15,1.07-.13,1.61v.78h6.06c.93.02,1.85-.03,2.77-.13v2.55c-.93-.11-1.88-.15-2.82-.13h-14.22c-.93-.02-1.87.03-2.79.13v-2.55c.93.11,1.86.15,2.79.13h5.7v-.78Zm5.1,3.35c.75,1.03,1.64,1.96,2.64,2.75,1.13.89,2.38,1.62,3.71,2.17-.59.64-1.07,1.38-1.43,2.17-1.45-.74-2.8-1.67-4.02-2.75-1.08-.91-2.04-1.96-2.86-3.11l1.97-1.23Z"/>
  <path id="_パス_1289" data-name="パス 1289" class="cls-5" d="m661.39,248.17c1.41,1.72,2.82,2.39,6.35,3.04-.42.71-.75,1.47-.96,2.26-1.54-.32-3.01-.91-4.34-1.74-1.03-.59-1.9-1.42-2.55-2.41-.64,1.03-1.52,1.89-2.57,2.5-1.36.81-2.86,1.37-4.43,1.65-.26-.77-.61-1.51-1.05-2.19,1.51-.09,2.99-.52,4.32-1.25.79-.44,1.46-1.08,1.92-1.86h-3.31c-.67,0-1.34.02-2.01.09v-2.24c.41.06.83.09,1.25.09v-6.22l-.54.4c-.22-.44-.48-.85-.78-1.23-.27-.02-.58-.04-.85-.04h-.25v3.49c.47-.18.74-.29,1.43-.58v2.21c-.74.31-.89.38-1.43.6v6.31c0,1.77-.56,2.17-3,2.17-.36,0-.63-.02-1.27-.07-.04-.77-.2-1.54-.49-2.26.6.08,1.21.13,1.81.13.49,0,.6-.11.6-.6v-4.83c-.75.2-1.49.45-2.21.74l-.34-2.44c.87-.11,1.72-.31,2.55-.58v-4.29h-.83c-.5,0-1,.03-1.5.09v-2.37c.5.08,1.01.12,1.52.11h.8v-1.81c.02-.77-.03-1.54-.13-2.3h2.59c-.09.76-.13,1.52-.11,2.28v1.83h.22c.39,0,.78-.02,1.16-.07v1.1c1.09-.83,2.03-1.83,2.79-2.97.51-.72.89-1.53,1.12-2.39l2.48.27q-.11.22-.34.74c-.05.09-.11.2-.2.38h2.64c.55.01,1.09-.02,1.63-.09l1.19,1.21c-.2.26-.39.54-.56.83-.43.67-.89,1.31-1.39,1.92h2.12c.94,0,1.39-.02,1.92-.07-.05.58-.07,1.14-.07,2.17v6.24c.58-.02.85-.05,1.21-.09v2.26c-.72-.09-1.44-.13-2.17-.11h-3.98Zm-2.68-2.06c.1-.52.14-1.06.11-1.59l2.3.07q-.09.85-.16,1.52h3.24v-1.97c-.72.02-1.1.04-1.19.04-1.88,0-2.41-.34-2.41-1.43v-2.97h-.98c-.11,3-.6,4.18-2.24,5.61-.4-.44-.84-.83-1.32-1.19v1.9h2.64Zm-2.64-6.33v4.12c.62-.43,1.08-1.05,1.32-1.77.26-.75.38-1.55.36-2.35h-1.68Zm3.67-2.01c.5-.58.94-1.2,1.34-1.86h-3.38c-.43.64-.9,1.26-1.41,1.86h3.44Zm4.47,2.01h-1.72v2.01c0,.49.09.54.94.54.18,0,.36,0,.78-.02v-2.53Z"/>
  <g class="cls-8">
    <rect id="_長方形_178" data-name="長方形 178" class="cls-3" x="90.83" y="185.93" width="97" height="11.04"/>
  </g>
  <g class="cls-7">
    <rect id="_長方形_180" data-name="長方形 180" class="cls-3" x="79" y="247.29" width="119.88" height="11.04"/>
  </g>
  <g class="cls-10">
    <rect id="_長方形_182" data-name="長方形 182" class="cls-3" x="80.57" y="134.51" width="118.3" height="11.04"/>
  </g>
  <path id="_パス_1290" data-name="パス 1290" class="cls-5" d="m82.2,122.19c.59.09,1.19.13,1.79.11h4.47c.6.02,1.2-.01,1.79-.09v2.3c-.56-.08-1.13-.11-1.7-.09h-4.56c-.6,0-1.2.02-1.79.09v-2.32Zm.72-3.13c.61.09,1.24.13,1.86.11h3.31c.62.02,1.24-.02,1.86-.11v2.17c-.62-.07-1.24-.1-1.86-.09h-3.31c-.62-.01-1.24.02-1.86.09v-2.17Zm.07,20.1c.07-.72.11-1.44.11-2.17v-3.31c0-.6-.02-1.19-.09-1.79.57.07,1.15.1,1.72.09h3.78c.5.03,1,0,1.5-.07-.02.45-.05.8-.05,1.63v3.58c0,.58.02,1.17.09,1.74h-2.21v-.76h-2.57v1.05h-2.28Zm.07-13.55c.49.05.98.07,1.48.07h3.97c.48,0,.96-.01,1.43-.07v2.08c-.48-.05-.95-.07-1.43-.07h-3.97c-.49,0-.99.02-1.48.07v-2.08Zm0,3.11c.49.05.98.07,1.48.07h3.97c.48,0,.96-.01,1.43-.07v2.1c-.49-.05-.98-.07-1.48-.07h-3.96c-.49,0-.97.02-1.45.07v-2.1Zm2.21,7.42h2.57v-2.21h-2.57v2.21Zm10.06-15.85c0-.57-.04-1.14-.13-1.7h2.62c-.1.58-.14,1.16-.13,1.74v1.32h2.86c.78.02,1.56-.02,2.33-.13v2.42c-.76-.1-1.53-.14-2.3-.13h-2.88v2.62h2.39c.79,0,1.58-.04,2.37-.13v2.35c-.77-.09-1.55-.13-2.33-.11h-6.89c-.78,0-1.55.03-2.33.11v-2.33c.77.09,1.55.13,2.33.11h2.1v-2.62h-2.21c-.81-.02-1.61.01-2.42.11v-2.39c.78.11,1.58.16,2.37.13h2.26v-1.37Zm-1.43,18.8h-2.44c.09-.73.13-1.46.11-2.19v-4.61c.02-.72-.01-1.43-.09-2.15.66.07,1.32.1,1.99.09h6.22c.66.02,1.31-.01,1.97-.09-.08.71-.11,1.43-.09,2.15v4.4c0,.8.03,1.6.11,2.39h-2.47v-1.03h-5.3v1.03Zm-.02-3.18h5.33v-3.56h-5.32v3.56Z"/>
  <path id="_パス_1291" data-name="パス 1291" class="cls-5" d="m123.34,137.61c-1.19-1.25-2.59-2.29-4.14-3.06-.39-.21-.79-.4-1.21-.56v.25c.11,1.15-.36,2.28-1.25,3.02-1.09.72-2.39,1.05-3.69.96-3.26,0-5.14-1.27-5.14-3.49,0-2.44,2.21-3.87,5.97-3.87.5,0,1,.03,1.5.09,0-.18,0-.36-.02-.54v-.49q-.02-.31-.05-1.21c-1.07.02-1.77.04-2.24.04-1.36,0-2.19-.02-4.05-.16-.29-.02-.51-.02-.85-.02l.05-2.41c1.72.28,3.47.41,5.21.38.45,0,1.21-.02,1.83-.05,0-.2,0-.96-.02-2.24-.72.02-1.07.02-1.41.02-1.1,0-3.98-.11-5.48-.22-.25-.02-.42-.02-.49-.02h-.36l.02-2.48c1.98.36,4,.52,6.01.47.36,0,1.12-.02,1.68-.05.05-.94,0-1.88-.11-2.82h2.84c-.14.9-.19,1.82-.16,2.73,2.17-.05,4.33-.34,6.44-.85l.11,2.48c-.59.03-1.18.1-1.77.2-1.97.27-2.84.34-4.81.45.02.56.02.83.05,2.21q1.12-.07,3.18-.29c.94-.09,1.86-.25,2.77-.49l.07,2.46c-.38.02-.94.09-1.45.16-.34.04-1.34.16-3.02.31-.31.02-.65.04-1.52.09q.07,2.17.09,2.71c2.21.69,4.28,1.76,6.13,3.15.38.25.49.34.8.51l-1.52,2.61Zm-9.77-4.54c-1.81,0-2.91.58-2.91,1.54,0,.83.96,1.34,2.55,1.34.72.08,1.45-.18,1.95-.72.21-.45.31-.94.27-1.43v-.54c-.61-.14-1.23-.21-1.86-.2"/>
  <path id="_パス_1292" data-name="パス 1292" class="cls-5" d="m136.17,119.1c-.41,1.41-.68,2.85-.8,4.32-.16.94-.25,1.7-.29,2.24h.07c.05-.16.1-.33.13-.49.32-.96.79-1.86,1.41-2.66.97-1.39,2.55-2.24,4.25-2.28,1.53,0,2.95.76,3.82,2.01,1.12,1.5,1.61,3.31,1.61,5.95,0,4.32-2.01,7.53-5.77,9.19-1.41.59-2.88,1.01-4.38,1.25-.28-.95-.73-1.84-1.32-2.64,1.7-.1,3.36-.53,4.9-1.27,2.59-1.32,3.78-3.44,3.78-6.84,0-3.22-1.07-5.01-3-5.01-.94.04-1.81.47-2.41,1.19-1.81,1.97-2.81,4.55-2.82,7.22v.47l-2.68.05c.02-.1.02-.19.02-.29v-.42c-.02-.65-.07-2.3-.07-2.75,0-1.81.13-4.29.31-5.84l.34-2.77c.04-.25.06-.51.07-.76l2.84.16Z"/>
  <path id="_パス_1293" data-name="パス 1293" class="cls-5" d="m154.7,130.17c0-1.1.02-1.65.07-2.66-.41.86-.93,1.66-1.54,2.39-.25-.91-.61-1.8-1.07-2.62,2.17-2.52,3.64-5.56,4.25-8.83l2.53.65q-.13.36-.34,1.01c-.45,1.42-1.02,2.8-1.68,4.14v12.3c-.01.9.02,1.79.11,2.68h-2.46c.1-.89.14-1.79.13-2.68v-6.37Zm18.47-7.67c-.65-.07-1.31-.1-1.97-.09-.71,1.33-1.64,2.52-2.75,3.53,1.66.83,3.45,1.35,5.3,1.52-.42.72-.74,1.49-.94,2.3-2.19-.44-4.29-1.28-6.17-2.48-1.55.92-3.22,1.62-4.96,2.08-.24-.68-.57-1.33-.98-1.92,1.5-.28,2.95-.78,4.29-1.5-.69-.64-1.3-1.37-1.81-2.17-.54.64-1.14,1.23-1.79,1.77-.34-.36-.7-.69-1.1-.98v9.01c-.03.76,0,1.53.11,2.28h-2.41c.12-.77.16-1.55.13-2.33v-9.1c.01-.69-.02-1.39-.09-2.08h2.35c-.05.38-.07.65-.09,1.21,1.64-1.35,2.85-3.15,3.47-5.19l2.41.47c-.36.74-.49,1.01-.74,1.5h5.23c.84.03,1.67-.02,2.5-.13v2.3Zm.16,10.78c-.27.22-.54.43-.87.74-3.22,2.82-6.04,4.14-11.16,5.23-.3-.72-.69-1.4-1.16-2.01,2.99-.37,5.87-1.34,8.47-2.86,1.1-.61,2.07-1.44,2.84-2.44l1.88,1.34Zm-5.05-3.8q-.2.13-.8.56c-1.71,1.13-3.61,1.94-5.61,2.39-.27-.64-.65-1.23-1.12-1.74,2.79-.56,4.74-1.36,5.88-2.41l1.65,1.21Zm2.48,1.77c-2.51,2.16-5.51,3.65-8.74,4.36-.24-.69-.6-1.32-1.07-1.88,3.4-.65,6.8-2.26,7.94-3.76l1.88,1.27Zm-6.17-8.83c.56.92,1.28,1.73,2.12,2.39.84-.65,1.54-1.47,2.06-2.39h-4.18Z"/>
  <path id="_パス_1294" data-name="パス 1294" class="cls-5" d="m177.8,121.85c-.56-.01-1.12.02-1.68.11v-2.41c.67.1,1.35.15,2.04.13h3.15c.67.02,1.33-.02,1.99-.13v2.39c-.55-.07-1.1-.1-1.65-.09h-.67v4.36h.51c.47.01.94-.03,1.41-.11v2.28c-.47-.07-.94-.1-1.41-.09h-.51v4.4c.94-.4,1.21-.51,2.19-1.01l.07,2.37c-1.94.96-2.82,1.34-6.28,2.75-.11.04-.22.09-.45.18l-.6-2.53c.94-.21,1.86-.5,2.75-.85v-5.32h-.74c-.51-.01-1.02.03-1.52.11v-2.3c.52.09,1.04.13,1.56.11h.69v-4.36h-.85Zm10.8,12.16h-2.48c-.78-.02-1.55.01-2.33.09v-2.28c.76.1,1.53.14,2.3.11h2.5v-1.83h-2.12c-1.5,0-2.01.02-2.68.07q.04-.51.09-2.77v-5.05c.02-1-.01-2-.11-3,1,.09,2.01.13,3.02.11h6.17c.96.03,1.93,0,2.88-.11-.07.65-.09,1.7-.09,3.06v4.76c0,1.56.02,2.35.09,3-.81-.07-1.63-.09-2.44-.07h-2.57v1.83h2.86c.79.02,1.58-.01,2.37-.11v2.3c-.78-.1-1.56-.13-2.35-.11h-2.88v2.3h3.6c.79.02,1.58-.01,2.37-.11v2.39c-.84-.09-1.68-.13-2.53-.11h-9.41c-.84-.02-1.69.02-2.53.11v-2.39c.75.1,1.5.14,2.26.11h4v-2.3Zm-2.48-10.15h2.48v-2.24h-2.48v2.24Zm0,4.14h2.48v-2.26h-2.48v2.26Zm4.72-4.14h2.59v-2.24h-2.59v2.24Zm0,4.14h2.59v-2.26h-2.59v2.26Z"/>
  <path id="_パス_1295" data-name="パス 1295" class="cls-5" d="m97.52,172.86c0-.73-.04-1.45-.13-2.17h2.59c-.11.72-.16,1.44-.13,2.17v1.41h1.14c.59,0,1.18-.02,1.77-.07-.04.54-.07,1.23-.07,2.3v4.74c-.03.74,0,1.48.07,2.21-.58-.04-.92-.07-1.94-.07h-.98v3.4q.76-.18,1.65-.42c-.16-.51-.31-.85-.67-1.72l1.81-.67c.75,1.73,1.38,3.51,1.88,5.32l-1.97.92c-.2-.98-.29-1.32-.45-1.92-1.68.56-3.69,1.1-6.5,1.74-.58.13-.85.2-1.21.31l-.54-2.5c1.24-.11,2.47-.3,3.69-.56v-3.89h-.83c-.72-.01-1.45.02-2.17.09.07-.78.1-1.56.09-2.35v-4.61c.01-.78-.02-1.57-.09-2.35.72.07,1.44.1,2.17.09h.83v-1.41Zm-.89,8.43h1.03v-4.9h-1.03v4.9Zm4.16-4.9h-1.12v4.9h1.12v-4.9Zm6.71,11.51c0,.63.25.72,2.1.72,1.52,0,1.94-.16,2.12-.72.19-1.03.27-2.08.25-3.13.7.43,1.47.74,2.28.92-.16,2.82-.36,3.78-.94,4.38-.6.6-1.5.78-4,.78-3.49,0-4.14-.31-4.14-1.99v-9.44c0-.34,0-.42-.02-.92h-1.92c.03-.15.04-.3.05-.45,0-.07,0-.25.02-.51,0-.36.02-.72.02-1.01v-1.45c0-.61-.02-1.22-.09-1.83.25.02,1.05.07,2.39.09h1.7v-.98c0-.58-.04-1.17-.13-1.74h2.66c-.1.57-.14,1.14-.13,1.72v1h2.28c1.05,0,1.79-.02,2.46-.09-.07.61-.1,1.22-.09,1.83v1.43c-.01.66.02,1.31.09,1.97h-2.44v-3.02h-6.53v1.7h2.13c-.1.73-.14,1.47-.11,2.21v2.12c.89-.46,1.72-1.01,2.5-1.63.66-.45,1.27-.99,1.81-1.59l1.72,1.81c-.36.25-.47.31-1.07.76-1.53,1.22-3.2,2.27-4.96,3.13v3.92Z"/>
  <path id="_パス_1296" data-name="パス 1296" class="cls-5" d="m118.84,190.23c.12-.94.17-1.89.16-2.84v-12.83c0-.98-.05-1.68-.11-2.46.82.09,1.65.13,2.48.11h12.63c.84.01,1.67-.02,2.5-.11-.09.82-.13,1.64-.11,2.46v12.83c0,.95.04,1.9.13,2.84h-2.79v-1.63h-12.07v1.63h-2.82Zm2.82-4.18h12.07v-11.31h-12.07v11.31Z"/>
  <path id="_パス_1297" data-name="パス 1297" class="cls-5" d="m155.89,180.62c-.81,1.54-1.82,2.96-3,4.25,2.26,1.72,4.7,2.77,8.59,3.64-.54.75-.95,1.59-1.21,2.48-4.18-1.16-6.68-2.37-9.17-4.43-2.63,2.06-5.64,3.59-8.85,4.52-.27-.85-.69-1.64-1.23-2.35,3.01-.69,5.85-1.99,8.34-3.82-1.19-1.31-2.18-2.79-2.95-4.38l2.01-1.3c.11.2.18.38.22.47.64,1.31,1.48,2.52,2.48,3.58.62-.62,1.16-1.31,1.61-2.06.42-.63.77-1.3,1.03-2.01l2.12,1.41Zm-6.71-4.07c-.86,1.31-1.89,2.49-3.06,3.53-1.02.95-2.12,1.8-3.29,2.55-.45-.74-1.02-1.39-1.68-1.95,2.42-1.18,4.47-3.01,5.9-5.3l2.12,1.16Zm.56-4.56c0-.54-.04-1.08-.13-1.61h2.77c-.1.53-.15,1.07-.13,1.61v.78h6.06c.93.02,1.85-.03,2.77-.13v2.55c-.93-.11-1.88-.15-2.82-.13h-14.22c-.93-.02-1.87.03-2.79.13v-2.55c.93.11,1.86.15,2.79.13h5.7v-.78Zm5.1,3.35c.75,1.03,1.64,1.96,2.64,2.75,1.13.89,2.38,1.62,3.71,2.17-.59.64-1.07,1.38-1.43,2.17-1.45-.74-2.8-1.67-4.02-2.75-1.08-.91-2.04-1.96-2.86-3.11l1.97-1.23Z"/>
  <path id="_パス_1298" data-name="パス 1298" class="cls-5" d="m178.92,185.81c1.41,1.72,2.82,2.39,6.35,3.04-.42.71-.75,1.47-.96,2.26-1.54-.32-3.01-.91-4.34-1.74-1.03-.59-1.9-1.42-2.55-2.41-.64,1.03-1.52,1.89-2.57,2.5-1.36.81-2.86,1.37-4.43,1.65-.26-.77-.61-1.51-1.05-2.19,1.51-.09,2.99-.52,4.32-1.25.79-.44,1.46-1.08,1.92-1.86h-3.31c-.67,0-1.34.02-2.01.09v-2.24c.41.06.83.09,1.25.09v-6.22l-.54.4c-.22-.44-.48-.85-.78-1.23-.27-.02-.58-.04-.85-.04h-.25v3.49c.47-.18.74-.29,1.43-.58v2.21c-.74.31-.89.38-1.43.6v6.31c0,1.77-.56,2.17-3,2.17-.36,0-.63-.02-1.27-.07-.04-.77-.2-1.54-.49-2.26.6.08,1.21.13,1.81.13.49,0,.6-.11.6-.6v-4.83c-.75.2-1.49.45-2.21.74l-.34-2.44c.87-.11,1.72-.31,2.55-.58v-4.29h-.83c-.5,0-1,.03-1.5.09v-2.37c.5.08,1.01.12,1.52.11h.8v-1.81c.02-.77-.03-1.54-.13-2.3h2.59c-.09.76-.13,1.52-.11,2.28v1.83h.22c.39,0,.78-.02,1.16-.07v1.09c1.09-.83,2.03-1.83,2.79-2.97.51-.73.89-1.53,1.12-2.39l2.48.27q-.11.22-.34.74c-.05.09-.11.2-.2.38h2.64c.55.01,1.09-.02,1.63-.09l1.19,1.21c-.2.26-.39.54-.56.83-.43.67-.89,1.31-1.39,1.92h2.12c.94,0,1.39-.02,1.92-.07-.05.58-.07,1.14-.07,2.17v6.24c.58-.02.85-.05,1.21-.09v2.26c-.72-.09-1.44-.13-2.17-.11h-3.98Zm-2.68-2.06c.1-.52.14-1.06.11-1.59l2.3.07q-.09.85-.16,1.52h3.24v-1.97c-.72.02-1.1.04-1.19.04-1.88,0-2.41-.34-2.41-1.43v-2.97h-.98c-.11,3-.6,4.18-2.24,5.61-.4-.44-.84-.83-1.32-1.19v1.9h2.64Zm-2.64-6.32v4.11c.62-.43,1.08-1.05,1.32-1.77.26-.75.38-1.55.36-2.35h-1.68Zm3.67-2.01c.5-.58.94-1.2,1.34-1.86h-3.38c-.43.64-.9,1.26-1.41,1.86h3.44Zm4.47,2.01h-1.72v2.01c0,.49.09.54.94.54.18,0,.36,0,.78-.02v-2.53Z"/>
  <path id="_パス_1299" data-name="パス 1299" class="cls-5" d="m84.95,245.05c-.07,2.25-.37,4.49-.89,6.68l-2.01-.78c.57-2.03.88-4.12.92-6.23l1.99.33Zm-2.79-3.4c.47.04.96.07,1.39.07.12,0,.24,0,.36-.02.45-.56.6-.8,1.09-1.48q-.11-.16-.31-.43c-.77-1.1-1.65-2.11-2.62-3.04l1.25-1.83q.36.38.72.78c.33-.56.63-1.13.89-1.72.3-.64.56-1.31.76-1.99l2.15.78c-.15.22-.27.45-.38.69-.62,1.32-1.32,2.59-2.1,3.82.45.56.56.69.85,1.12.89-1.28,1.64-2.65,2.24-4.09l2.06,1.05c-.16.22-.31.47-.63,1.01-1.08,1.81-2.26,3.55-3.53,5.23,1.3-.07,1.68-.09,2.44-.16-.25-.63-.38-.92-.8-1.81l1.63-.65c.74,1.43,1.37,2.91,1.9,4.43l-1.88.78c-.13-.45-.13-.47-.25-.92q-.78.09-1.59.16v7.09c-.02.79.02,1.57.13,2.35h-2.44c.11-.79.15-1.58.13-2.37v-6.89q-.8.04-2.21.13c-.34.03-.69.07-1.03.13l-.22-2.24Zm7.87,2.97c.41,1.78.72,3.58.94,5.39l-1.83.42c-.14-1.81-.43-3.6-.85-5.37l1.74-.45Zm2.44-5.25c-.44.38-.9.73-1.39,1.05-.27-.76-.7-1.45-1.27-2.01,1.05-.62,2-1.4,2.82-2.3,1.04-1.1,1.87-2.37,2.46-3.76h2.44c.73,1.54,1.78,2.92,3.08,4.02.84.75,1.75,1.4,2.73,1.95-.52.68-.9,1.44-1.14,2.26-.54-.35-1.07-.73-1.56-1.14v1.57c-.67-.07-1.34-.1-2.01-.09h-4.14c-.67-.01-1.34.02-2.01.09v-1.64Zm1.52,13.35h-2.42c.07-.76.11-1.48.11-2.3v-5.48c.02-.68-.01-1.36-.09-2.03.56.04,1.05.07,1.92.07h6.33c.61,0,1.22-.01,1.83-.07-.07.67-.1,1.34-.09,2.01v5.25c-.01.85.03,1.7.11,2.55h-2.5v-1.25h-5.21v1.25Zm4.83-13.91c.51,0,.76,0,1.03-.02-1.38-1.15-2.56-2.53-3.49-4.07-.86,1.51-1.94,2.88-3.22,4.07.4.02.63.02,1.16.02h4.52Zm-4.83,10.51h5.23v-4.27h-5.23v4.27Z"/>
  <path id="_パス_1300" data-name="パス 1300" class="cls-5" d="m106.91,237.72c1.41.83,2.75,1.77,4,2.82l-1.41,2.01c-1.2-1.14-2.53-2.15-3.96-3l1.37-1.83Zm11.65,7.94c-.59,1.16-1.41,2.2-2.39,3.06-1.15,1.03-2.47,1.85-3.89,2.44-.37-.66-.85-1.25-1.43-1.74,2.57-.96,4.32-2.19,5.32-3.76h-1.46c-.92.9-1.97,1.66-3.11,2.26-.36-.58-.8-1.12-1.3-1.59-.5,1.75-1.15,3.44-1.95,5.07-.31.63-.34.67-.54,1.05l-2.21-1.81c.44-.52.81-1.1,1.1-1.72.82-1.62,1.45-3.33,1.88-5.1l2.08,1.36-.29.94c1.63-.68,3.04-1.81,4.05-3.26h-1.16c-.73,0-1.46.03-2.19.11v-2.21c.7.08,1.4.11,2.1.09h10.73c.79.01,1.57-.03,2.35-.13v2.26c-.77-.08-1.55-.12-2.33-.11h-7.09c-.17.33-.37.64-.58.94h7.43c.66.02,1.33-.01,1.99-.09q-.02.16-.13,2.48c-.13,2.73-.4,4.4-.83,5.21-.4.78-1.12,1.05-2.79,1.05-.64,0-1.28-.02-1.92-.09-.1-.74-.31-1.47-.63-2.15-1.01,1.04-2.18,1.91-3.47,2.57-.44-.65-1-1.21-1.65-1.65,1.33-.55,2.55-1.34,3.6-2.33.95-.88,1.69-1.95,2.17-3.15h-1.45Zm-10.76-13.57c1.42.87,2.75,1.87,3.98,3l-1.52,1.94c-1.17-1.21-2.48-2.27-3.91-3.15l1.45-1.79Zm7,7.85c-.69-.01-1.37.02-2.06.09.07-.72.1-1.44.09-2.17v-3.22c0-.68-.02-1.36-.09-2.04.75.09,1.5.13,2.26.11h6.91c.8.02,1.6-.02,2.39-.11-.07.74-.1,1.47-.09,2.21v3.06c-.01.72.02,1.43.09,2.15-.67-.07-1.34-.1-2.01-.09h-7.49Zm.27-4.36h6.89v-.92h-6.89v.92Zm0,2.62h6.89v-.96h-6.89v.96Zm7.14,7.47c-.53,1.67-1.46,3.19-2.7,4.43.79.14,1.59.21,2.39.22.65,0,.85-.25,1.03-1.18.19-1.15.3-2.3.31-3.47h-1.03Z"/>
  <path id="_パス_1301" data-name="パス 1301" class="cls-5" d="m136.69,240.34c.34-.42.63-.88.87-1.36h-4.92c-.72,0-1.52.02-2.1.07.07-.62.1-1.24.09-1.86v-2.57c0-.64-.02-1.28-.09-1.92.72.07,1.44.1,2.17.09h3.76c.71.01,1.42-.02,2.12-.09-.04.49-.07.96-.07,1.74v3.78l1.5.22c.02-.4.02-.58.02-1.01v-2.99c0-.58-.02-1.17-.09-1.74.7.07,1.4.1,2.1.09h3.98c.72,0,1.45-.02,2.17-.09-.07.64-.1,1.28-.09,1.92v2.57c-.01.62.02,1.24.09,1.86-.58-.05-1.39-.07-2.1-.07h-4.02c-.8,0-1.39.02-1.9.07-.23.45-.5.88-.78,1.3h7.67c.82,0,1.63-.04,2.44-.13v2.41c-.81-.09-1.62-.14-2.44-.13h-3.35c1.78,1.64,4.02,2.71,6.41,3.06-.48.7-.85,1.47-1.1,2.28-.69-.27-.92-.34-1.45-.58v3.42c0,.7.04,1.4.13,2.1h-2.44v-1.01h-3.13v1.01h-2.35c.07-.56.1-1.13.09-1.7v-4.54c0-.8-.02-1.25-.07-1.79.57.07,1.15.1,1.72.09h1.72c-.92-.66-1.74-1.45-2.44-2.35h-2.97c-.74.87-1.57,1.66-2.48,2.35h1.57c.58,0,1.15-.02,1.72-.09-.05.59-.08,1.19-.07,1.79v4.36c0,.57.02,1.14.09,1.7h-2.3v-.83h-2.88v1.03h-2.44c.09-.67.14-1.35.13-2.03v-3.4c-.38.18-.65.31-1.27.58-.21-.81-.58-1.56-1.1-2.21,2.19-.61,4.21-1.72,5.9-3.24h-2.95c-.82-.02-1.64.02-2.46.13v-2.41c.82.1,1.64.15,2.46.13h4.93Zm-3.78-3.15h3.35v-2.53h-3.35v2.53Zm.58,12.57h2.88v-3h-2.88v3Zm8.65,0h3.13v-3h-3.13v3Zm.18-12.57h3.49v-2.5h-3.49v2.5Z"/>
  <path id="_パス_1302" data-name="パス 1302" class="cls-5" d="m167.63,242.37c-.81,1.54-1.82,2.96-3,4.25,2.26,1.72,4.7,2.77,8.59,3.64-.54.75-.95,1.59-1.21,2.48-4.18-1.16-6.68-2.37-9.17-4.43-2.63,2.06-5.64,3.59-8.85,4.52-.27-.85-.69-1.64-1.23-2.35,3.01-.69,5.85-1.99,8.34-3.82-1.19-1.31-2.18-2.79-2.95-4.38l2.01-1.3c.11.2.18.38.22.47.64,1.31,1.48,2.52,2.48,3.58.62-.62,1.16-1.31,1.61-2.06.42-.63.77-1.3,1.03-2.01l2.12,1.41Zm-6.71-4.07c-.86,1.31-1.89,2.49-3.06,3.53-1.02.95-2.12,1.8-3.29,2.55-.45-.74-1.02-1.39-1.68-1.95,2.42-1.18,4.47-3.01,5.9-5.3l2.12,1.16Zm.56-4.56c0-.54-.04-1.08-.13-1.61h2.77c-.1.53-.15,1.07-.13,1.61v.78h6.06c.93.02,1.85-.03,2.77-.13v2.55c-.93-.11-1.88-.15-2.82-.13h-14.22c-.93-.02-1.87.03-2.79.13v-2.55c.93.11,1.86.15,2.79.13h5.7v-.78Zm5.1,3.35c.75,1.03,1.64,1.96,2.64,2.75,1.13.89,2.38,1.62,3.71,2.17-.59.64-1.07,1.38-1.43,2.17-1.45-.74-2.8-1.67-4.02-2.75-1.08-.91-2.04-1.96-2.86-3.11l1.97-1.23Z"/>
  <path id="_パス_1303" data-name="パス 1303" class="cls-5" d="m190.65,247.56c1.41,1.72,2.82,2.39,6.35,3.04-.42.71-.75,1.47-.96,2.26-1.54-.32-3.01-.91-4.34-1.74-1.03-.59-1.9-1.42-2.55-2.41-.64,1.03-1.52,1.89-2.57,2.5-1.36.81-2.86,1.37-4.43,1.65-.26-.77-.61-1.51-1.05-2.19,1.51-.09,2.99-.52,4.32-1.25.79-.44,1.46-1.08,1.92-1.86h-3.31c-.67,0-1.34.02-2.01.09v-2.24c.41.06.83.09,1.25.09v-6.22l-.54.4c-.22-.44-.48-.85-.78-1.23-.27-.02-.58-.04-.85-.04h-.25v3.49c.47-.18.74-.29,1.43-.58v2.21c-.74.31-.89.38-1.43.6v6.31c0,1.77-.56,2.17-3,2.17-.36,0-.63-.02-1.27-.07-.04-.77-.2-1.54-.49-2.26.6.08,1.21.13,1.81.13.49,0,.6-.11.6-.6v-4.83c-.75.2-1.49.45-2.21.74l-.34-2.44c.87-.11,1.72-.31,2.55-.58v-4.29h-.83c-.5,0-1,.03-1.5.09v-2.37c.5.08,1.01.12,1.52.11h.8v-1.81c.02-.77-.03-1.54-.13-2.3h2.59c-.09.76-.13,1.52-.11,2.28v1.83h.22c.39,0,.78-.02,1.16-.07v1.1c1.09-.83,2.03-1.83,2.79-2.97.51-.73.89-1.53,1.12-2.39l2.48.27q-.11.22-.34.74c-.05.09-.11.2-.2.38h2.64c.55.01,1.09-.02,1.63-.09l1.19,1.21c-.2.26-.39.54-.56.83-.43.67-.89,1.31-1.39,1.92h2.12c.94,0,1.39-.02,1.92-.07-.05.58-.07,1.14-.07,2.17v6.24c.58-.02.85-.05,1.21-.09v2.26c-.72-.09-1.44-.13-2.17-.11h-3.98Zm-2.68-2.06c.1-.52.14-1.06.11-1.59l2.3.07q-.09.85-.16,1.52h3.24v-1.97c-.72.02-1.1.04-1.19.04-1.88,0-2.41-.34-2.41-1.43v-2.97h-.98c-.11,3-.6,4.18-2.24,5.61-.4-.44-.84-.83-1.32-1.19v1.9h2.64Zm-2.64-6.33v4.11c.62-.43,1.08-1.05,1.32-1.77.26-.75.38-1.55.36-2.35h-1.68Zm3.67-2.01c.5-.58.94-1.2,1.34-1.86h-3.38c-.43.64-.9,1.26-1.41,1.86h3.44Zm4.47,2.01h-1.72v2.01c0,.49.09.54.94.54.18,0,.36,0,.78-.02v-2.53Z"/>
</svg>